<?xml version="1.0" encoding="utf-8" ?><svg xmlns="http://www.w3.org/2000/svg" xmlns:xlink="http://www.w3.org/1999/xlink" width="956" height="726" viewBox="0 0 956 726"><path fill="#FBFBFA" transform="scale(0.953006 0.953006)" d="M0 0L1003 0L1003 762L0 762L0 0Z"/><path fill="#141415" transform="scale(0.953006 0.953006)" d="M185.055 140.19C185.418 140.417 185.88 140.856 186.221 141.151C186.688 143.657 186.442 147.413 186.368 150.07L177.454 150.124L176.832 149.548L177.026 148.777C179.085 148.175 182.653 148.394 184.928 148.422C184.787 145.31 184.859 143.313 185.055 140.19Z"/><path fill="#141415" transform="scale(0.953006 0.953006)" d="M107.27 147.509C110.291 148.96 112.9 147.66 116.798 149.566L115.704 149.405L115.404 150.123L115.026 150.193L114.943 149.381L114.409 149.363L114.119 150.393C112.759 150.271 111.434 150.243 110.07 150.199C109.258 150.325 109.657 150.2 108.946 150.872C108.917 151.505 108.873 152.137 108.816 152.767C108.718 153.861 108.446 155.939 107.6 156.653C107.19 153.672 107.273 150.53 107.27 147.509Z"/><path fill="#141415" transform="scale(0.953006 0.953006)" d="M176.478 71.2425C179.36 70.8476 183.347 71.0376 186.337 71.0841C186.431 74.7258 186.498 77.5131 186.24 81.1779C185.852 80.9585 185.365 80.5538 184.994 80.2718C184.45 78.0068 184.787 74.8577 184.92 72.4545C182.257 72.5272 178.271 73.2077 176.478 71.2425Z"/><path fill="#141415" transform="scale(0.953006 0.953006)" d="M184.922 608.836C185.853 609.181 185.785 609.161 186.408 609.943C186.49 612.376 186.753 614.653 186.108 616.969L185.347 617.389C182.877 616.534 182.384 616.43 179.747 616.54L179.125 616.57C178.063 616.622 177.988 616.523 176.952 616.21L177.051 615.722C179.785 614.96 181.945 615.133 184.776 615.163C184.763 613.095 184.863 610.912 184.922 608.836Z"/><path fill="#141415" transform="scale(0.953006 0.953006)" d="M107.909 615.2C111.204 615.109 113.54 614.838 116.647 616.042C114.516 616.519 109.978 616.192 108.738 617.186C108.767 619.655 109.08 622.278 108.127 624.436L107.594 624.025C106.836 620.891 107.143 618.296 107.909 615.2Z"/><path fill="#141415" transform="scale(0.953006 0.953006)" d="M878.881 148.537L885.819 148.277C885.861 151.711 885.851 154.124 885.557 157.531L884.621 156.791C883.539 153.931 885.663 151.714 883.257 150.097C880.523 150.425 879.973 150.92 878.881 148.537Z"/><path fill="#141415" transform="scale(0.953006 0.953006)" d="M879.081 615.306C880.877 615.125 883.49 615.205 885.356 615.204C885.789 618.794 886.14 622.475 885.359 626.033C882.606 623.453 885.998 618.676 883.498 616.555C881.863 616.65 880.971 616.858 879.49 616.279L879.081 615.306Z"/><path fill="#141415" transform="scale(0.953006 0.953006)" d="M106.739 70.9955C109.131 70.9439 114.948 70.5011 116.789 71.6492L116.419 72.4345C114.101 72.3792 108.062 73.3836 107.351 73.2635L106.739 70.9955Z"/><path fill="#141415" transform="scale(0.953006 0.953006)" d="M644.725 148.53C647.158 148.413 651.722 147.964 653.875 148.845L654.157 150.057C651.821 150.105 647.333 150.457 645.319 149.802L644.725 148.53Z"/><path fill="#141415" transform="scale(0.953006 0.953006)" d="M341.738 148.532C344.066 148.413 348.821 147.933 350.832 148.877L351.044 150.059C348.765 150.124 344.808 150.412 342.571 149.924C341.985 149.796 342.025 149.322 341.738 148.532Z"/><path fill="#141415" transform="scale(0.953006 0.953006)" d="M823.647 148.542C825.975 148.418 830.735 147.923 832.74 148.88L832.954 150.072C830.811 150.111 825.861 150.467 824.09 149.709L823.647 148.542Z"/><path fill="#141415" transform="scale(0.953006 0.953006)" d="M162.829 148.535C165.26 148.419 169.809 147.973 171.961 148.85L172.211 150.004C169.849 150.078 165.482 150.459 163.413 149.802L162.829 148.535Z"/><path fill="#141415" transform="scale(0.953006 0.953006)" d="M685.913 148.536C688.237 148.423 693.158 147.953 695.121 148.908L695.286 149.989C693.151 150.064 688.283 150.467 686.464 149.788L685.913 148.536Z"/><path fill="#141415" transform="scale(0.953006 0.953006)" d="M300.516 148.545C302.857 148.422 307.679 147.918 309.691 148.892L309.884 150.042C307.516 150.094 303.11 150.438 301.045 149.75L300.516 148.545Z"/><path fill="#141415" transform="scale(0.953006 0.953006)" d="M575.672 148.596C578.62 148.396 583.885 147.434 585.584 149.873C583.031 150.027 579.765 150.347 577.236 150.014C576.27 149.887 576.359 149.593 575.672 148.596Z"/><path fill="#141415" transform="scale(0.953006 0.953006)" d="M451.834 148.545C454.183 148.424 459.01 147.921 461.021 148.915L461.196 150.019C459.069 150.077 454.184 150.438 452.376 149.76L451.834 148.545Z"/><path fill="#141415" transform="scale(0.953006 0.953006)" d="M713.455 148.598C715.695 148.442 720.746 147.841 722.632 148.906L722.642 150.108C719.317 150.016 715.482 151.25 713.455 148.598Z"/><path fill="#141415" transform="scale(0.953006 0.953006)" d="M272.757 148.592C275.653 148.398 279.035 148.034 281.82 148.759L282.52 149.952C279.8 150.03 276.57 150.369 273.967 149.973C273.432 149.891 273.176 149.21 272.757 148.592Z"/><path fill="#141415" transform="scale(0.953006 0.953006)" d="M782.435 148.535C784.767 148.42 789.609 147.927 791.603 148.894L791.788 150.033C789.468 150.084 784.925 150.47 782.969 149.745L782.435 148.535Z"/><path fill="#141415" transform="scale(0.953006 0.953006)" d="M410.599 148.543C412.679 148.423 417.891 147.896 419.605 148.898L419.689 150.072C417.433 150.096 413.174 150.385 411.232 149.804L410.599 148.543Z"/><path fill="#141415" transform="scale(0.953006 0.953006)" d="M185.729 691.868C187.45 693.414 188.406 692.333 190.853 693.715C190.065 694.563 190.231 694.285 188.675 694.406C186.902 694.404 184.139 694.56 182.545 694.053L182.766 693.354C184.068 692.847 184.517 692.583 185.729 691.868Z"/><path fill="#141415" transform="scale(0.953006 0.953006)" d="M754.659 148.593C757.354 148.415 760.795 148.057 763.388 148.67C764.034 148.823 763.901 149.056 764.442 149.981C761.908 150.086 758.924 150.315 756.431 150.052C755.291 149.932 755.489 149.75 754.659 148.593Z"/><path fill="#141415" transform="scale(0.953006 0.953006)" d="M203.978 148.541C206.292 148.432 211.246 147.972 213.209 148.896L213.374 149.972C211 150.055 206.66 150.44 204.562 149.783L203.978 148.541Z"/><path fill="#141415" transform="scale(0.953006 0.953006)" d="M231.605 148.592C234.495 148.339 239.748 147.417 241.345 149.918C238.637 150.041 235.468 150.411 232.857 149.972C232.294 149.878 232.049 149.226 231.605 148.592Z"/><path fill="#141415" transform="scale(0.953006 0.953006)" d="M534.635 148.538C536.948 148.427 541.825 147.971 543.787 148.902L543.942 149.961C541.719 150.061 537.064 150.495 535.136 149.752L534.635 148.538Z"/><path fill="#141415" transform="scale(0.953006 0.953006)" d="M810.023 148.524C812.482 148.421 816.851 148.008 819.037 148.815L819.246 150.001C817.059 150.085 812.192 150.548 810.396 149.688L810.023 148.524Z"/><path fill="#141415" transform="scale(0.953006 0.953006)" d="M796.145 148.541C798.258 148.431 803.588 147.949 805.319 148.909L805.459 149.947C803.252 150.047 798.581 150.479 796.666 149.755L796.145 148.541Z"/><path fill="#141415" transform="scale(0.953006 0.953006)" d="M382.806 148.597C385.698 148.388 391.05 147.446 392.647 149.871C389.978 150.017 386.516 150.393 383.95 149.908C383.344 149.793 383.348 149.412 382.806 148.597Z"/><path fill="#141415" transform="scale(0.953006 0.953006)" d="M479.579 148.517C481.832 148.42 486.501 148.003 488.455 148.83L488.664 150.014C486.374 150.055 481.938 150.425 480.017 149.787L479.579 148.517Z"/><path fill="#141415" transform="scale(0.953006 0.953006)" d="M672.316 148.53C674.591 148.43 679.474 148.001 681.41 148.859L681.594 149.986C679.435 150.066 674.57 150.508 672.776 149.722L672.316 148.53Z"/><path fill="#141415" transform="scale(0.953006 0.953006)" d="M217.788 148.571C220.614 148.39 225.841 147.515 227.51 149.78C224.934 149.989 220.662 150.538 218.291 149.689L217.788 148.571Z"/><path fill="#141415" transform="scale(0.953006 0.953006)" d="M190.3 148.531C192.403 148.43 197.783 147.962 199.497 148.919L199.641 149.962C197.324 150.04 192.838 150.465 190.866 149.761L190.3 148.531Z"/><path fill="#141415" transform="scale(0.953006 0.953006)" d="M520.602 148.595C523.481 148.411 526.874 148.046 529.636 148.753L530.336 149.957C527.189 150.052 522.435 151.094 520.602 148.595Z"/><path fill="#141415" transform="scale(0.953006 0.953006)" d="M438.182 148.533C440.468 148.433 445.369 148 447.312 148.876L447.479 149.965C445.144 150.042 440.649 150.479 438.677 149.737L438.182 148.533Z"/><path fill="#141415" transform="scale(0.953006 0.953006)" d="M548.258 148.53C550.643 148.434 555.319 148.035 557.403 148.83L557.636 149.965C555.346 150.036 550.824 150.443 548.872 149.78L548.258 148.53Z"/><path fill="#141415" transform="scale(0.953006 0.953006)" d="M396.884 148.542C399.282 148.435 403.956 148.018 406.049 148.863L406.264 149.939C403.692 150.027 399.826 150.453 397.539 149.786L396.884 148.542Z"/><path fill="#141415" transform="scale(0.953006 0.953006)" d="M328.031 148.536C330.311 148.433 335.171 148.005 337.118 148.865L337.291 149.961C334.524 150.081 329.063 151.211 328.031 148.536Z"/><path fill="#141415" transform="scale(0.953006 0.953006)" d="M465.571 148.599C468.345 148.377 473.87 147.466 475.406 149.841C472.883 149.984 469.77 150.336 467.326 150.009C466.033 149.835 466.437 149.856 465.571 148.599Z"/><path fill="#141415" transform="scale(0.953006 0.953006)" d="M562.081 148.568C564.886 148.396 570.158 147.52 571.794 149.77C569.221 149.979 564.959 150.523 562.583 149.697L562.081 148.568Z"/><path fill="#141415" transform="scale(0.953006 0.953006)" d="M589.568 148.572C592.379 148.383 597.611 147.512 599.244 149.787C596.67 149.99 592.356 150.55 590.01 149.653L589.568 148.572Z"/><path fill="#141415" transform="scale(0.953006 0.953006)" d="M185.174 415.534L186.217 416.388C186.736 419.368 186.495 422.349 186.11 425.332L185 424.507C184.439 421.519 184.759 418.526 185.174 415.534Z"/><path fill="#141415" transform="scale(0.953006 0.953006)" d="M245.301 148.528C247.567 148.431 252.418 148.018 254.354 148.849L254.536 149.974C252.366 150.059 247.505 150.523 245.717 149.699L245.301 148.528Z"/><path fill="#141415" transform="scale(0.953006 0.953006)" d="M185.114 677.475L186.217 678.374C186.703 681.013 186.586 684.638 186.042 687.264L185.004 686.492C184.414 683.779 184.849 680.26 185.114 677.475Z"/><path fill="#141415" transform="scale(0.953006 0.953006)" d="M506.923 148.589C509.727 148.409 513.256 148.079 515.936 148.742L516.615 149.918C513.606 150.035 508.542 151.098 506.923 148.589Z"/><path fill="#141415" transform="scale(0.953006 0.953006)" d="M314.165 148.535C316.364 148.437 321.429 148.004 323.284 148.882L323.488 149.945C320.856 150.039 317.127 150.461 314.771 149.786L314.165 148.535Z"/><path fill="#141415" transform="scale(0.953006 0.953006)" d="M603.357 148.589C606.155 148.407 609.738 148.062 612.402 148.752L613.074 149.909C609.978 150.064 605.168 151.123 603.357 148.589Z"/><path fill="#141415" transform="scale(0.953006 0.953006)" d="M864.903 148.59C867.696 148.411 871.276 148.059 873.929 148.751L874.616 149.933C871.5 150.071 866.723 151.123 864.903 148.59Z"/><path fill="#141415" transform="scale(0.953006 0.953006)" d="M369.211 148.607C372.549 148.399 376.789 147.624 379.195 149.623C376.253 150.166 371.163 151.014 369.211 148.607Z"/><path fill="#141415" transform="scale(0.953006 0.953006)" d="M148.751 148.594C151.681 148.393 156.919 147.443 158.55 149.888C155.276 150.066 150.823 151.145 148.751 148.594Z"/><path fill="#141415" transform="scale(0.953006 0.953006)" d="M768.697 148.569C771.552 148.429 776.603 147.578 778.411 149.687C775.791 149.957 771.715 150.552 769.254 149.725L768.697 148.569Z"/><path fill="#141415" transform="scale(0.953006 0.953006)" d="M616.918 148.592C619.721 148.387 625.197 147.461 626.741 149.85C623.575 150.03 618.764 151.162 616.918 148.592Z"/><path fill="#141415" transform="scale(0.953006 0.953006)" d="M699.819 148.57C702.584 148.36 707.884 147.521 709.468 149.804C707.133 149.977 702.227 150.556 700.206 149.624L699.819 148.57Z"/><path fill="#141415" transform="scale(0.953006 0.953006)" d="M185.166 484.571L186.218 485.443C186.721 488.257 186.525 491.533 186.077 494.351L185.003 493.546C184.445 490.57 184.768 487.554 185.166 484.571Z"/><path fill="#141415" transform="scale(0.953006 0.953006)" d="M185.193 374.41L186.137 375.13C186.77 377.912 186.428 381.408 186.18 384.263L184.999 383.385C184.441 380.393 184.775 377.405 185.193 374.41Z"/><path fill="#141415" transform="scale(0.953006 0.953006)" d="M135.002 148.608C137.923 148.357 142.831 147.703 145.001 149.621C141.836 150.062 137.195 151.108 135.002 148.608Z"/><path fill="#141415" transform="scale(0.953006 0.953006)" d="M851.107 148.606C854.397 148.406 858.716 147.648 861.104 149.619C858.14 150.151 853.082 151.012 851.107 148.606Z"/><path fill="#141415" transform="scale(0.953006 0.953006)" d="M184.857 112.729C185.226 112.835 185.797 113.143 186.167 113.321C186.741 115.704 186.462 119.429 186.384 121.997L185.258 121.712C184.315 120.227 184.779 114.679 184.857 112.729Z"/><path fill="#141415" transform="scale(0.953006 0.953006)" d="M741.177 148.535C743.262 148.434 748.487 147.956 750.219 148.899L750.238 149.971C747.744 150.02 743.988 150.416 741.825 149.8L741.177 148.535Z"/><path fill="#141415" transform="scale(0.953006 0.953006)" d="M424.387 148.568C427.074 148.393 432.411 147.609 434.034 149.669C431.167 149.98 427.732 150.503 424.965 149.738L424.387 148.568Z"/><path fill="#141415" transform="scale(0.953006 0.953006)" d="M286.531 148.607C289.432 148.433 294.365 147.735 296.486 149.403C293.759 150.349 288.555 150.949 286.531 148.607Z"/><path fill="#141415" transform="scale(0.953006 0.953006)" d="M658.438 148.57C661.099 148.401 666.515 147.596 668.078 149.673C665.535 150.07 661.519 150.412 659.062 149.743L658.438 148.57Z"/><path fill="#141415" transform="scale(0.953006 0.953006)" d="M121.245 148.592C123.95 148.368 129.549 147.516 131.072 149.78C127.931 150.012 123.04 151.203 121.245 148.592Z"/><path fill="#141415" transform="scale(0.953006 0.953006)" d="M837.415 148.589C840.14 148.403 843.914 148.089 846.5 148.754L847.149 149.856C844.011 150.041 839.303 151.133 837.415 148.589Z"/><path fill="#141415" transform="scale(0.953006 0.953006)" d="M630.877 148.606C633.596 148.427 638.475 147.849 640.688 149.229C639.188 150.124 635.799 150.247 634.016 150.128C631.683 149.972 632.011 149.985 630.877 148.606Z"/><path fill="#141415" transform="scale(0.953006 0.953006)" d="M355.506 148.572C358.181 148.37 363.582 147.536 365.146 149.754C362.785 149.955 358.006 150.549 355.914 149.632L355.506 148.572Z"/><path fill="#141415" transform="scale(0.953006 0.953006)" d="M727.111 148.609C729.979 148.36 734.944 147.707 737.047 149.621C733.905 150.064 729.296 151.087 727.111 148.609Z"/><path fill="#141415" transform="scale(0.953006 0.953006)" d="M185.043 305.733C185.409 305.946 185.875 306.349 186.223 306.624C186.719 309.137 186.439 312.617 186.336 315.256L185.461 314.924C184.116 313.053 184.833 308.085 185.043 305.733Z"/><path fill="#141415" transform="scale(0.953006 0.953006)" d="M259.069 148.59C261.882 148.347 267.207 147.449 268.759 149.872C265.638 150.043 260.914 151.126 259.069 148.59Z"/><path fill="#141415" transform="scale(0.953006 0.953006)" d="M185.055 236.693C185.416 236.908 185.88 237.316 186.223 237.592C186.707 240.095 186.441 243.607 186.349 246.236L185.124 245.657C184.359 243.304 184.847 239.206 185.055 236.693Z"/><path fill="#141415" transform="scale(0.953006 0.953006)" d="M184.949 346.838C185.59 347.151 185.649 347.253 186.216 347.694C186.73 350.26 186.434 353.704 186.319 356.392C185.65 356.118 185.616 356.04 185.014 355.63C184.482 352.991 184.81 349.591 184.949 346.838Z"/><path fill="#141415" transform="scale(0.953006 0.953006)" d="M185.149 470.849L186.046 471.45C186.883 473.903 186.358 478.065 186.111 480.69L185.005 479.803C184.479 476.859 184.783 473.803 185.149 470.849Z"/><path fill="#141415" transform="scale(0.953006 0.953006)" d="M184.99 539.783C185.375 539.996 185.854 540.397 186.221 540.676C186.734 543.213 186.42 546.678 186.296 549.342C185.372 548.936 185.69 549.12 184.951 548.4C184.484 545.719 184.82 542.542 184.99 539.783Z"/><path fill="#141415" transform="scale(0.953006 0.953006)" d="M185.108 84.9087L186.156 85.6788C186.805 88.3803 186.376 92.0011 186.101 94.7765L185.088 94.0385C184.424 91.1907 184.843 87.8326 185.108 84.9087Z"/><path fill="#141415" transform="scale(0.953006 0.953006)" d="M185.193 208.883L186.22 209.735C186.72 212.598 186.376 215.825 186.194 218.758C185.83 218.53 185.356 218.094 185.01 217.803C184.474 214.855 184.779 211.833 185.193 208.883Z"/><path fill="#141415" transform="scale(0.953006 0.953006)" d="M493.095 148.606C496.074 148.405 500.782 147.649 502.98 149.619C500.05 150.154 495.059 150.98 493.095 148.606Z"/><path fill="#141415" transform="scale(0.953006 0.953006)" d="M185.191 167.748L186.22 168.605C186.663 170.792 186.411 174.622 186.336 177.003C185.396 177.113 185.844 177.171 185.006 176.668C184.443 174.211 184.801 170.256 185.191 167.748Z"/><path fill="#141415" transform="scale(0.953006 0.953006)" d="M185.16 277.903C185.471 278.108 185.961 278.609 186.254 278.885C186.703 282.113 186.405 284.568 186.16 287.783L185.081 286.976C184.435 284.155 184.827 280.779 185.16 277.903Z"/><path fill="#141415" transform="scale(0.953006 0.953006)" d="M185.097 636.306L186.153 637.118C186.706 639.834 186.593 643.397 185.995 646.097L184.969 645.199C184.504 642.423 184.889 639.157 185.097 636.306Z"/><path fill="#141415" transform="scale(0.953006 0.953006)" d="M185.114 567.27L186.153 568.071C186.731 571.007 186.527 574.156 186.05 577.096L184.966 576.156C184.503 573.377 184.898 570.123 185.114 567.27Z"/><path fill="#141415" transform="scale(0.953006 0.953006)" d="M184.928 649.975C185.594 650.251 185.611 650.32 186.208 650.737C186.73 653.38 186.407 656.774 186.269 659.529C185.637 659.202 185.57 659.09 185.013 658.64C184.508 656.104 184.81 652.636 184.928 649.975Z"/><path fill="#141415" transform="scale(0.953006 0.953006)" d="M185.132 581.001L186.153 581.784C186.778 584.682 186.39 587.919 186.106 590.866C185.353 590.382 185.543 590.482 184.944 589.774C184.513 586.647 184.856 584.119 185.132 581.001Z"/><path fill="#141415" transform="scale(0.953006 0.953006)" d="M185.139 264.155L186.216 265.089C186.712 268.029 186.459 271.04 186.071 273.98C185.764 273.776 185.266 273.281 184.973 273.012C184.502 270.067 184.888 267.13 185.139 264.155Z"/><path fill="#141415" transform="scale(0.953006 0.953006)" d="M185.102 181.364L186.153 182.183C186.692 184.747 186.438 188.268 186.357 190.971C185.637 190.658 185.636 190.586 184.997 190.11C184.466 187.29 184.868 184.246 185.102 181.364Z"/><path fill="#141415" transform="scale(0.953006 0.953006)" d="M807.087 374.438L807.897 375.225C808.47 377.951 808.193 381.571 807.866 384.346L806.833 383.369C806.311 380.405 806.397 377.367 807.087 374.438Z"/><path fill="#141415" transform="scale(0.953006 0.953006)" d="M806.94 677.488L807.894 678.337C808.452 681.257 808.277 684.44 807.817 687.363L806.841 686.464C806.266 683.483 806.548 680.479 806.94 677.488Z"/><path fill="#141415" transform="scale(0.953006 0.953006)" d="M185.127 388.046L186.218 388.967C186.719 391.924 186.457 394.903 186.041 397.855L184.973 396.91C184.508 393.964 184.884 391.021 185.127 388.046Z"/><path fill="#141415" transform="scale(0.953006 0.953006)" d="M806.914 84.8929L807.92 85.7833C808.481 88.5944 808.16 91.9814 807.851 94.8299L806.852 93.9032C806.264 91.1347 806.595 87.7033 806.914 84.8929Z"/><path fill="#141415" transform="scale(0.953006 0.953006)" d="M806.852 140.188L807.915 141.125C808.49 144.048 808.158 147.217 807.869 150.169C805.661 148.577 806.641 142.648 806.852 140.188Z"/><path fill="#141415" transform="scale(0.953006 0.953006)" d="M806.995 277.909L807.898 278.727C808.485 281.504 808.134 285.027 807.862 287.858L806.844 286.882C806.301 283.993 806.501 280.793 806.995 277.909Z"/><path fill="#141415" transform="scale(0.953006 0.953006)" d="M185.028 443.284L186.165 444.183C186.682 446.539 186.425 450.347 186.357 452.883C185.665 452.601 185.644 452.529 185.022 452.101C184.493 449.461 184.861 446.04 185.028 443.284Z"/><path fill="#141415" transform="scale(0.953006 0.953006)" d="M185.116 457.085C185.454 457.303 185.898 457.731 186.217 458.011C186.709 460.821 186.501 464.068 185.994 466.863L184.982 465.943C184.518 463.008 184.884 460.052 185.116 457.085Z"/><path fill="#141415" transform="scale(0.953006 0.953006)" d="M185.071 250.531C185.42 250.716 185.885 251.119 186.216 251.379C186.665 254.02 186.67 257.692 185.864 260.263C184.019 258.14 184.84 253.268 185.071 250.531Z"/><path fill="#141415" transform="scale(0.953006 0.953006)" d="M185.188 594.747L186.151 595.53C186.685 597.848 186.415 601.487 186.338 603.98L185.418 604.063C184.113 602.298 184.959 597.017 185.188 594.747Z"/><path fill="#141415" transform="scale(0.953006 0.953006)" d="M807.063 208.897L807.903 209.69C808.483 212.465 808.133 215.998 807.861 218.826L806.843 217.838C806.328 214.872 806.403 211.833 807.063 208.897Z"/><path fill="#141415" transform="scale(0.953006 0.953006)" d="M806.94 581.002L807.906 581.864C808.478 584.644 808.142 588.103 807.862 590.929L806.85 589.995C806.284 586.997 806.551 584.008 806.94 581.002Z"/><path fill="#141415" transform="scale(0.953006 0.953006)" d="M185.285 319.162C185.533 319.339 186.028 319.881 186.264 320.123C186.644 323.466 186.424 325.552 186.186 328.938C185.825 328.708 185.353 328.265 185.011 327.971C184.462 324.839 184.846 322.281 185.285 319.162Z"/><path fill="#141415" transform="scale(0.953006 0.953006)" d="M807.067 415.562L807.899 416.356C808.467 419.053 808.195 422.661 807.868 425.403L806.845 424.477C806.316 421.521 806.392 418.488 807.067 415.562Z"/><path fill="#141415" transform="scale(0.953006 0.953006)" d="M184.875 498.63C185.237 498.734 185.804 499.046 186.166 499.224C186.719 501.595 186.431 505.197 186.342 507.731L185.406 507.645C184.31 506.184 184.807 500.614 184.875 498.63Z"/><path fill="#141415" transform="scale(0.953006 0.953006)" d="M806.712 71.6393C807.573 71.9686 807.262 71.8208 807.959 72.5157C808.449 75.0499 808.146 78.4787 808.025 81.1319C807.41 80.8529 807.338 80.7095 806.803 80.2698C806.291 77.7445 806.595 74.291 806.712 71.6393Z"/><path fill="#141415" transform="scale(0.953006 0.953006)" d="M185.23 622.227C187.32 623.694 186.352 629.725 186.169 632.067L185.08 631.216C184.424 628.298 184.898 625.193 185.23 622.227Z"/><path fill="#141415" transform="scale(0.953006 0.953006)" d="M185.224 291.636L186.148 292.404C186.677 294.707 186.414 298.251 186.339 300.713C185.562 300.942 185.961 300.878 185.091 300.681C184.369 298.248 184.943 294.221 185.224 291.636Z"/><path fill="#141415" transform="scale(0.953006 0.953006)" d="M807.056 167.756L807.902 168.553C808.483 171.324 808.136 174.824 807.86 177.645L806.845 176.694C806.329 173.73 806.401 170.693 807.056 167.756Z"/><path fill="#141415" transform="scale(0.953006 0.953006)" d="M185.032 153.852C185.405 154.111 185.799 154.528 186.141 154.852C186.715 157.515 186.416 160.68 186.289 163.445C185.644 163.145 185.586 163.048 185.011 162.622C184.485 160.027 184.863 156.569 185.032 153.852Z"/><path fill="#141415" transform="scale(0.953006 0.953006)" d="M807.038 484.595L807.896 485.4C808.45 488.31 808.268 491.5 807.804 494.412C807.488 494.167 807.056 493.65 806.767 493.334C806.344 490.428 806.436 487.47 807.038 484.595Z"/><path fill="#141415" transform="scale(0.953006 0.953006)" d="M806.749 346.875C807.099 347.017 807.578 347.351 807.918 347.564C808.453 350.049 808.159 353.767 808.062 356.416C807.167 356.052 807.489 356.217 806.77 355.491C806.316 352.958 806.622 349.52 806.749 346.875Z"/><path fill="#141415" transform="scale(0.953006 0.953006)" d="M806.977 594.746L807.89 595.575C808.48 598.358 808.139 601.829 807.86 604.661L806.847 603.72C806.282 600.695 806.539 597.767 806.977 594.746Z"/><path fill="#141415" transform="scale(0.953006 0.953006)" d="M807.008 470.864L807.9 471.675C808.488 474.45 808.144 477.91 807.859 480.733L806.851 479.805C806.288 476.943 806.496 473.72 807.008 470.864Z"/><path fill="#141415" transform="scale(0.953006 0.953006)" d="M806.922 567.286L807.895 568.152C808.412 571.131 808.359 574.18 807.739 577.139L806.841 576.267C806.268 573.518 806.605 570.078 806.922 567.286Z"/><path fill="#141415" transform="scale(0.953006 0.953006)" d="M806.688 112.736L807.433 113.006C808.783 114.584 808.115 119.872 807.978 122.23C807.4 121.963 807.319 121.821 806.816 121.41C806.316 119.078 806.602 115.249 806.688 112.736Z"/><path fill="#141415" transform="scale(0.953006 0.953006)" d="M806.754 443.362L807.874 444.032C808.442 446.522 808.17 450.248 808.092 452.91C807.44 452.65 807.414 452.561 806.834 452.145C806.28 449.473 806.61 446.144 806.754 443.362Z"/><path fill="#141415" transform="scale(0.953006 0.953006)" d="M806.871 236.669L807.839 237.427C808.564 239.932 808.1 243.936 807.851 246.558L806.986 245.685C806.197 243.001 806.614 239.467 806.871 236.669Z"/><path fill="#141415" transform="scale(0.953006 0.953006)" d="M806.89 636.316L807.894 637.205C808.382 639.85 808.447 643.558 807.617 646.119L806.908 645.449C806.231 642.918 806.629 638.958 806.89 636.316Z"/><path fill="#141415" transform="scale(0.953006 0.953006)" d="M185.004 222.885L186.163 223.614C186.712 226.334 186.395 229.671 186.258 232.496C185.634 232.172 185.561 232.058 185.011 231.614C184.511 229.065 184.858 225.56 185.004 222.885Z"/><path fill="#141415" transform="scale(0.953006 0.953006)" d="M185.187 663.794C187.429 665.32 186.326 671.168 186.087 673.64C183.767 672.101 184.936 666.321 185.187 663.794Z"/><path fill="#141415" transform="scale(0.953006 0.953006)" d="M806.93 388.046L807.906 388.916C808.404 391.896 808.348 394.943 807.739 397.903L806.845 397.028C806.282 394.394 806.589 390.728 806.93 388.046Z"/><path fill="#141415" transform="scale(0.953006 0.953006)" d="M807.013 291.634L807.885 292.45C808.478 295.226 808.139 298.695 807.859 301.52L806.847 300.586C806.291 297.713 806.506 294.501 807.013 291.634Z"/><path fill="#141415" transform="scale(0.953006 0.953006)" d="M806.718 649.984C807.598 650.314 807.278 650.165 807.992 650.876C808.428 653.418 808.142 656.863 808.026 659.514C807.179 659.153 807.474 659.305 806.789 658.628C806.322 656.092 806.607 652.637 806.718 649.984Z"/><path fill="#141415" transform="scale(0.953006 0.953006)" d="M185.055 553.494L186.164 554.402C186.693 556.928 186.417 560.396 186.321 563.054C185.651 562.757 185.618 562.674 185.021 562.24C184.482 559.642 184.876 556.214 185.055 553.494Z"/><path fill="#141415" transform="scale(0.953006 0.953006)" d="M806.941 264.162L807.894 265.016C808.452 267.928 808.257 271.115 807.775 274.026L806.845 273.136C806.289 270.156 806.559 267.151 806.941 264.162Z"/><path fill="#141415" transform="scale(0.953006 0.953006)" d="M806.873 305.72L807.841 306.477C808.565 308.974 808.104 312.946 807.853 315.56L806.876 314.532C806.253 311.97 806.628 308.358 806.873 305.72Z"/><path fill="#141415" transform="scale(0.953006 0.953006)" d="M185.012 333.086L186.167 333.905C186.716 336.536 186.403 339.932 186.276 342.682C185.639 342.34 185.573 342.224 185.016 341.756C184.504 339.248 184.863 335.726 185.012 333.086Z"/><path fill="#141415" transform="scale(0.953006 0.953006)" d="M806.981 663.799L807.889 664.629C808.482 667.413 808.14 670.849 807.847 673.677L806.85 672.758C806.294 669.899 806.521 666.659 806.981 663.799Z"/><path fill="#141415" transform="scale(0.953006 0.953006)" d="M806.772 429.662L807.442 429.93C808.816 431.808 808.1 436.88 807.898 439.254C807.427 439.078 807.218 438.822 806.797 438.478C806.325 435.753 806.629 432.472 806.772 429.662Z"/><path fill="#141415" transform="scale(0.953006 0.953006)" d="M806.731 153.917C807.582 154.245 807.275 154.1 807.964 154.788C808.423 157.333 808.152 160.79 808.048 163.45C807.176 163.085 807.483 163.243 806.777 162.543C806.316 160.009 806.612 156.565 806.731 153.917Z"/><path fill="#141415" transform="scale(0.953006 0.953006)" d="M806.782 360.625L807.439 360.893C808.815 362.762 808.096 367.877 807.895 370.243C807.206 369.977 807.369 369.987 806.789 369.433C806.326 366.704 806.634 363.437 806.782 360.625Z"/><path fill="#141415" transform="scale(0.953006 0.953006)" d="M806.907 457.081L807.906 457.968C808.384 460.635 808.407 464.303 807.64 466.897L806.914 466.211C806.249 463.475 806.598 459.891 806.907 457.081Z"/><path fill="#141415" transform="scale(0.953006 0.953006)" d="M807.106 622.249L807.806 622.894C808.524 625.493 808.128 629.432 807.858 632.136L806.846 631.166C806.368 628.503 806.362 624.843 807.106 622.249Z"/><path fill="#141415" transform="scale(0.953006 0.953006)" d="M806.904 181.375C807.467 181.775 807.518 181.929 807.975 182.465C808.362 185.038 808.521 188.681 807.477 191.095L806.888 190.49C806.241 187.939 806.632 184.021 806.904 181.375Z"/><path fill="#141415" transform="scale(0.953006 0.953006)" d="M806.786 539.862C807.59 540.185 807.316 540.06 807.978 540.691C808.418 543.034 808.148 546.85 808.063 549.359C807.175 548.991 807.489 549.152 806.772 548.438C806.294 545.732 806.618 542.639 806.786 539.862Z"/><path fill="#141415" transform="scale(0.953006 0.953006)" d="M184.987 402.114C185.381 402.309 185.829 402.666 186.202 402.933C186.705 405.588 186.378 408.973 186.234 411.734C185.629 411.374 185.538 411.234 185.012 410.76C184.52 408.288 184.855 404.729 184.987 402.114Z"/><path fill="#141415" transform="scale(0.953006 0.953006)" d="M806.868 250.389L807.817 251.141C808.547 253.863 808.123 257.449 807.854 260.265C805.726 258.442 806.625 253.026 806.868 250.389Z"/><path fill="#141415" transform="scale(0.953006 0.953006)" d="M806.724 222.957C807.589 223.282 807.273 223.132 807.971 223.838C808.42 226.383 808.144 229.826 808.035 232.483C807.188 232.117 807.479 232.268 806.791 231.593C806.318 229.06 806.61 225.607 806.724 222.957Z"/><path fill="#141415" transform="scale(0.953006 0.953006)" d="M807.236 319.195L807.825 319.785C808.505 322.317 808.143 326.377 807.861 329.017C807.294 328.566 807.225 328.39 806.766 327.817C806.39 325.25 806.292 321.634 807.236 319.195Z"/><path fill="#141415" transform="scale(0.953006 0.953006)" d="M806.74 333.158C807.589 333.486 807.284 333.342 807.973 334.026C808.423 336.57 808.145 340.02 808.035 342.676C807.177 342.315 807.479 342.471 806.786 341.782C806.32 339.247 806.619 335.808 806.74 333.158Z"/><path fill="#141415" transform="scale(0.953006 0.953006)" d="M806.779 553.574C807.37 553.822 807.427 553.966 807.94 554.396C808.407 556.742 808.149 560.565 808.074 563.082C807.167 562.723 807.496 562.89 806.769 562.154C806.308 559.624 806.636 556.216 806.779 553.574Z"/><path fill="#141415" transform="scale(0.953006 0.953006)" d="M185 526.013L186.164 526.746C186.707 529.469 186.392 532.805 186.254 535.631C185.638 535.286 185.552 535.156 185.013 534.694C184.53 532.19 184.864 528.653 185 526.013Z"/><path fill="#141415" transform="scale(0.953006 0.953006)" d="M806.754 608.878C807.595 609.212 807.299 609.072 807.985 609.742C808.435 612.276 808.119 615.707 807.984 618.352C807.164 617.999 807.441 618.137 806.771 617.489C806.31 614.958 806.623 611.523 806.754 608.878Z"/><path fill="#141415" transform="scale(0.953006 0.953006)" d="M184.904 195.391C185.605 195.721 185.591 195.783 186.206 196.275C186.717 199.098 186.374 202.162 186.184 205.047L185.311 204.467C184.424 202.965 184.837 197.319 184.904 195.391Z"/><path fill="#141415" transform="scale(0.953006 0.953006)" d="M806.742 99.0752C807.588 99.3983 807.282 99.2549 807.967 99.9392C808.419 102.485 808.14 105.933 808.029 108.591C807.171 108.233 807.475 108.39 806.784 107.698C806.323 105.161 806.621 101.725 806.742 99.0752Z"/><path fill="#141415" transform="scale(0.953006 0.953006)" d="M806.723 526.089C807.59 526.412 807.272 526.262 807.972 526.972C808.417 529.518 808.141 532.954 808.032 535.611C807.2 535.242 807.48 535.389 806.802 534.729C806.319 532.197 806.61 528.741 806.723 526.089Z"/><path fill="#141415" transform="scale(0.953006 0.953006)" d="M806.727 402.194C807.594 402.52 807.277 402.371 807.978 403.075C808.426 405.617 808.13 409.048 808.008 411.699C807.185 411.342 807.467 411.488 806.799 410.833C806.321 408.297 806.613 404.848 806.727 402.194Z"/><path fill="#141415" transform="scale(0.953006 0.953006)" d="M806.688 498.632L807.433 498.9C808.792 500.493 808.089 505.751 807.936 508.117C807.367 507.859 807.31 507.728 806.819 507.314C806.342 504.968 806.609 501.152 806.688 498.632Z"/><path fill="#141415" transform="scale(0.953006 0.953006)" d="M185.081 429.598L186.172 430.514C186.682 433.042 186.402 436.57 186.303 439.236C185.625 438.925 185.624 438.858 185.025 438.398C184.525 435.746 184.902 432.355 185.081 429.598Z"/><path fill="#141415" transform="scale(0.953006 0.953006)" d="M185.025 99.0045L186.17 99.8373C186.669 102.205 186.419 105.446 186.34 107.947C185.403 108.093 185.851 108.172 185.002 107.676C184.51 105.379 184.889 101.49 185.025 99.0045Z"/><path fill="#141415" transform="scale(0.953006 0.953006)" d="M806.695 195.505C807.33 195.738 807.345 195.827 807.91 196.227C808.469 198.91 808.121 202.206 807.963 204.996C807.386 204.73 807.321 204.595 806.821 204.176C806.331 201.838 806.611 198.021 806.695 195.505Z"/><path fill="#141415" transform="scale(0.953006 0.953006)" d="M185.09 360.564L186.166 361.482C186.751 364.656 186.446 367.237 185.957 370.386L184.991 369.464C184.571 366.698 184.912 363.402 185.09 360.564Z"/><path fill="#141415" transform="scale(0.953006 0.953006)" d="M107.645 464.504L108.511 465.31C109.029 468.025 108.912 471.586 108.341 474.287L107.468 473.452C106.933 470.573 107.134 467.373 107.645 464.504Z"/><path fill="#141415" transform="scale(0.953006 0.953006)" d="M884.622 299.492L885.602 300.303C886.111 302.786 885.826 306.352 885.727 308.981L884.966 308.851C883.597 306.862 884.386 301.963 884.622 299.492Z"/><path fill="#141415" transform="scale(0.953006 0.953006)" d="M107.708 161.405L108.509 162.199C109.056 164.765 108.815 168.593 108.415 171.192L107.474 170.327C106.96 167.367 107.039 164.334 107.708 161.405Z"/><path fill="#141415" transform="scale(0.953006 0.953006)" d="M107.687 202.528L108.511 203.329C109.028 206.029 108.909 209.601 108.338 212.287L107.395 211.266C106.98 208.359 107.079 205.401 107.687 202.528Z"/><path fill="#141415" transform="scale(0.953006 0.953006)" d="M107.745 92.3747L108.511 93.1545C109.059 95.8354 108.784 99.4366 108.449 102.159L107.479 101.282C107 98.6236 106.999 94.9624 107.745 92.3747Z"/><path fill="#141415" transform="scale(0.953006 0.953006)" d="M526.07 693.144C528.623 692.88 532.47 692.631 534.94 693.214L535.592 694.272C532.914 694.45 529.207 694.757 526.656 694.162L526.07 693.144Z"/><path fill="#141415" transform="scale(0.953006 0.953006)" d="M884.618 340.619L885.606 341.415C886.119 343.91 885.835 347.377 885.732 350.002L884.975 349.873C883.595 347.694 884.373 343.274 884.618 340.619Z"/><path fill="#141415" transform="scale(0.953006 0.953006)" d="M278.064 693.148C280.667 692.961 284.596 692.566 287.039 693.261L287.54 694.214C284.95 694.534 279.573 695.347 278.064 693.148Z"/><path fill="#141415" transform="scale(0.953006 0.953006)" d="M374.547 693.148C376.993 692.874 380.982 692.653 383.346 693.184L383.966 694.223C381.388 694.545 376.038 695.347 374.547 693.148Z"/><path fill="#141415" transform="scale(0.953006 0.953006)" d="M649.906 693.141C652.531 692.949 656.33 692.569 658.806 693.251L659.334 694.216C656.75 694.47 651.271 695.389 649.906 693.141Z"/><path fill="#141415" transform="scale(0.953006 0.953006)" d="M167.918 693.142C170.54 692.956 174.409 692.573 176.877 693.255L177.382 694.214C174.804 694.513 169.391 695.363 167.918 693.142Z"/><path fill="#141415" transform="scale(0.953006 0.953006)" d="M264.483 693.145C267.12 692.95 270.899 692.569 273.39 693.249L273.917 694.216C271.329 694.467 265.856 695.388 264.483 693.145Z"/><path fill="#141415" transform="scale(0.953006 0.953006)" d="M567.394 693.153C569.882 692.937 573.93 692.614 576.283 693.194L576.859 694.225C574.315 694.42 568.817 695.356 567.394 693.153Z"/><path fill="#141415" transform="scale(0.953006 0.953006)" d="M107.327 436.945C108.205 437.279 107.882 437.121 108.585 437.842C109.043 440.379 108.731 443.77 108.597 446.417C108.28 446.259 107.775 445.83 107.47 445.595C106.951 443.069 107.229 439.6 107.327 436.945Z"/><path fill="#141415" transform="scale(0.953006 0.953006)" d="M107.504 657.354L108.514 658.265C108.963 660.937 109.15 664.566 108.087 667.087C106.534 665.54 107.317 659.547 107.504 657.354Z"/><path fill="#141415" transform="scale(0.953006 0.953006)" d="M107.639 285.269L108.504 286.11C109.081 288.905 108.765 292.27 108.435 295.098L107.491 294.204C106.937 291.346 107.146 288.122 107.639 285.269Z"/><path fill="#141415" transform="scale(0.953006 0.953006)" d="M705.091 693.149C707.559 692.884 711.55 692.663 713.935 693.181L714.566 694.218C711.949 694.542 706.663 695.333 705.091 693.149Z"/><path fill="#141415" transform="scale(0.953006 0.953006)" d="M107.669 216.235L108.423 216.921C109.122 219.776 108.757 223.141 108.463 226.063L107.495 225.16C106.934 222.295 107.13 219.09 107.669 216.235Z"/><path fill="#141415" transform="scale(0.953006 0.953006)" d="M107.432 175.041L108.07 175.311C109.39 177.121 108.705 182.101 108.531 184.558C108.072 184.393 107.861 184.145 107.447 183.818C106.953 181.104 107.277 177.843 107.432 175.041Z"/><path fill="#141415" transform="scale(0.953006 0.953006)" d="M470.943 693.147C473.374 692.915 477.52 692.638 479.809 693.194L480.384 694.22C477.756 694.558 472.545 695.326 470.943 693.147Z"/><path fill="#141415" transform="scale(0.953006 0.953006)" d="M107.661 298.986L108.512 299.795C109.071 302.502 108.785 306.059 108.418 308.801L107.491 307.886C106.942 304.775 107.108 302.087 107.661 298.986Z"/><path fill="#141415" transform="scale(0.953006 0.953006)" d="M107.837 243.751L108.359 244.265C109.185 246.434 108.691 251.235 108.487 253.614L107.475 252.616C107.021 250.015 106.951 246.244 107.837 243.751Z"/><path fill="#141415" transform="scale(0.953006 0.953006)" d="M107.57 354.263L108.514 355.125C108.977 357.753 109.037 361.483 108.198 364.018L107.543 363.367C106.892 360.601 107.23 357.085 107.57 354.263Z"/><path fill="#141415" transform="scale(0.953006 0.953006)" d="M856.499 693.149C858.94 692.875 862.906 692.662 865.269 693.178L865.916 694.22C863.361 694.534 857.951 695.348 856.499 693.149Z"/><path fill="#141415" transform="scale(0.953006 0.953006)" d="M107.637 588.403L108.502 589.247C109.076 591.912 108.78 595.519 108.417 598.225L107.489 597.33C106.937 594.48 107.147 591.249 107.637 588.403Z"/><path fill="#141415" transform="scale(0.953006 0.953006)" d="M107.398 478.144L108.067 478.42C109.402 480.282 108.711 485.156 108.534 487.65C108.091 487.501 107.863 487.252 107.46 486.948C106.96 484.236 107.262 480.948 107.398 478.144Z"/><path fill="#141415" transform="scale(0.953006 0.953006)" d="M112.745 693.182C115.243 692.887 120.628 692.28 122.575 693.857C120.051 694.725 114.698 695.222 112.745 693.182Z"/><path fill="#141415" transform="scale(0.953006 0.953006)" d="M107.604 574.664L108.509 575.495C108.978 578.106 109.062 581.867 108.167 584.371L107.468 583.613C106.923 580.927 107.209 577.379 107.604 574.664Z"/><path fill="#141415" transform="scale(0.953006 0.953006)" d="M346.764 693.18C349.789 692.83 354.328 692.104 356.626 694.179C353.794 694.593 348.839 695.226 346.764 693.18Z"/><path fill="#141415" transform="scale(0.953006 0.953006)" d="M360.864 693.147C363.462 692.959 367.364 692.569 369.804 693.261L370.301 694.214C367.746 694.534 362.324 695.345 360.864 693.147Z"/><path fill="#141415" transform="scale(0.953006 0.953006)" d="M126.84 693.138C129.422 692.949 133.286 692.56 135.705 693.263L136.202 694.219C133.626 694.509 128.202 695.369 126.84 693.138Z"/><path fill="#141415" transform="scale(0.953006 0.953006)" d="M828.952 693.154C831.49 692.899 835.368 692.645 837.824 693.189L838.463 694.218C835.91 694.442 830.324 695.36 828.952 693.154Z"/><path fill="#141415" transform="scale(0.953006 0.953006)" d="M107.701 409.198L108.508 409.997C109.067 412.685 108.783 416.266 108.426 418.992L107.489 418.089C106.972 415.14 107.044 412.119 107.701 409.198Z"/><path fill="#141415" transform="scale(0.953006 0.953006)" d="M806.731 512.387C807.583 512.716 807.275 512.569 807.963 513.26C808.445 515.971 808.114 519.025 807.938 521.803C807.63 521.649 807.124 521.221 806.827 520.991C806.321 518.484 806.618 515.022 806.731 512.387Z"/><path fill="#141415" transform="scale(0.953006 0.953006)" d="M622.394 693.152C624.99 692.96 628.89 692.565 631.327 693.261L631.83 694.215C629.275 694.53 623.855 695.344 622.394 693.152Z"/><path fill="#141415" transform="scale(0.953006 0.953006)" d="M457.04 693.181C459.716 692.865 464.676 692.315 466.838 693.811C464.376 694.765 458.958 695.196 457.04 693.181Z"/><path fill="#141415" transform="scale(0.953006 0.953006)" d="M484.671 693.152C487.193 692.891 491.08 692.642 493.523 693.192L494.135 694.22C491.612 694.413 486.059 695.362 484.671 693.152Z"/><path fill="#141415" transform="scale(0.953006 0.953006)" d="M140.405 693.151C142.863 692.884 146.862 692.652 149.233 693.19L149.83 694.222C147.224 694.549 141.963 695.331 140.405 693.151Z"/><path fill="#141415" transform="scale(0.953006 0.953006)" d="M107.808 312.783C109.501 314.351 108.684 320.359 108.488 322.626L107.48 321.665C107.017 319.044 106.971 315.31 107.808 312.783Z"/><path fill="#141415" transform="scale(0.953006 0.953006)" d="M107.633 368.021L108.51 368.834C109.051 371.743 108.861 374.916 108.36 377.818L107.49 376.93C106.936 374.121 107.159 370.836 107.633 368.021Z"/><path fill="#141415" transform="scale(0.953006 0.953006)" d="M107.625 505.631L108.504 506.451C108.976 509.086 109.035 512.8 108.215 515.349L107.47 514.565C106.932 512.015 107.187 508.206 107.625 505.631Z"/><path fill="#141415" transform="scale(0.953006 0.953006)" d="M512.205 693.148C514.805 692.963 518.713 692.566 521.149 693.26L521.637 694.216C519.078 694.536 513.683 695.338 512.205 693.148Z"/><path fill="#141415" transform="scale(0.953006 0.953006)" d="M107.39 133.87C108.193 134.201 107.911 134.061 108.562 134.706C109.038 137.248 108.747 140.677 108.632 143.335C107.811 142.982 108.095 143.129 107.432 142.47C106.946 139.937 107.26 136.52 107.39 133.87Z"/><path fill="#141415" transform="scale(0.953006 0.953006)" d="M402.123 693.141C404.64 692.924 408.658 692.608 411.033 693.238L411.586 694.212C408.87 694.451 405.373 694.774 402.754 694.165L402.123 693.141Z"/><path fill="#141415" transform="scale(0.953006 0.953006)" d="M107.761 106.096L108.347 106.62C109.191 108.796 108.701 113.5 108.492 115.892L107.494 114.963C106.999 112.333 106.997 108.651 107.761 106.096Z"/><path fill="#141415" transform="scale(0.953006 0.953006)" d="M806.799 126.555C807.377 126.798 807.436 126.941 807.938 127.361C808.44 130.078 808.128 133.166 807.973 135.958C807.38 135.691 807.321 135.555 806.808 135.125C806.296 132.414 806.629 129.341 806.799 126.555Z"/><path fill="#141415" transform="scale(0.953006 0.953006)" d="M107.635 381.725L108.511 382.544C109.078 385.293 108.794 388.764 108.368 391.536L107.499 390.657C106.941 387.81 107.154 384.571 107.635 381.725Z"/><path fill="#141415" transform="scale(0.953006 0.953006)" d="M250.625 693.154C253.069 692.88 257.076 692.667 259.441 693.185L260.068 694.216C257.485 694.538 252.146 695.334 250.625 693.154Z"/><path fill="#141415" transform="scale(0.953006 0.953006)" d="M746.397 693.145C749.03 692.952 752.811 692.572 755.297 693.252L755.801 694.215C753.17 694.473 749.576 694.754 747.034 694.175L746.397 693.145Z"/><path fill="#141415" transform="scale(0.953006 0.953006)" d="M415.858 693.143C418.353 692.959 424.017 692.039 425.306 694.215C422.831 694.449 418.794 694.769 416.446 694.17L415.858 693.143Z"/><path fill="#141415" transform="scale(0.953006 0.953006)" d="M443.191 693.182C446.117 692.853 450.867 692.082 453.006 694.182C450.048 694.549 445.403 695.275 443.191 693.182Z"/><path fill="#141415" transform="scale(0.953006 0.953006)" d="M107.384 450.688C108.22 451.009 107.912 450.858 108.578 451.551C109.018 454.103 108.744 457.528 108.634 460.188C107.811 459.837 108.102 459.991 107.445 459.322C106.961 456.78 107.263 453.347 107.384 450.688Z"/><path fill="#141415" transform="scale(0.953006 0.953006)" d="M594.924 693.152C597.379 692.883 601.37 692.671 603.746 693.183L604.395 694.215C601.814 694.536 596.444 695.332 594.924 693.152Z"/><path fill="#141415" transform="scale(0.953006 0.953006)" d="M333.148 693.175C335.828 692.863 340.78 692.312 342.936 693.815C340.455 694.774 335.093 695.194 333.148 693.175Z"/><path fill="#141415" transform="scale(0.953006 0.953006)" d="M291.782 693.183C294.663 692.87 299.55 692.083 301.627 694.179C298.686 694.628 294.054 695.207 291.782 693.183Z"/><path fill="#141415" transform="scale(0.953006 0.953006)" d="M107.371 519.727C107.714 519.861 108.182 520.203 108.513 520.418C109.051 523.109 108.751 526.432 108.625 529.227C107.818 528.876 108.099 529.026 107.452 528.372C106.962 525.83 107.256 522.389 107.371 519.727Z"/><path fill="#141415" transform="scale(0.953006 0.953006)" d="M223.107 693.153C225.643 692.901 229.539 692.639 231.989 693.197L232.582 694.22C229.975 694.437 224.574 695.359 223.107 693.153Z"/><path fill="#141415" transform="scale(0.953006 0.953006)" d="M580.844 693.178C583.814 692.839 588.46 692.123 590.697 694.178C587.843 694.595 582.954 695.222 580.844 693.178Z"/><path fill="#141415" transform="scale(0.953006 0.953006)" d="M107.391 547.186C108.196 547.519 107.912 547.377 108.561 548.027C109.025 550.574 108.75 554.015 108.644 556.676C107.793 556.331 108.1 556.489 107.421 555.794C106.965 553.253 107.266 549.837 107.391 547.186Z"/><path fill="#141415" transform="scale(0.953006 0.953006)" d="M760.132 693.145C762.628 692.961 768.302 692.044 769.6 694.212C767.05 694.436 763.158 694.779 760.74 694.171L760.132 693.145Z"/><path fill="#141415" transform="scale(0.953006 0.953006)" d="M870.141 693.186C872.892 692.829 878.032 692.12 879.946 694.185C876.903 694.58 872.495 695.243 870.141 693.186Z"/><path fill="#141415" transform="scale(0.953006 0.953006)" d="M107.563 671.105L108.515 671.972C108.979 674.604 109.031 678.325 108.209 680.867L107.554 680.179C106.888 677.457 107.235 673.892 107.563 671.105Z"/><path fill="#141415" transform="scale(0.953006 0.953006)" d="M154.294 693.147C156.926 692.953 160.703 692.578 163.19 693.253L163.731 694.215C161.236 694.495 157.333 694.741 154.914 694.177L154.294 693.147Z"/><path fill="#141415" transform="scale(0.953006 0.953006)" d="M107.64 78.6013L108.505 79.4079C109.076 82.1563 108.795 85.631 108.375 88.4035L107.499 87.5235C106.94 84.6798 107.152 81.4425 107.64 78.6013Z"/><path fill="#141415" transform="scale(0.953006 0.953006)" d="M107.454 230.37C108.237 230.667 107.951 230.531 108.579 231.174C109.011 233.735 108.746 237.153 108.641 239.819C107.803 239.47 108.1 239.623 107.427 238.946C106.934 236.232 107.274 233.155 107.454 230.37Z"/><path fill="#141415" transform="scale(0.953006 0.953006)" d="M814.998 693.176C817.783 692.953 822.617 692.28 824.834 693.794C822.32 694.788 817.011 695.176 814.998 693.176Z"/><path fill="#141415" transform="scale(0.953006 0.953006)" d="M388.348 693.15C390.955 692.957 394.797 692.571 397.252 693.259L397.765 694.215C395.284 694.501 391.408 694.733 388.996 694.184L388.348 693.15Z"/><path fill="#141415" transform="scale(0.953006 0.953006)" d="M107.378 533.446C107.72 533.576 108.188 533.916 108.519 534.128C109.06 536.817 108.738 540.109 108.594 542.901C108.018 542.637 107.957 542.503 107.458 542.083C106.951 539.546 107.257 536.107 107.378 533.446Z"/><path fill="#141415" transform="scale(0.953006 0.953006)" d="M773.794 693.177C776.705 692.841 781.454 692.099 783.589 694.18C780.748 694.615 775.901 695.212 773.794 693.177Z"/><path fill="#141415" transform="scale(0.953006 0.953006)" d="M107.34 629.907C108.201 630.243 107.888 630.089 108.58 630.791C109.05 633.324 108.72 636.703 108.575 639.347C108.266 639.193 107.766 638.767 107.468 638.537C106.949 636.018 107.236 632.556 107.34 629.907Z"/><path fill="#141415" transform="scale(0.953006 0.953006)" d="M663.606 693.183C666.57 692.842 671.221 692.118 673.449 694.176C670.606 694.601 665.715 695.213 663.606 693.183Z"/><path fill="#141415" transform="scale(0.953006 0.953006)" d="M107.643 684.872L108.507 685.678C109.038 688.645 108.947 691.689 108.24 694.619L107.46 693.86C106.953 691.241 107.18 687.505 107.643 684.872Z"/><path fill="#141415" transform="scale(0.953006 0.953006)" d="M107.595 602.08L108.512 602.919C109.035 605.884 108.954 608.923 108.274 611.855L107.494 611.004C106.92 608.378 107.22 604.745 107.595 602.08Z"/><path fill="#141415" transform="scale(0.953006 0.953006)" d="M636.049 693.184C638.786 692.828 643.943 692.118 645.834 694.185C642.902 694.649 638.327 695.187 636.049 693.184Z"/><path fill="#141415" transform="scale(0.953006 0.953006)" d="M732.679 693.145C735.289 692.952 739.087 692.576 741.551 693.257L742.07 694.213C739.499 694.467 734.028 695.383 732.679 693.145Z"/><path fill="#141415" transform="scale(0.953006 0.953006)" d="M677.409 693.177C680.403 692.824 684.932 692.099 687.184 694.182C684.406 694.592 679.404 695.236 677.409 693.177Z"/><path fill="#141415" transform="scale(0.953006 0.953006)" d="M107.37 643.629C108.218 643.949 107.904 643.796 108.581 644.499C109.028 647.046 108.73 650.449 108.604 653.103C108.011 652.838 107.965 652.707 107.455 652.27C106.959 649.73 107.254 646.29 107.37 643.629Z"/><path fill="#141415" transform="scale(0.953006 0.953006)" d="M319.268 693.186C322.182 692.861 326.956 692.091 329.09 694.18C326.119 694.549 321.507 695.266 319.268 693.186Z"/><path fill="#141415" transform="scale(0.953006 0.953006)" d="M107.659 257.85L108.508 258.671C109.056 261.558 108.868 264.742 108.336 267.619L107.488 266.751C106.938 263.926 107.143 260.673 107.659 257.85Z"/><path fill="#141415" transform="scale(0.953006 0.953006)" d="M107.595 560.95L108.505 561.784C108.985 564.439 109.013 568.117 108.238 570.697L107.484 569.873C106.918 567.25 107.224 563.613 107.595 560.95Z"/><path fill="#141415" transform="scale(0.953006 0.953006)" d="M539.647 693.178C542.455 692.853 547.417 692.075 549.391 694.183C546.541 694.636 541.8 695.198 539.647 693.178Z"/><path fill="#141415" transform="scale(0.953006 0.953006)" d="M884.591 602.596L885.602 603.424C886.102 605.914 885.823 609.41 885.723 612.03L885.058 611.919C883.605 610.111 884.384 605.123 884.591 602.596Z"/><path fill="#141415" transform="scale(0.953006 0.953006)" d="M429.611 693.177C432.538 692.817 437.157 692.141 439.357 694.178C436.614 694.591 431.557 695.241 429.611 693.177Z"/><path fill="#141415" transform="scale(0.953006 0.953006)" d="M787.428 693.184C790.173 692.809 795.271 692.13 797.196 694.183C794.306 694.639 789.638 695.203 787.428 693.184Z"/><path fill="#141415" transform="scale(0.953006 0.953006)" d="M691.085 693.182C694.064 692.838 698.644 692.126 700.9 694.179C698.099 694.585 693.119 695.227 691.085 693.182Z"/><path fill="#141415" transform="scale(0.953006 0.953006)" d="M884.602 409.652L885.606 410.461C886.102 412.759 885.837 416.592 885.763 419.074C884.732 418.734 885.187 418.987 884.474 418.182C883.964 415.266 884.342 412.591 884.602 409.652Z"/><path fill="#141415" transform="scale(0.953006 0.953006)" d="M553.341 693.186C556.216 692.869 561.077 692.082 563.149 694.18C560.272 694.624 555.538 695.19 553.341 693.186Z"/><path fill="#141415" transform="scale(0.953006 0.953006)" d="M107.421 326.846C107.999 327.094 108.052 327.231 108.552 327.653C109.041 330.194 108.743 333.617 108.624 336.276C107.81 335.926 108.09 336.069 107.431 335.419C106.932 332.707 107.256 329.63 107.421 326.846Z"/><path fill="#141415" transform="scale(0.953006 0.953006)" d="M107.901 119.893C109.456 121.476 108.676 127.514 108.488 129.725L107.485 128.72C107.036 126.039 106.878 122.434 107.901 119.893Z"/><path fill="#141415" transform="scale(0.953006 0.953006)" d="M107.833 492.034L108.362 492.544C109.18 494.701 108.697 499.423 108.492 501.79C107.938 501.374 107.873 501.214 107.42 500.679C107.025 498.02 106.959 494.593 107.833 492.034Z"/><path fill="#141415" transform="scale(0.953006 0.953006)" d="M107.413 340.531C108.223 340.842 107.927 340.699 108.577 341.363C109.028 343.91 108.729 347.311 108.603 349.966C108.007 349.704 107.957 349.57 107.442 349.134C106.944 346.599 107.274 343.185 107.413 340.531Z"/><path fill="#141415" transform="scale(0.953006 0.953006)" d="M209.04 693.183C211.888 692.873 216.804 692.078 218.832 694.18C215.811 694.56 211.34 695.272 209.04 693.183Z"/><path fill="#141415" transform="scale(0.953006 0.953006)" d="M236.815 693.147C239.456 692.957 243.134 692.562 245.634 693.24L246.215 694.34C243.623 694.433 238.181 695.292 236.815 693.147Z"/><path fill="#141415" transform="scale(0.953006 0.953006)" d="M184.998 512.302C187.413 513.894 186.377 519.23 186.136 521.843L185.013 520.901C184.575 518.457 184.879 514.882 184.998 512.302Z"/><path fill="#141415" transform="scale(0.953006 0.953006)" d="M107.445 271.508C108.223 271.815 107.944 271.681 108.57 272.312C109.021 274.864 108.74 278.281 108.628 280.942C107.806 280.596 108.094 280.744 107.431 280.083C106.935 277.369 107.27 274.294 107.445 271.508Z"/><path fill="#141415" transform="scale(0.953006 0.953006)" d="M884.587 643.722L885.605 644.564C886.116 647.045 885.821 650.505 885.711 653.117L885.073 653.036C883.607 651.285 884.387 646.221 884.587 643.722Z"/><path fill="#141415" transform="scale(0.953006 0.953006)" d="M107.897 423.026L108.375 423.518C109.171 425.657 108.694 430.426 108.495 432.771C107.935 432.347 107.873 432.184 107.418 431.636C107.024 429.074 106.921 425.453 107.897 423.026Z"/><path fill="#141415" transform="scale(0.953006 0.953006)" d="M884.843 574.686L885.596 575.466C886.188 578.119 885.769 581.798 885.461 584.498L884.564 583.667C884.02 580.687 884.115 577.626 884.843 574.686Z"/><path fill="#141415" transform="scale(0.953006 0.953006)" d="M107.37 189.169C108.223 189.487 107.906 189.334 108.586 190.041C109.046 192.761 108.723 195.821 108.551 198.604C108 198.349 107.94 198.218 107.464 197.815C106.963 195.272 107.256 191.833 107.37 189.169Z"/><path fill="#141415" transform="scale(0.953006 0.953006)" d="M185.092 126.48C187.274 128.003 186.358 133.444 186.198 136.012C185.614 135.631 185.515 135.474 185.013 134.984C184.528 132.38 184.903 129.176 185.092 126.48Z"/><path fill="#141415" transform="scale(0.953006 0.953006)" d="M884.456 533.884C884.827 534.055 885.279 534.405 885.633 534.649C886.125 537.093 885.825 540.469 885.708 543.037C884.769 542.94 885.206 543.097 884.47 542.351C884.037 539.994 884.342 536.379 884.456 533.884Z"/><path fill="#141415" transform="scale(0.953006 0.953006)" d="M884.451 271.882C884.824 272.054 885.278 272.405 885.634 272.651C886.124 275.094 885.819 278.465 885.699 281.032C884.938 280.971 885.239 281.034 884.547 280.569C884.008 278.035 884.328 274.55 884.451 271.882Z"/><path fill="#141415" transform="scale(0.953006 0.953006)" d="M884.554 492.362L885.601 493.208C886.089 495.521 885.822 499.326 885.745 501.818C884.882 501.529 885.2 501.656 884.492 500.947C883.999 498.228 884.359 495.151 884.554 492.362Z"/><path fill="#141415" transform="scale(0.953006 0.953006)" d="M884.483 464.862L885.616 465.601C886.131 468.043 885.825 471.438 885.709 474.011C884.938 473.925 885.238 473.994 884.542 473.516C883.99 470.987 884.341 467.526 884.483 464.862Z"/><path fill="#141415" transform="scale(0.953006 0.953006)" d="M107.396 395.872L108.066 396.145C109.399 397.988 108.709 402.647 108.529 405.152C107.756 404.841 108.003 404.917 107.376 404.234C106.971 401.698 107.261 398.494 107.396 395.872Z"/><path fill="#141415" transform="scale(0.953006 0.953006)" d="M884.534 561.394L885.6 562.212C886.098 564.563 885.812 568.322 885.723 570.846C884.884 570.555 885.188 570.677 884.498 569.996C884.001 567.276 884.35 564.186 884.534 561.394Z"/><path fill="#141415" transform="scale(0.953006 0.953006)" d="M884.591 202.996L885.603 203.831C886.123 206.3 885.803 209.764 885.68 212.367L884.965 212.324C883.686 210.501 884.401 205.444 884.591 202.996Z"/><path fill="#141415" transform="scale(0.953006 0.953006)" d="M884.628 133.978L885.602 134.787C886.117 137.253 885.803 140.731 885.684 143.331L884.853 143.24C883.712 141.552 884.432 136.049 884.628 133.978Z"/><path fill="#141415" transform="scale(0.953006 0.953006)" d="M884.944 671.215L885.594 671.98C886.119 674.745 885.82 678.178 885.466 680.969C885.172 680.75 884.747 680.233 884.48 679.938C884.089 677.203 884.053 673.848 884.944 671.215Z"/><path fill="#141415" transform="scale(0.953006 0.953006)" d="M884.597 395.945L885.604 396.772C886.125 399.248 885.807 402.707 885.686 405.317L884.987 405.259C883.657 403.421 884.399 398.287 884.597 395.945Z"/><path fill="#141415" transform="scale(0.953006 0.953006)" d="M630.878 71.2456C633.612 70.9086 638.514 70.3524 640.722 71.9076C638.405 72.8066 632.772 73.1455 630.878 71.2456Z"/><path fill="#141415" transform="scale(0.953006 0.953006)" d="M884.843 450.786C886.64 452.561 885.735 458.176 885.497 460.609C885.199 460.386 884.77 459.864 884.5 459.565C884.041 456.644 884.158 453.662 884.843 450.786Z"/><path fill="#141415" transform="scale(0.953006 0.953006)" d="M884.662 423.401L885.606 424.188C886.093 426.677 885.803 430.127 885.694 432.741L884.72 432.54C883.828 430.151 884.397 425.983 884.662 423.401Z"/><path fill="#141415" transform="scale(0.953006 0.953006)" d="M686.011 71.2094C688.537 70.9324 694.062 70.0698 695.45 72.2735C692.795 72.4758 689.105 72.7824 686.574 72.1608L686.011 71.2094Z"/><path fill="#141415" transform="scale(0.953006 0.953006)" d="M217.882 71.2111C220.291 70.921 224.295 70.72 226.634 71.2366L227.29 72.2694C224.658 72.4736 220.918 72.7883 218.414 72.1548L217.882 71.2111Z"/><path fill="#141415" transform="scale(0.953006 0.953006)" d="M884.551 189.232L885.602 190.091C886.093 192.38 885.801 196.136 885.71 198.602C884.785 198.514 885.225 198.674 884.48 197.841C884.045 195.267 884.389 191.905 884.551 189.232Z"/><path fill="#141415" transform="scale(0.953006 0.953006)" d="M204.135 71.2128C206.658 70.929 212.151 70.0731 213.545 72.2722C210.888 72.4749 207.197 72.781 204.662 72.162L204.135 71.2128Z"/><path fill="#141415" transform="scale(0.953006 0.953006)" d="M286.582 71.247C289.227 70.918 294.222 70.3849 296.396 71.8476C294.042 72.8142 288.503 73.177 286.582 71.247Z"/><path fill="#141415" transform="scale(0.953006 0.953006)" d="M810.138 71.2112C812.673 71.0216 818.211 70.0772 819.594 72.2837C817.079 72.4985 813.104 72.7469 810.699 72.2144L810.138 71.2112Z"/><path fill="#141415" transform="scale(0.953006 0.953006)" d="M884.664 244.19L885.599 244.981C886.098 247.444 885.807 250.934 885.701 253.53C885.158 253.499 885.137 253.4 884.598 253.147C883.911 250.606 884.388 246.835 884.664 244.19Z"/><path fill="#141415" transform="scale(0.953006 0.953006)" d="M768.759 71.2165C771.247 70.9354 775.149 70.6985 777.565 71.25L778.193 72.2702C775.73 72.4629 770.005 73.3622 768.759 71.2165Z"/><path fill="#141415" transform="scale(0.953006 0.953006)" d="M884.664 120.268L885.606 121.064C886.089 123.546 885.804 127.013 885.698 129.62L884.703 129.406C883.843 127.004 884.401 122.851 884.664 120.268Z"/><path fill="#141415" transform="scale(0.953006 0.953006)" d="M562.169 71.213C564.697 70.9158 570.192 70.0849 571.597 72.2689C568.964 72.4704 565.214 72.7831 562.709 72.1558L562.169 71.213Z"/><path fill="#141415" transform="scale(0.953006 0.953006)" d="M451.944 71.2099C454.366 70.9259 458.37 70.7101 460.715 71.243L461.342 72.2752C458.711 72.4764 455.005 72.7814 452.5 72.1581L451.944 71.2099Z"/><path fill="#141415" transform="scale(0.953006 0.953006)" d="M884.769 629.989L885.571 630.824C886.163 633.681 885.822 636.921 885.42 639.794L884.578 639.009C883.999 636.076 884.22 632.912 884.769 629.989Z"/><path fill="#141415" transform="scale(0.953006 0.953006)" d="M300.653 71.2096C303.049 70.9171 307.063 70.7184 309.389 71.2393L310.023 72.2717C307.384 72.4724 303.673 72.7873 301.164 72.1579L300.653 71.2096Z"/><path fill="#141415" transform="scale(0.953006 0.953006)" d="M864.907 71.2451C867.889 70.8881 872.496 70.168 874.746 72.2396C871.836 72.5237 867.006 73.235 864.907 71.2451Z"/><path fill="#141415" transform="scale(0.953006 0.953006)" d="M148.789 71.2467C151.567 70.8562 156.615 70.1931 158.6 72.2412C155.54 72.4964 151.141 73.2978 148.789 71.2467Z"/><path fill="#141415" transform="scale(0.953006 0.953006)" d="M328.128 71.21C330.584 71.027 336.275 70.0747 337.559 72.2673C335.088 72.5065 331.138 72.7268 328.756 72.2243L328.128 71.21Z"/><path fill="#141415" transform="scale(0.953006 0.953006)" d="M699.938 71.2087C702.51 70.9822 708.031 70.0769 709.411 72.2862C706.885 72.4913 702.921 72.7427 700.509 72.2101L699.938 71.2087Z"/><path fill="#141415" transform="scale(0.953006 0.953006)" d="M884.53 161.766L885.605 162.494C886.123 164.913 885.817 168.332 885.703 170.887C884.746 170.789 885.187 170.955 884.452 170.175C884.022 167.621 884.363 164.407 884.53 161.766Z"/><path fill="#141415" transform="scale(0.953006 0.953006)" d="M796.202 71.2107C798.75 70.9051 804.154 70.1562 805.711 72.2702C803.046 72.4793 799.319 72.7893 796.774 72.1612L796.202 71.2107Z"/><path fill="#141415" transform="scale(0.953006 0.953006)" d="M396.871 71.244C399.384 70.9182 404.672 70.3342 406.641 71.9391C404.203 72.6939 398.7 73.2428 396.871 71.244Z"/><path fill="#141415" transform="scale(0.953006 0.953006)" d="M383.101 71.1985C385.708 70.9755 391.168 70.0681 392.56 72.304C390.041 72.4858 386.047 72.7452 383.668 72.196L383.101 71.1985Z"/><path fill="#141415" transform="scale(0.953006 0.953006)" d="M884.518 230.805L885.603 231.524C886.124 233.959 885.82 237.354 885.706 239.922C884.753 239.827 885.194 239.989 884.457 239.222C884.023 236.67 884.357 233.447 884.518 230.805Z"/><path fill="#141415" transform="scale(0.953006 0.953006)" d="M884.626 92.8263L885.648 93.7464C886.106 96.325 885.799 99.495 885.655 102.161L884.872 102.082C883.711 100.425 884.433 94.8797 884.626 92.8263Z"/><path fill="#141415" transform="scale(0.953006 0.953006)" d="M885.028 78.6954C886.496 80.805 885.755 85.8079 885.532 88.4523C884.986 88.0554 884.938 87.9047 884.498 87.3771C884.079 84.7507 884.014 81.1815 885.028 78.6954Z"/><path fill="#141415" transform="scale(0.953006 0.953006)" d="M672.411 71.2095C674.94 70.9017 680.374 70.0943 681.8 72.2692C679.407 72.5086 675.362 72.7154 673.05 72.2267L672.411 71.2095Z"/><path fill="#141415" transform="scale(0.953006 0.953006)" d="M534.726 71.2087C537.12 70.919 541.147 70.7174 543.469 71.2494L544.098 72.2711C541.555 72.5285 536.116 73.3153 534.726 71.2087Z"/><path fill="#141415" transform="scale(0.953006 0.953006)" d="M259.035 71.2464C261.959 70.905 266.707 70.1487 268.864 72.2387C265.907 72.5329 261.216 73.2251 259.035 71.2464Z"/><path fill="#141415" transform="scale(0.953006 0.953006)" d="M190.42 71.2139C192.893 70.9322 196.773 70.7007 199.174 71.2467L199.796 72.2709C197.163 72.4759 193.476 72.7815 190.967 72.1623L190.42 71.2139Z"/><path fill="#141415" transform="scale(0.953006 0.953006)" d="M782.587 71.2087C784.967 70.9135 788.98 70.7203 791.292 71.2431L791.934 72.2721C789.383 72.4374 785.455 72.8108 783.072 72.1547L782.587 71.2087Z"/><path fill="#141415" transform="scale(0.953006 0.953006)" d="M823.779 71.2014C826.364 71.0035 830.193 70.6089 832.618 71.3194L833.106 72.2714C830.721 72.5116 826.697 72.7237 824.396 72.2198L823.779 71.2014Z"/><path fill="#141415" transform="scale(0.953006 0.953006)" d="M548.411 71.2152C550.88 70.9329 554.77 70.6971 557.166 71.2524L557.779 72.2723C555.119 72.4789 551.475 72.7769 548.933 72.1643L548.411 71.2152Z"/><path fill="#141415" transform="scale(0.953006 0.953006)" d="M589.69 71.2087C592.148 71.014 597.821 70.0852 599.073 72.2673C596.666 72.5046 592.614 72.7229 590.292 72.222L589.69 71.2087Z"/><path fill="#141415" transform="scale(0.953006 0.953006)" d="M884.634 547.289L885.6 548.128C886.091 550.579 885.803 554.055 885.697 556.637L884.866 556.55C883.684 554.849 884.436 549.409 884.634 547.289Z"/><path fill="#141415" transform="scale(0.953006 0.953006)" d="M438.305 71.2121C440.827 70.9074 446.273 70.0892 447.682 72.2712C445.046 72.4691 441.302 72.7849 438.797 72.1524L438.305 71.2121Z"/><path fill="#141415" transform="scale(0.953006 0.953006)" d="M576.004 71.2003C578.573 70.8856 583.874 70.1069 585.38 72.2711C582.92 72.5062 578.965 72.7375 576.604 72.2098L576.004 71.2003Z"/><path fill="#141415" transform="scale(0.953006 0.953006)" d="M355.617 71.2116C358.175 70.9977 363.649 70.0887 365.065 72.2664C362.566 72.4946 358.6 72.7382 356.203 72.2177L355.617 71.2116Z"/><path fill="#141415" transform="scale(0.953006 0.953006)" d="M884.545 313.107L885.606 313.87C886.113 316.248 885.804 319.736 885.691 322.256C884.884 322.191 885.279 322.268 884.512 321.716C884.02 318.991 884.363 315.903 884.545 313.107Z"/><path fill="#141415" transform="scale(0.953006 0.953006)" d="M837.442 71.2486C840.219 70.8376 845.188 70.2205 847.211 72.2391C844.258 72.5391 839.603 73.2539 837.442 71.2486Z"/><path fill="#141415" transform="scale(0.953006 0.953006)" d="M341.862 71.1998C344.165 70.9099 348.29 70.7319 350.539 71.2376L351.179 72.276C348.796 72.5133 344.786 72.7233 342.489 72.2177L341.862 71.1998Z"/><path fill="#141415" transform="scale(0.953006 0.953006)" d="M162.914 71.2097C165.551 70.9668 169.176 70.6739 171.716 71.2637L172.28 72.2795C169.811 72.4722 164.211 73.3073 162.914 71.2097Z"/><path fill="#141415" transform="scale(0.953006 0.953006)" d="M465.661 71.2475C468.383 70.8588 473.499 70.2007 475.422 72.2397C474.438 72.3119 473.454 72.3778 472.469 72.4373C469.665 72.6084 467.645 73.0013 465.661 71.2475Z"/><path fill="#141415" transform="scale(0.953006 0.953006)" d="M424.432 71.2173C426.919 70.943 430.838 70.6945 433.247 71.2606L433.854 72.2716C431.359 72.4664 425.747 73.3468 424.432 71.2173Z"/><path fill="#141415" transform="scale(0.953006 0.953006)" d="M272.772 71.2424C275.548 70.8283 280.522 70.2175 282.537 72.2431C279.592 72.5418 274.92 73.2502 272.772 71.2424Z"/><path fill="#141415" transform="scale(0.953006 0.953006)" d="M658.501 71.2173C660.991 70.9428 664.928 70.6903 667.338 71.265L667.913 72.2724C665.43 72.4693 659.792 73.3457 658.501 71.2173Z"/><path fill="#141415" transform="scale(0.953006 0.953006)" d="M520.658 71.2427C523.557 70.8814 528.257 70.1634 530.395 72.2409C527.54 72.5282 522.677 73.2409 520.658 71.2427Z"/><path fill="#141415" transform="scale(0.953006 0.953006)" d="M644.845 71.2061C647.476 70.9625 651.093 70.6721 653.625 71.2676L654.162 72.2834C651.689 72.4749 646.141 73.3115 644.845 71.2061Z"/><path fill="#141415" transform="scale(0.953006 0.953006)" d="M121.55 71.2069C124.107 70.9955 129.568 70.0902 130.976 72.266C128.49 72.4946 124.507 72.7422 122.125 72.2099L121.55 71.2069Z"/><path fill="#141415" transform="scale(0.953006 0.953006)" d="M493.098 71.2482C495.878 70.8597 500.895 70.2043 502.896 72.24C499.811 72.4819 495.415 73.2939 493.098 71.2482Z"/><path fill="#141415" transform="scale(0.953006 0.953006)" d="M727.409 71.2028C729.986 70.9765 735.455 70.0824 736.841 72.2934C734.308 72.4831 730.367 72.7489 727.961 72.1965L727.409 71.2028Z"/><path fill="#141415" transform="scale(0.953006 0.953006)" d="M245.436 71.2067C247.981 70.8863 253.305 70.1178 254.797 72.2677C252.333 72.5029 248.385 72.7337 246.017 72.2142L245.436 71.2067Z"/><path fill="#141415" transform="scale(0.953006 0.953006)" d="M507.003 71.2444C509.959 70.8741 514.508 70.1844 516.743 72.2396C513.994 72.558 508.933 73.2534 507.003 71.2444Z"/><path fill="#141415" transform="scale(0.953006 0.953006)" d="M603.391 71.2459C606.264 70.8944 611.032 70.1555 613.13 72.2393C610.244 72.5292 605.458 73.2374 603.391 71.2459Z"/><path fill="#141415" transform="scale(0.953006 0.953006)" d="M369.29 71.2454C372.171 70.8937 376.926 70.1586 379.038 72.2402C376.148 72.5278 371.362 73.2364 369.29 71.2454Z"/><path fill="#141415" transform="scale(0.953006 0.953006)" d="M314.21 71.2155C316.855 70.9711 320.495 70.6781 323.044 71.2684L323.615 72.2762C321.129 72.4695 315.505 73.341 314.21 71.2155Z"/><path fill="#141415" transform="scale(0.953006 0.953006)" d="M884.461 437.426L885.597 438.18C886.102 440.619 885.814 443.996 885.707 446.562C884.942 446.496 885.243 446.56 884.548 446.093C884.015 443.561 884.336 440.09 884.461 437.426Z"/><path fill="#141415" transform="scale(0.953006 0.953006)" d="M851.241 71.2459C854.136 70.8879 858.83 70.1647 860.967 72.2401C858.114 72.5209 853.249 73.2457 851.241 71.2459Z"/><path fill="#141415" transform="scale(0.953006 0.953006)" d="M135.145 71.2476C137.885 70.85 142.916 70.2046 144.868 72.2418C141.94 72.5391 137.313 73.2543 135.145 71.2476Z"/><path fill="#141415" transform="scale(0.953006 0.953006)" d="M741.138 71.2438C744.137 70.8619 748.584 70.1758 750.87 72.2397C748.156 72.5485 743.017 73.2552 741.138 71.2438Z"/><path fill="#141415" transform="scale(0.953006 0.953006)" d="M884.53 382.139L885.605 382.872C886.115 385.288 885.807 388.708 885.691 391.259C884.744 391.196 885.178 391.357 884.455 390.555C884.052 387.99 884.372 384.786 884.53 382.139Z"/><path fill="#141415" transform="scale(0.953006 0.953006)" d="M754.732 71.2425C757.582 70.8919 762.387 70.146 764.442 72.2426C761.553 72.5385 756.8 73.2518 754.732 71.2425Z"/><path fill="#141415" transform="scale(0.953006 0.953006)" d="M617.017 71.2465C619.758 70.8574 624.814 70.2084 626.771 72.2422C625.656 72.3223 624.541 72.3946 623.425 72.4589C620.713 72.6067 618.91 72.946 617.017 71.2465Z"/><path fill="#141415" transform="scale(0.953006 0.953006)" d="M884.476 368.396L885.592 369.182C886.105 371.577 885.813 375.014 885.709 377.548C884.93 377.468 885.237 377.539 884.535 377.044C884.016 374.51 884.344 371.056 884.476 368.396Z"/><path fill="#141415" transform="scale(0.953006 0.953006)" d="M479.611 71.1999C482.075 71.0046 487.655 70.0948 488.917 72.2673C486.343 72.4868 482.595 72.7431 480.139 72.1997L479.611 71.1999Z"/><path fill="#141415" transform="scale(0.953006 0.953006)" d="M885.084 327.012L885.55 327.596C886.172 330.254 885.779 333.965 885.438 336.675C885.159 336.462 884.75 335.955 884.498 335.67C884.099 333.062 883.973 329.441 885.084 327.012Z"/><path fill="#141415" transform="scale(0.953006 0.953006)" d="M884.498 478.587L885.593 479.33C886.102 481.757 885.815 485.137 885.711 487.693C884.939 487.634 885.243 487.696 884.539 487.228C884 484.699 884.352 481.248 884.498 478.587Z"/><path fill="#141415" transform="scale(0.953006 0.953006)" d="M713.543 71.2424C716.234 70.8383 721.346 70.1972 723.225 72.2437C720.314 72.5479 715.71 73.2742 713.543 71.2424Z"/><path fill="#141415" transform="scale(0.953006 0.953006)" d="M884.515 175.487L885.6 176.331C886.098 178.645 885.811 182.184 885.716 184.648C884.919 184.54 885.23 184.618 884.521 184.094C884.001 181.565 884.361 178.141 884.515 175.487Z"/><path fill="#141415" transform="scale(0.953006 0.953006)" d="M884.523 106.451L885.601 107.327C886.096 109.602 885.806 113.206 885.714 115.639C884.905 115.517 885.221 115.603 884.509 115.046C884.009 112.514 884.367 109.103 884.523 106.451Z"/><path fill="#141415" transform="scale(0.953006 0.953006)" d="M410.683 71.2102C413.325 71.0092 416.981 70.6105 419.487 71.2985L420.057 72.363C417.474 72.4486 411.998 73.3554 410.683 71.2102Z"/><path fill="#141415" transform="scale(0.953006 0.953006)" d="M884.601 519.833L885.602 520.685C886.126 523.333 885.782 526.433 885.612 529.167L885.083 529.163C883.623 527.431 884.408 522.2 884.601 519.833Z"/><path fill="#141415" transform="scale(0.953006 0.953006)" d="M796.299 615.309C798.975 615.104 804.273 614.345 805.896 616.413C803.255 616.571 799.147 616.948 796.705 616.252L796.299 615.309Z"/><path fill="#141415" transform="scale(0.953006 0.953006)" d="M884.602 588.883C884.899 589.078 885.366 589.559 885.645 589.823C886.108 592.403 885.77 595.541 885.603 598.207L885.086 598.206L884.46 597.473C884.076 594.215 884.334 592.17 884.602 588.883Z"/><path fill="#141415" transform="scale(0.953006 0.953006)" d="M884.616 216.706L885.6 217.566C886.114 220.203 885.782 223.32 885.62 226.044L884.957 226.021C883.684 224.196 884.42 219.009 884.616 216.706Z"/><path fill="#141415" transform="scale(0.953006 0.953006)" d="M851.352 615.305C853.886 615.143 857.853 614.924 860.243 615.394L860.876 616.351C858.405 616.606 854.174 616.902 851.831 616.304L851.352 615.305Z"/><path fill="#141415" transform="scale(0.953006 0.953006)" d="M884.571 506.104L885.602 506.955C886.097 509.203 885.791 512.679 885.685 515.078L885.026 515.129L884.495 514.671C884.026 511.945 884.377 508.893 884.571 506.104Z"/><path fill="#141415" transform="scale(0.953006 0.953006)" d="M520.826 615.31C523.345 615.138 527.295 614.916 529.671 615.389L530.289 616.356C527.741 616.654 523.717 616.875 521.272 616.293L520.826 615.31Z"/><path fill="#141415" transform="scale(0.953006 0.953006)" d="M231.635 71.2416C234.268 70.8447 239.446 70.2071 241.268 72.2329C238.379 72.558 233.788 73.2638 231.635 71.2416Z"/><path fill="#141415" transform="scale(0.953006 0.953006)" d="M272.791 615.327C275.104 615.186 280.996 614.523 282.692 615.926C280.368 617.034 274.749 617.265 272.791 615.327Z"/><path fill="#141415" transform="scale(0.953006 0.953006)" d="M465.879 615.308C468.477 615.13 472.223 614.906 474.69 615.412L475.384 616.47C472.888 616.584 468.644 616.878 466.368 616.319L465.879 615.308Z"/><path fill="#141415" transform="scale(0.953006 0.953006)" d="M286.741 615.314C289.306 615.14 294.793 614.381 296.296 616.345C293.624 616.615 289.751 616.902 287.176 616.291L286.741 615.314Z"/><path fill="#141415" transform="scale(0.953006 0.953006)" d="M135.298 615.307C138.08 615.176 141.438 614.868 144.113 615.397L144.814 616.474C142.317 616.582 138.069 616.868 135.792 616.318L135.298 615.307Z"/><path fill="#141415" transform="scale(0.953006 0.953006)" d="M369.469 615.305C372.002 615.142 375.941 614.919 378.33 615.396L378.937 616.354C376.555 616.632 372.175 616.881 369.931 616.299L369.469 615.305Z"/><path fill="#141415" transform="scale(0.953006 0.953006)" d="M754.706 615.33C757.889 615.14 762.294 614.392 764.569 616.313C761.642 616.676 756.848 617.446 754.706 615.33Z"/><path fill="#141415" transform="scale(0.953006 0.953006)" d="M699.954 615.317C702.582 615.134 708.049 614.301 709.472 616.459C706.912 616.566 702.596 616.931 700.295 616.235L699.954 615.317Z"/><path fill="#141415" transform="scale(0.953006 0.953006)" d="M617.219 615.305C620 615.175 623.349 614.868 626.023 615.401L626.718 616.468C624.223 616.576 619.995 616.877 617.711 616.314L617.219 615.305Z"/><path fill="#141415" transform="scale(0.953006 0.953006)" d="M383.103 615.305C385.708 615.129 389.451 614.904 391.923 615.417L392.602 616.454C390.118 616.583 385.887 616.879 383.599 616.321L383.103 615.305Z"/><path fill="#141415" transform="scale(0.953006 0.953006)" d="M576.025 615.302C578.65 615.092 583.953 614.289 585.519 616.423C582.948 616.56 578.747 616.966 576.402 616.236L576.025 615.302Z"/><path fill="#141415" transform="scale(0.953006 0.953006)" d="M837.67 615.305C840.154 615.139 845.783 614.392 847.169 616.347C844.771 616.623 840.381 616.89 838.125 616.3L837.67 615.305Z"/><path fill="#141415" transform="scale(0.953006 0.953006)" d="M865.124 615.315C867.629 615.142 871.596 614.925 873.958 615.394L874.577 616.354C872.192 616.634 867.803 616.88 865.554 616.298L865.124 615.315Z"/><path fill="#141415" transform="scale(0.953006 0.953006)" d="M341.884 615.303C344.604 615.161 349.64 614.311 351.33 616.351C348.707 616.556 344.734 616.995 342.284 616.243L341.884 615.303Z"/><path fill="#141415" transform="scale(0.953006 0.953006)" d="M603.37 615.333C605.687 615.189 611.567 614.524 613.273 615.93C610.942 617.022 605.335 617.254 603.37 615.333Z"/><path fill="#141415" transform="scale(0.953006 0.953006)" d="M644.94 615.303C647.609 615.177 652.809 614.3 654.362 616.352C651.697 616.566 647.881 616.984 645.369 616.257L644.94 615.303Z"/><path fill="#141415" transform="scale(0.953006 0.953006)" d="M162.977 615.305C165.637 615.182 170.892 614.31 172.441 616.349C169.758 616.567 165.991 616.97 163.442 616.279L162.977 615.305Z"/><path fill="#141415" transform="scale(0.953006 0.953006)" d="M506.918 615.332C509.746 615.156 514.57 614.556 516.839 616.021C514.441 616.948 508.875 617.293 506.918 615.332Z"/><path fill="#141415" transform="scale(0.953006 0.953006)" d="M396.817 615.337C399.743 615.161 404.508 614.428 406.713 616.151C404.103 616.784 398.733 617.397 396.817 615.337Z"/><path fill="#141415" transform="scale(0.953006 0.953006)" d="M884.522 685.268L885.599 686.003C886.098 688.426 885.813 691.861 885.71 694.416C884.785 694.255 885.216 694.431 884.505 693.674C884.03 691.131 884.366 687.91 884.522 685.268Z"/><path fill="#141415" transform="scale(0.953006 0.953006)" d="M686.056 615.305C688.772 615.17 693.913 614.33 695.569 616.347C692.876 616.561 689.042 616.976 686.494 616.263L686.056 615.305Z"/><path fill="#141415" transform="scale(0.953006 0.953006)" d="M630.854 615.341C633.751 615.171 638.641 614.486 640.783 616.096C638.317 616.891 632.794 617.302 630.854 615.341Z"/><path fill="#141415" transform="scale(0.953006 0.953006)" d="M884.489 657.804L885.566 658.458C886.12 660.968 885.787 664.221 885.647 666.851C884.952 666.855 885.33 666.929 884.556 666.475C884.029 663.932 884.357 660.476 884.489 657.804Z"/><path fill="#141415" transform="scale(0.953006 0.953006)" d="M204.102 615.307C206.822 615.173 211.994 614.333 213.658 616.346C210.957 616.56 207.152 616.958 204.579 616.285L204.102 615.307Z"/><path fill="#141415" transform="scale(0.953006 0.953006)" d="M782.575 615.31C785.298 615.168 790.41 614.314 792.064 616.349C789.371 616.561 785.528 616.974 782.981 616.253L782.575 615.31Z"/><path fill="#141415" transform="scale(0.953006 0.953006)" d="M300.674 615.309C303.387 615.178 308.496 614.303 310.129 616.35C307.449 616.562 303.607 616.978 301.077 616.253L300.674 615.309Z"/><path fill="#141415" transform="scale(0.953006 0.953006)" d="M259.28 615.31C261.8 615.145 265.755 614.924 268.13 615.401L268.731 616.353C266.352 616.632 261.978 616.876 259.736 616.299L259.28 615.31Z"/><path fill="#141415" transform="scale(0.953006 0.953006)" d="M713.749 615.302C716.363 615.097 721.688 614.251 723.152 616.433C720.71 616.6 716.445 616.884 714.214 616.303L713.749 615.302Z"/><path fill="#141415" transform="scale(0.953006 0.953006)" d="M121.577 615.308C124.233 615.133 129.563 614.316 131.069 616.453C128.575 616.577 124.365 616.877 122.069 616.323L121.577 615.308Z"/><path fill="#141415" transform="scale(0.953006 0.953006)" d="M479.566 615.309C482.213 615.115 487.479 614.272 489.037 616.418C486.479 616.562 482.251 616.949 479.927 616.235L479.566 615.309Z"/><path fill="#141415" transform="scale(0.953006 0.953006)" d="M149.06 615.317C151.837 615.178 155.157 614.856 157.825 615.41L158.514 616.469C156.048 616.591 151.768 616.866 149.514 616.311L149.06 615.317Z"/><path fill="#141415" transform="scale(0.953006 0.953006)" d="M410.545 615.331C413.246 615.159 418.129 614.578 420.311 615.932C417.908 616.899 412.408 617.379 410.545 615.331Z"/><path fill="#141415" transform="scale(0.953006 0.953006)" d="M452.001 615.312C454.705 615.171 459.828 614.317 461.457 616.351C458.798 616.572 454.904 616.962 452.398 616.257L452.001 615.312Z"/><path fill="#141415" transform="scale(0.953006 0.953006)" d="M741.077 615.332C743.951 615.167 748.858 614.489 750.97 616.084C748.541 616.892 742.966 617.318 741.077 615.332Z"/><path fill="#141415" transform="scale(0.953006 0.953006)" d="M355.646 615.313C358.316 615.104 363.527 614.289 365.15 616.438C362.59 616.56 358.318 616.936 356.005 616.238L355.646 615.313Z"/><path fill="#141415" transform="scale(0.953006 0.953006)" d="M823.815 615.308C826.512 615.174 831.575 614.299 833.182 616.351C830.559 616.559 826.644 616.988 824.187 616.244L823.815 615.308Z"/><path fill="#141415" transform="scale(0.953006 0.953006)" d="M314.17 615.307C316.814 615.181 322.23 614.325 323.743 616.347C321.204 616.594 317.186 616.912 314.762 616.31L314.17 615.307Z"/><path fill="#141415" transform="scale(0.953006 0.953006)" d="M231.646 615.328C234.81 615.154 239.27 614.383 241.452 616.313C238.519 616.684 233.796 617.445 231.646 615.328Z"/><path fill="#141415" transform="scale(0.953006 0.953006)" d="M884.494 354.669L885.566 355.323C886.111 357.834 885.788 361.086 885.654 363.716C884.957 363.721 885.336 363.794 884.557 363.34C884.028 360.797 884.359 357.341 884.494 354.669Z"/><path fill="#141415" transform="scale(0.953006 0.953006)" d="M810.163 615.315C812.817 615.133 818.119 614.255 819.633 616.431C817.08 616.562 812.811 616.947 810.503 616.238L810.163 615.315Z"/><path fill="#141415" transform="scale(0.953006 0.953006)" d="M493.344 615.31C496.054 615.181 501.357 614.265 502.811 616.473C500.326 616.579 496.075 616.87 493.816 616.309L493.344 615.31Z"/><path fill="#141415" transform="scale(0.953006 0.953006)" d="M217.909 615.317C220.708 615.169 225.657 614.328 227.455 616.356C224.78 616.566 220.82 616.954 218.299 616.261L217.909 615.317Z"/><path fill="#141415" transform="scale(0.953006 0.953006)" d="M768.767 615.311C771.528 615.174 776.588 614.346 778.351 616.344C775.769 616.583 771.683 616.932 769.254 616.293L768.767 615.311Z"/><path fill="#141415" transform="scale(0.953006 0.953006)" d="M548.337 615.309C551.026 615.177 556.29 614.328 557.895 616.346C555.347 616.589 551.292 616.922 548.866 616.298L548.337 615.309Z"/><path fill="#141415" transform="scale(0.953006 0.953006)" d="M727.412 615.306C730.024 615.109 735.447 614.269 736.891 616.454C734.414 616.578 730.181 616.873 727.903 616.315L727.412 615.306Z"/><path fill="#141415" transform="scale(0.953006 0.953006)" d="M534.806 615.305C537.544 615.166 542.545 614.337 544.262 616.346C541.609 616.555 537.696 616.987 535.206 616.25L534.806 615.305Z"/><path fill="#141415" transform="scale(0.953006 0.953006)" d="M589.712 615.314C592.353 615.107 597.552 614.303 599.199 616.39C596.595 616.562 592.479 616.957 590.078 616.241L589.712 615.314Z"/><path fill="#141415" transform="scale(0.953006 0.953006)" d="M658.358 615.334C661.314 615.17 666.064 614.475 668.234 616.148C665.639 616.776 660.249 617.399 658.358 615.334Z"/><path fill="#141415" transform="scale(0.953006 0.953006)" d="M884.498 285.627L885.558 286.279C886.108 288.785 885.783 292.043 885.649 294.669C884.949 294.683 885.329 294.754 884.551 294.292C884.035 291.746 884.363 288.297 884.498 285.627Z"/><path fill="#141415" transform="scale(0.953006 0.953006)" d="M438.326 615.309C441.101 615.168 446.07 614.337 447.838 616.35C445.197 616.56 441.193 616.964 438.721 616.248L438.326 615.309Z"/><path fill="#141415" transform="scale(0.953006 0.953006)" d="M245.434 615.308C248.076 615.109 253.273 614.303 254.912 616.392C252.318 616.554 248.215 616.965 245.817 616.238L245.434 615.308Z"/><path fill="#141415" transform="scale(0.953006 0.953006)" d="M672.465 615.309C675.244 615.164 680.155 614.321 681.946 616.365C679.31 616.553 675.31 616.972 672.846 616.243L672.465 615.309Z"/><path fill="#141415" transform="scale(0.953006 0.953006)" d="M190.45 615.309C193.17 615.171 198.234 614.339 199.927 616.346C197.238 616.56 193.416 616.974 190.872 616.259L190.45 615.309Z"/><path fill="#141415" transform="scale(0.953006 0.953006)" d="M328.179 615.314C330.785 615.111 336.037 614.321 337.665 616.37C335.033 616.561 330.98 616.959 328.531 616.244L328.179 615.314Z"/><path fill="#141415" transform="scale(0.953006 0.953006)" d="M562.24 615.316C564.984 615.173 569.988 614.335 571.709 616.346C569.041 616.565 565.109 616.957 562.594 616.252L562.24 615.316Z"/><path fill="#141415" transform="scale(0.953006 0.953006)" d="M424.47 615.311C427.176 615.178 432.313 614.347 433.99 616.344C431.443 616.585 427.382 616.924 424.962 616.293L424.47 615.311Z"/><path fill="#141415" transform="scale(0.953006 0.953006)" d="M884.545 258.275L885.603 259.127C886.102 261.4 885.794 264.83 885.685 267.249C884.784 267.223 885.202 267.356 884.485 266.648C884.041 264.099 884.38 260.912 884.545 258.275Z"/></svg>