<?xml version="1.0" encoding="utf-8" ?><svg xmlns="http://www.w3.org/2000/svg" xmlns:xlink="http://www.w3.org/1999/xlink" width="2800" height="2000" viewBox="0 0 2800 2000"><path fill="#F5F5F0" d="M0 0L2800 0L2800 2000L0 2000L0 0Z"/><path fill="#191919" d="M1547.03 209.227C1562.15 211.328 1597.62 217.269 1610.79 221.932C1678.3 245.83 1746.02 270.477 1813.22 295.139L2017.78 368.655C2071.19 388.832 2124.32 409.712 2177.17 431.289C2187.96 435.741 2246.98 460.476 2251.64 465.805C2266.95 483.329 2293.15 527.355 2306.21 548.619C2359.89 636.839 2412.78 725.535 2464.88 814.694L2526.3 919.405C2537.85 939.13 2549.39 958.726 2560.52 978.612C2573.97 1002.67 2573.84 1019.76 2565.21 1045.98C2537.94 1128.81 2507.95 1211.23 2478.39 1293.31L2455.65 1356.57C2451.6 1367.82 2447.33 1380.72 2442.16 1391.43C2439.85 1396.2 2431.25 1401.27 2426.53 1403.74L2415.74 1466.65C2413.63 1479.67 2411.86 1493.02 2409.2 1505.92C2407.64 1513.5 2405.5 1515.31 2399.26 1519.23C2361.56 1519.47 2322.34 1518 2284.53 1517.26L2176.92 1516.01C2167.25 1500.96 2170.21 1467.02 2167.2 1448.87C2164.53 1432.77 2164.38 1414.77 2160.95 1398.7C2159.05 1389.79 2152.15 1379.3 2151.79 1369.6C2150.3 1329.7 2151.75 1288.79 2154.1 1248.97C2155.15 1231.19 2154.86 1212.39 2155.49 1194.5C2157.04 1158.98 2159.08 1123.47 2161.6 1088L2170.58 982.374C2171.69 969.695 2173.95 954.486 2174.46 942.474C2171.22 942.153 2167.92 942.138 2164.67 942.098C2146.7 941.877 2128.93 942.933 2111.01 943.808C2097.67 944.459 2053.1 942.905 2044.95 955.737C2043.65 957.773 2040.52 1076.14 2039.53 1092.05C2033.85 1183.7 2031.5 1276.04 2020.27 1367.27C2011.2 1440.95 1993.97 1514.11 1974.37 1585.62C1961.52 1632.47 1947.91 1678.77 1931.49 1724.53C1926.52 1738.38 1908.73 1792.8 1900.91 1799.48C1898.75 1801.33 1895.57 1800.98 1892.87 1800.88C1871.21 1800.08 1849.6 1797.81 1827.95 1796.79C1748.6 1792.71 1669.19 1789.88 1589.75 1788.33C1536.83 1788.09 1481.5 1785.57 1428.37 1784.97C1364.91 1784.75 1301.44 1785.44 1238 1787.05C1163.99 1788.47 1090 1790.71 1016.04 1793.76C973.65 1795.63 930.444 1798.81 887.981 1800.64C885.842 1800.74 882.236 1801.17 881.132 1799.63C871.41 1786.09 858.435 1745.72 852.993 1731.24C835.044 1683.5 821.246 1635.31 807.962 1586.44C788.897 1516.29 770.389 1438.95 761.709 1366.96C750.903 1277.34 748.406 1184.78 742.689 1094.72C740.809 1064.02 740.486 1033.29 738.999 1002.55C738.597 994.248 739.479 957.519 734.637 953.988C719.441 942.907 695.183 944.779 677.231 944.02C654.297 943.05 630.542 941.079 607.57 942.469C607.72 951.136 610.51 972.063 611.378 982.092L619.081 1071.69C622.589 1110.11 623.967 1149.21 626.448 1187.75C626.99 1203.88 626.71 1220.04 627.435 1236.16C628.17 1252.52 629.643 1268.88 629.884 1285.26C630.46 1298.19 630.102 1313.37 630.687 1326.07C632.009 1354.74 632.054 1373.19 620.982 1400.02C618.143 1406.9 617.385 1430.9 616.016 1440.16C612.794 1461.97 613.357 1486.34 609.29 1508.19C608.964 1510.04 605.904 1514.37 604.753 1516.01C597.974 1516.3 591.174 1516.22 584.389 1516.23C517.191 1516.34 450.018 1518.75 382.825 1519.23L376.44 1515.05C369.297 1500.99 364.287 1446.85 359.661 1427.92C358.324 1422.45 357.569 1409.2 354.145 1404.09C352.702 1401.94 340.264 1393.57 339.112 1390.61C329.449 1365.75 318.192 1333.59 309.383 1309.15L245.325 1129.72C234.027 1097.59 222.374 1065.43 213.077 1032.68C203.777 999.91 223.672 974.381 239.337 947.6L280.288 877.596C353.1 753.26 426.19 628.399 502.289 506.035C506.522 499.229 525.93 467.979 531.781 464.834C571.298 443.592 616.983 426.148 658.893 409.535C743.111 376.254 827.99 344.669 913.478 314.8L1086.49 252.352C1115.04 242.041 1144.69 230.73 1173.43 221.217C1183.13 218.008 1219.02 211.244 1229.05 210.385C1230.7 209.828 1234.31 209.496 1235.88 210.414C1325.53 262.916 1458.14 264.397 1547.03 209.227Z"/><path fill="#FEFEFE" d="M748.99 1047.03C748.067 1041.84 746.345 952.999 746.839 951.54C774.75 869.245 780.551 783.441 780.763 696.961L780.762 571.086C780.758 564.59 778.977 554.6 778.567 547.04C776.584 510.454 772.646 474.368 768.414 437.874C765.963 420.539 759.291 400.964 758.324 383.826C757.985 377.831 796.718 365.868 802.286 363.859L875.348 337.552L1106.11 254.195C1114.4 251.198 1164.85 234.347 1169.37 231.067L1171.11 231.362C1172.3 236.58 1172.35 248.184 1172.08 253.815C1165.84 382.258 1284.19 508.789 1416.76 490.882C1518.53 477.136 1604.29 379.227 1609.7 276.321C1610.03 270.066 1609.65 234.901 1611.87 232.011C1636.89 238.094 1670.21 253.886 1696.1 261.183C1707.59 267.815 1735.22 274.798 1748.17 280.285C1750.35 281.212 1756.38 283.023 1757.77 284.02C1774.32 290.469 1795.73 297.372 1812.98 303.598L1946.04 351.643L1993.55 368.779C1999.56 370.961 2020.48 377.572 2023.88 382.059C2024.38 384.416 2016.95 419.204 2016.03 424.899C2010.98 455.639 2008.77 486.844 2005.14 517.68C2003.81 525.991 2004.23 534.452 2003.57 542.909C1999.3 597.985 2002.39 653.32 2001.46 708.591C2000.68 754.127 2003.96 799.768 2011.15 844.729C2011.59 847.464 2010.48 853.729 2011.02 855.907C2018.97 887.935 2022.4 918.291 2034.83 949.404C2037.53 956.166 2034 984.934 2034.78 993.56C2034.75 999.663 2034.63 1014.88 2033.16 1019.61C2034 1026.72 2031.75 1049.42 2031.38 1058.61C2030.48 1080.47 2030.42 1103.77 2027.78 1125.38C2025.98 1140.07 2028.5 1157.95 2027.32 1172.41C2021.74 1240.66 2019.78 1311.72 2010.3 1379.66C2003.24 1430.18 1991.18 1487.71 1978.78 1537.02C1975.12 1551.37 1971.26 1565.68 1967.22 1579.93C1965.11 1587.31 1959.9 1604.67 1959.05 1611.81C1959.53 1615.94 1959 1614.3 1958.18 1617.6C1952.18 1641.84 1944.2 1665.71 1936.48 1689.47C1936.27 1690.11 1931.79 1691.8 1930.96 1692.07L1929.73 1693.64C1931.43 1695.31 1931.63 1695.47 1933.63 1696.76C1933.14 1702.61 1923.15 1729.17 1919.34 1734.31C1911.71 1749.98 1904.96 1775.09 1896.28 1793.07C1875.7 1792.81 1853.72 1789.91 1832.77 1788.92C1796.49 1787.21 1760.19 1785.73 1723.9 1784.19C1591.76 1778.8 1459.52 1776.4 1327.27 1776.99C1213.31 1779.1 1099.36 1782.44 985.469 1787.01C965.322 1787.86 945.19 1789.03 925.081 1790.51C916.885 1791.14 893.056 1793.78 885.936 1792.78C884.618 1791.67 882.604 1789.92 881.965 1788.34C875.77 1773.05 849.911 1709.81 848.339 1696.9C850.492 1695.42 850.642 1695.43 852.276 1693.44L851.261 1692.3C848.798 1691.95 848.879 1691.94 846.62 1690.87C840.732 1679.76 812.062 1581.61 812.631 1572.98C812.127 1567.7 807.065 1551.25 805.511 1545.52C779.343 1449.06 767.036 1356.59 760.381 1256.74C757.038 1211.43 754.251 1166.09 752.02 1120.72C750.783 1096.08 750.439 1071.84 748.99 1047.03Z"/><path fill="#FEFEFE" d="M856.668 1713.28C854.114 1709.83 849.484 1700.31 851.092 1696.28C864.91 1691.29 904.381 1690.14 920.518 1688.56C1009.82 1679.78 1100.26 1677.27 1189.98 1675.16C1323.46 1671.18 1457.02 1671.17 1590.5 1675.11C1683.53 1677.31 1777.75 1679.97 1870.43 1689.34C1885.25 1690.84 1900.35 1690.75 1915.23 1693.03L1916.24 1693.34C1921.96 1695.09 1927.48 1694.9 1931.4 1697.19C1931.42 1698.57 1920.64 1728.51 1919.34 1734.31C1911.71 1749.98 1904.96 1775.09 1896.28 1793.07C1875.7 1792.81 1853.72 1789.91 1832.77 1788.92C1796.49 1787.21 1760.19 1785.73 1723.9 1784.19C1591.76 1778.8 1459.52 1776.4 1327.27 1776.99C1213.31 1779.1 1099.36 1782.44 985.469 1787.01C965.322 1787.86 945.19 1789.03 925.081 1790.51C916.885 1791.14 893.056 1793.78 885.936 1792.78C882.117 1784.63 856.587 1719.28 856.668 1713.28Z"/><path fill="#F5F5F0" d="M856.668 1713.28C854.114 1709.83 849.484 1700.31 851.092 1696.28C864.91 1691.29 904.381 1690.14 920.518 1688.56C1009.82 1679.78 1100.26 1677.27 1189.98 1675.16C1323.46 1671.18 1457.02 1671.17 1590.5 1675.11C1683.53 1677.31 1777.75 1679.97 1870.43 1689.34C1885.25 1690.84 1900.35 1690.75 1915.23 1693.03C1906.26 1693.88 1892.65 1692.47 1885.77 1693.87C1884.87 1695.19 1884.57 1695.6 1883.3 1696.65C1875.97 1695.5 1878.14 1691.01 1874.53 1693.49C1870.86 1696.01 1869.83 1695.87 1865.84 1695.18C1864.42 1692.95 1865.01 1694.08 1865.38 1690.5L1862.61 1691.14C1862.19 1692.89 1862.01 1693.48 1861.14 1695.12C1857.71 1695.97 1857.94 1696.06 1854.56 1695.17C1852.74 1693.55 1852.16 1692.99 1850.6 1691.13L1849.04 1691.3C1843.56 1691.85 1819.56 1693.08 1815.47 1691.47C1815.33 1690 1815.27 1689.14 1815.21 1687.62C1812.1 1686.84 1813.64 1686.85 1810.43 1687.78C1807.75 1691.53 1809.04 1690.93 1805.5 1691.59C1800.15 1689.77 1802.82 1686.11 1799.18 1688.03C1796.08 1689.66 1796.59 1690.82 1792.41 1690.86C1789.02 1689.02 1789.34 1689.02 1787.62 1684.65C1785.96 1690.26 1785.65 1689.79 1779.72 1689.82C1774.12 1686.88 1778.42 1684.91 1774.3 1684.62L1772.94 1688.8C1768.1 1691.01 1764.78 1688.14 1761.61 1684.66C1759.98 1686.7 1760.45 1686.12 1759.46 1688.68C1755.48 1689.78 1752.16 1687.57 1748.41 1685.65C1735.53 1692.04 1732.95 1680.94 1719.96 1686.12C1718.27 1686.79 1717.17 1686.58 1715.47 1686.27L1712.27 1683.7C1707.99 1685.53 1707.42 1686.48 1703.29 1686C1702.06 1683.88 1701.88 1683.48 1701.04 1681.17C1698.69 1680.17 1698.57 1680.52 1695.98 1681.14C1695.37 1683.64 1695.62 1682.37 1695.21 1684.93L1693.01 1685.56C1691.91 1684.35 1691.62 1683.47 1690.73 1682.16C1687.73 1677.77 1657.09 1685.07 1652.54 1680.79C1650.63 1679 1649.7 1677.85 1647.07 1677.58C1629.06 1675.71 1609.94 1677.9 1591.77 1677.33C1569.12 1676.63 1546.46 1676.81 1523.84 1675.95C1505.23 1675.25 1486.66 1673.34 1467.98 1674.49C1467.84 1674.5 1467.7 1674.54 1467.56 1674.57C1471.32 1675.61 1470.11 1674.54 1471.93 1677.1C1470.49 1680.93 1468.4 1680.42 1464.66 1680.26C1461.03 1676.94 1465.83 1673.81 1457.29 1674.45L1459.33 1676.43L1459.23 1678.13C1456.14 1680.19 1455.59 1680.08 1451.99 1680.48C1449.47 1678.62 1450.32 1679.78 1449.23 1676.96L1449.47 1675.72C1446.4 1674.09 1447.99 1674.48 1444.49 1674.53C1444.88 1678.36 1445.44 1677.8 1443.91 1680.55C1440.12 1681.55 1438.76 1680.39 1436.76 1676.84L1437.43 1675.81C1438.17 1674.65 1438 1675.14 1438.21 1674.35C1435.39 1674.41 1434.4 1674.17 1431.76 1675.02L1434.12 1674.4L1431.77 1676.61L1433.08 1678.88C1431.12 1680.58 1429.34 1680.26 1426.66 1680.34L1425.19 1679.34L1425.61 1675.37C1423.02 1673.65 1385.35 1674.29 1379.5 1674.58C1381.77 1677.65 1381.51 1676.08 1381.45 1679.21C1378.67 1680.95 1376.86 1680.97 1373.99 1678.96L1373.52 1676.96L1375.66 1674.44C1371.28 1674.24 1372.02 1673.66 1368.54 1675.34L1367.11 1679.73C1364.12 1680.74 1361.69 1680.36 1359.29 1678.22L1359.39 1676.53C1361.56 1675.18 1361.52 1675.03 1363.99 1674.55C1352.66 1674.29 1341.33 1674.32 1330 1674.62L1332.12 1676.06C1331.77 1679.08 1329.72 1680.54 1326.92 1681.56C1322.78 1679.5 1325.14 1678.79 1321.5 1673.74L1319.51 1674.63C1318.98 1676.81 1318.41 1678.64 1317.53 1680.69C1314.72 1681.97 1314.81 1681.74 1311.69 1681.27C1309.59 1679.07 1310.19 1679.73 1308.74 1676.91L1307.96 1676.53C1303.64 1680.24 1306.22 1679.98 1300.95 1681.61C1294.72 1679.29 1299.02 1677.51 1294.35 1676.7C1292.13 1680.86 1293.11 1680.71 1289.86 1681.72C1282.36 1680.07 1284.79 1676.19 1280.98 1677.05C1279.4 1680.98 1280.36 1680.4 1277.45 1681.75C1270.25 1680.43 1273.58 1678.13 1269.06 1677.86C1266.15 1681.25 1267.26 1680.99 1263.69 1681.86C1255.78 1679.3 1264.47 1677.17 1257.09 1678.05C1254.06 1680.76 1253.04 1682.54 1248.45 1681.34C1247.47 1679.23 1247.63 1679.65 1247.07 1677.48L1244.64 1677.44C1243.11 1679.61 1242.59 1680.43 1240.33 1681.83C1236.25 1682.03 1237.53 1682.76 1234.95 1681.05L1234.25 1677.73C1231.25 1676.88 1232.66 1676.79 1229.86 1677.86L1229.47 1681.01C1226.79 1682.43 1226.19 1682.06 1223.15 1681.79C1221.68 1679.57 1222.1 1680.55 1221.94 1677.69C1218.97 1677.01 1220.34 1676.76 1217.72 1677.9L1216.44 1681.61C1213.11 1682.77 1214.86 1682.46 1210.85 1681.77C1208.33 1678.45 1212.91 1676.31 1205.47 1677.39C1204.51 1679.25 1204.29 1679.84 1203.62 1681.83C1201.13 1683.05 1199.5 1682.34 1196.73 1681.77L1195.8 1680.47L1197.21 1677.85C1194.49 1677.01 1194.68 1676.95 1191.9 1677.43C1192.17 1679.4 1192.21 1679.37 1191.63 1681.37C1187.87 1683.26 1164.59 1682.73 1159.57 1682.19C1157.44 1678.58 1160.93 1677.21 1157.1 1677.06C1152.9 1676.89 1147.88 1677.29 1143.92 1678.55C1133.42 1689.55 1126.35 1676.1 1113.77 1683.45C1105.75 1682.82 1110.3 1680.21 1104.92 1681.05C1102.79 1685.06 1104.33 1683.92 1100.59 1685.16C1094.41 1683.62 1098.4 1683.21 1093.48 1680.57C1092.56 1682.32 1091.47 1685.27 1089.53 1685.62C1082.79 1686.83 1074.74 1683.75 1068.41 1684.43C1062.48 1688.97 1051.17 1684.66 1043.97 1684.88C1041.11 1684.97 1040.89 1688.83 1035.52 1688.39C1033.15 1686.32 1032.36 1684.73 1030.09 1684.88C1027.63 1688.2 1028.57 1687.91 1025.26 1689.35C1020.4 1688.45 1021.68 1688.42 1017.41 1684.34C1015.94 1686.36 1016.27 1685.87 1015.29 1688.18C1011.55 1689.64 991.449 1689.71 985.505 1690.1C983.22 1688.58 983.013 1688.33 981.074 1686.36C978.809 1687.87 979.051 1688.05 978.077 1690.68C974.524 1692.15 976.364 1691.82 972.3 1691.37C970.936 1689.76 970.535 1689.27 969.437 1687.48L966.936 1687.26C965.224 1689.02 964.529 1696.1 957.163 1691.19L957.759 1687.84C955.238 1686.91 955.167 1687.13 952.424 1687.34L954.04 1689.45L953.487 1691.25C945.131 1695.25 933.27 1689.13 928.391 1691.25L927.741 1694.69C923.211 1697.24 911.326 1694.55 906.132 1694.75C904.54 1694.81 903.928 1698.38 897.976 1698.6C895.058 1696.52 894.97 1696.25 892.737 1693.62L891.479 1693.95C889.98 1698.34 890.887 1698.03 887.826 1700.04C884.625 1699.77 884.455 1699.94 881.555 1698.34C881.078 1696.04 881.123 1696.48 881.055 1694.04L879.568 1694.21C877.735 1698.17 878.476 1698.16 875.412 1700.3C869.549 1700.49 868.709 1698.26 865.005 1699.53L864 1701.46C861.074 1701.72 860.929 1701.99 858.272 1700.93C857.623 1698.6 857.892 1699.81 857.484 1697.3L854.466 1697.26C854.516 1697.49 855.748 1700.61 856.167 1699.91C852.676 1705.79 856.794 1706.84 856.668 1713.28Z"/><path fill="#F5F5F0" d="M748.99 1047.03C748.067 1041.84 746.345 952.999 746.839 951.54C774.75 869.245 780.551 783.441 780.763 696.961L780.762 571.086C780.758 564.59 778.977 554.6 778.567 547.04C776.584 510.454 772.646 474.368 768.414 437.874C765.963 420.539 759.291 400.964 758.324 383.826C757.985 377.831 796.718 365.868 802.286 363.859L875.348 337.552L1106.11 254.195C1114.4 251.198 1164.85 234.347 1169.37 231.067L1171.11 231.362C1172.3 236.58 1172.35 248.184 1172.08 253.815C1165.84 382.258 1284.19 508.789 1416.76 490.882C1518.53 477.136 1604.29 379.227 1609.7 276.321C1610.03 270.066 1609.65 234.901 1611.87 232.011C1636.89 238.094 1670.21 253.886 1696.1 261.183C1683.47 261.483 1679.92 267.726 1673.35 256.365C1672.38 257.65 1671.42 258.942 1670.47 260.24C1667.94 260.574 1629.65 242.809 1621.56 243.798C1619.85 246.272 1620.64 261.07 1620.73 265.475C1621.14 286.023 1615.88 307.076 1612.91 327.442C1612.58 329.723 1606.07 340.798 1604.66 343.06C1604.73 343.382 1604.81 343.702 1604.87 344.026C1607 355.361 1582.23 394.497 1575.08 404.674C1567.28 415.782 1558.27 424.917 1548.67 434.391C1543.12 439.875 1537.89 445.878 1531.95 450.949C1501.29 476.774 1464.26 493.911 1424.72 500.579C1398.22 505.042 1378.4 505.928 1352.06 499.071C1348.25 498.079 1341.38 498.739 1337.26 497.586C1332.56 496.012 1325.17 492.699 1320.58 490.552C1316.15 488.478 1308.99 487.414 1305.87 485.859C1292.66 479.279 1274.23 469.55 1262.52 460.814C1236.08 441.075 1214.05 415.034 1196.09 387.5C1192.3 381.692 1191.76 377.914 1190.03 371.491C1190.03 371.491 1185.39 368.371 1185.39 368.37C1179.66 354.166 1171.93 337.582 1168.68 322.802C1167.81 318.862 1168.25 316.036 1169.5 313.331C1167.97 312.493 1165.54 310.98 1165.41 308.941C1164.7 297.938 1161.99 287.208 1161.13 276.341C1160.61 264.935 1163.91 255.915 1160.04 244.581C1155.08 242.198 1120.86 256.891 1114.5 260.252C1111.43 260.139 1111.15 259.702 1108.48 258.231C1106.32 260.329 1107.07 259.41 1105.99 262.497C1098.6 266.119 1086.72 268.195 1078.82 272.692C1078.21 273.036 1074.04 272.622 1072.95 272.507C1064.97 277.177 1058.06 282.883 1049.35 280.692C1040.99 286.979 1029.57 289.358 1020.04 293.261C1006.8 298.688 992.712 300.993 980.097 307.395C975.166 309.898 969.438 310.512 964.453 312.836C955.551 316.109 952.826 320.505 943.108 318.181C937.9 321.193 936.414 323.093 930.024 325.565C918.107 330.174 906.364 334.171 893.872 337.092C893.21 337.247 892.364 340.551 888.574 341.769C885.886 340.935 885.76 340.962 883.394 339.498C882.021 340.937 880.313 342.729 878.268 344.874C862.513 348.763 839.519 358.448 824.626 361.988C823.019 364.584 822.808 364.905 820.104 366.319C816.084 366.739 815.626 366.346 811.684 364.927C808.757 366.277 808.276 367.632 806.532 370.355C803.558 371.775 801.974 371.327 798.683 371.075C789.438 376.011 787.725 377.715 777.306 378.242L775.718 378.336L774.764 378.38C774.66 378.485 769.827 383.631 770.349 383.426C767.217 384.658 766.078 382.936 764.784 386.082C765.482 389.806 770.642 403.797 770.46 404.108C766.417 411.001 773.475 411.977 772.505 418.473L769.523 421.637C771.171 423.135 771.965 423.763 773.78 425.056C775.29 432.024 774.97 440.434 776.579 447.352C777.592 451.705 776.464 458.344 777.601 461.574L780.338 463.49C780.74 475.812 782.643 484.856 780.484 496.591C782.424 499.44 783.476 500.383 783.461 504.013C781.962 507.247 782.053 507.048 779.483 509.545C781.289 510.8 781.442 510.86 783.486 511.693C784.889 515.045 784.4 532.196 784.632 537.078C785.228 549.641 792.127 588.45 785.505 597.395L786.209 598.139C786.483 598.433 788.16 600.222 788.165 600.418C788.471 614.207 788.126 627.408 790.216 641.088C789.244 643.314 788.306 645.321 787.582 647.649C789.803 653.194 790.596 663.382 790.17 669.399L787.51 672.61L788.144 673.889C789.714 677.111 790.808 678.569 790.729 682.125C788.732 684.234 789.619 683.486 786.541 684.464L785.811 685.766C789.29 689.183 789.91 688.648 790.726 692.556C789.368 694.913 788.707 696.066 787.598 698.607C788.871 701.065 789.858 702.684 790.56 705.398C788.616 708.292 787.542 709.127 786.885 712.369L787.269 713.437C788.406 716.67 788.951 717.526 788.59 720.973L785.585 724.521C789.945 729.367 788.077 749.39 787.992 756.95C787.1 758.271 786.298 759.522 785.617 760.966L786.046 762.047C787.317 765.334 787.92 766.185 787.507 769.714C785.765 770.92 785.228 771.299 783.351 772.324L782.613 773.704C789.124 783.881 781.505 790.86 783.832 801.318C784.199 802.971 784.77 802.562 785.077 805.983C781.993 811.946 781.059 808.028 779.103 812.531C780.61 814.429 780.762 814.487 782.695 815.988C783.14 820.449 780.571 839.206 780.172 845.448L777.44 848.616C778.034 852.038 779.249 856.218 777.976 859.204C776.368 859.731 775.183 860.146 773.535 860.543L772.406 861.883L775.795 864.217C776.294 867.179 771.892 890.253 771.113 895.21C768.728 897.493 770.089 896.853 766.971 897.363L769.316 899.416C769.409 903.583 769.748 906.964 767.063 910.02C763.983 909.688 765.226 909.271 762.825 910.395C762.445 913.041 764.167 915.107 765.594 917.59L765.536 919.524C763.42 921.142 763.532 921.143 761.034 922.003L759.578 923.813C761.49 926.333 762.648 926.919 761.936 930.321C760.371 937.8 754.387 947.05 750.943 954.062C745.799 964.536 751.561 1029.26 748.99 1047.03Z"/><path fill="#424242" d="M812.631 1572.98C814.994 1578.73 839.255 1661.27 839.724 1666.57C842.173 1674.62 845.179 1682 847.868 1689.92C917.638 1684.47 986.89 1675.31 1057.11 1675.23C1069.61 1675.21 1083 1672.52 1095.62 1672.54C1105.82 1671.9 1125.28 1672.6 1134.51 1671.01C1251.2 1667.91 1367.95 1667.03 1484.68 1668.38L1573.35 1668.95C1582.34 1669.02 1608.22 1668.72 1615.36 1669.91C1616.51 1670.7 1813.49 1678.11 1831.92 1680.34C1849.74 1682.51 1912.75 1688.3 1933.92 1689.97C1935.67 1684.33 1938.37 1678.96 1939.64 1674.74C1940.77 1667.9 1957.01 1614.71 1959.05 1611.81C1959.53 1615.94 1959 1614.3 1958.18 1617.6C1952.18 1641.84 1944.2 1665.71 1936.48 1689.47C1936.27 1690.11 1931.79 1691.8 1930.96 1692.07L1929.73 1693.64C1931.43 1695.31 1931.63 1695.47 1933.63 1696.76C1933.14 1702.61 1923.15 1729.17 1919.34 1734.31C1920.64 1728.51 1931.42 1698.57 1931.4 1697.19C1927.48 1694.9 1921.96 1695.09 1916.24 1693.34L1915.23 1693.03C1900.35 1690.75 1885.25 1690.84 1870.43 1689.34C1777.75 1679.97 1683.53 1677.31 1590.5 1675.11C1457.02 1671.17 1323.46 1671.18 1189.98 1675.16C1100.26 1677.27 1009.82 1679.78 920.518 1688.56C904.381 1690.14 864.91 1691.29 851.092 1696.28C849.484 1700.31 854.114 1709.83 856.668 1713.28C856.587 1719.28 882.117 1784.63 885.936 1792.78C884.618 1791.67 882.604 1789.92 881.965 1788.34C875.77 1773.05 849.911 1709.81 848.339 1696.9C850.492 1695.42 850.642 1695.43 852.276 1693.44L851.261 1692.3C848.798 1691.95 848.879 1691.94 846.62 1690.87C840.732 1679.76 812.062 1581.61 812.631 1572.98Z"/><path fill="#F5F5F0" d="M1757.77 284.02C1774.32 290.469 1795.73 297.372 1812.98 303.598L1946.04 351.643L1993.55 368.779C1999.56 370.961 2020.48 377.572 2023.88 382.059C2024.38 384.416 2016.95 419.204 2016.03 424.899C2010.98 455.639 2008.77 486.844 2005.14 517.68C2003.81 525.991 2004.23 534.452 2003.57 542.909C1999.3 597.985 2002.39 653.32 2001.46 708.591C2000.68 754.127 2003.96 799.768 2011.15 844.729C2011.59 847.464 2010.48 853.729 2011.02 855.907C2018.97 887.935 2022.4 918.291 2034.83 949.404C2037.53 956.166 2034 984.934 2034.78 993.56C2034.75 999.663 2034.63 1014.88 2033.16 1019.61C2028.95 994.34 2040.26 966.507 2026.47 945.127C2023 939.758 2019.49 930.191 2021.39 923.971C2019.77 921.864 2019.77 922.051 2017.53 920.593C2016.4 915.959 2017.47 914.49 2019.32 909.958C2016.87 909.845 2014.76 909.97 2014.13 907.2C2010.95 893.207 2008.01 878.691 2006.64 864.399C2006.76 865.737 2009.74 861.38 2009.82 861.21C2007.39 860.711 2007.31 860.692 2005.07 859.633C2002.68 852.304 2000.54 825.68 1999.9 816.698C1999.79 815.022 2001.19 814.623 2003.13 813.022L2003.08 811.196C2002.79 810.982 2000.15 809.011 1999.92 808.703C1996.37 803.935 1998.53 779.205 1998.97 773.539C1998.18 772.81 1995.07 770.004 1995.04 768.145C1994.84 754.895 1994.23 741.234 1993.97 727.935C1994.65 726.88 1995.33 725.824 1996.01 724.768C1994.75 716.374 1993.92 707.874 1993.15 699.426C1992.42 691.408 1991.19 691.839 1996.67 685.556L1992.54 682.577C1991.94 680.525 1991.73 678.883 1992.79 676.556C1995.69 670.218 1992 661.843 1992.19 652.523C1993.85 650.178 1994.33 649.845 1995.02 647.029C1990.84 640.376 1995.31 612.347 1994.12 603.238C1993.92 601.714 1995.76 599.028 1996.69 597.66C1995.89 595.907 1996.29 596.656 1995.21 594.853L1994.39 593.522C1994.35 584.839 1992.96 554.331 1997.31 548.373C2001.28 542.946 1995.14 520.685 1998.82 512.256C1999.39 510.953 2001.4 510.786 2002.67 510.354L2002.91 508.614L1999.61 506.245C1998.46 501.855 1999.76 500.65 2001.98 496.468C2001.82 496.176 2001.65 495.892 2001.51 495.592C1997.73 487.47 2005.34 444.621 2008.79 435.542C2009.79 432.924 2007.18 429.49 2008.07 425.911C2010.19 424.091 2010.61 423.804 2012.3 421.622C2004.09 408.44 2019.05 414.173 2012.69 403.427C2011.78 401.89 2019.14 385.961 2016.64 384.086C2008.63 378.059 1996.76 377.375 1987.4 374.017C1980.5 371.541 1974.49 366.307 1967.26 365.331C1960.3 364.15 1951.86 363.302 1948.42 356.853C1945.24 356.14 1941.9 358.975 1940.9 358.062C1933.09 350.913 1926.48 350.776 1916.28 348.597C1913.24 347.948 1913.31 346.571 1912.02 344.266C1901.3 347.038 1905.48 343.211 1898.47 339.282C1896.07 340.051 1895.74 340.13 1893.24 340.426C1889.4 338.237 1890.42 338.928 1888.44 333.703C1882.85 337.355 1879.37 337.48 1876.33 331.859C1876.4 331.995 1867.48 330.196 1866.84 330.118C1856.96 328.919 1849.62 323.774 1841.51 318.514C1838.88 316.83 1835.36 319.339 1834.06 318.754C1825.25 314.797 1815.12 311.64 1806.26 308.003C1804.18 307.15 1807.17 306.72 1804.53 303.295L1800.54 306.226C1795.39 305.099 1795.5 302.164 1791.41 299.459C1790.46 298.831 1788.64 301.052 1783.49 298.686C1782.69 296.514 1782.69 296.468 1781.39 294.564L1773.52 296.614C1767.88 294.1 1772.65 293.474 1767.68 290.239L1763.8 291.475L1761.88 290.445C1760.93 287.486 1759.73 286.397 1757.77 284.02Z"/><path fill="#F5F5F0" d="M1615.36 1669.91C1629.01 1666.58 1644.45 1671.08 1658.48 1667.57C1664.67 1666.02 1698.4 1663.8 1702.06 1666.44L1701.8 1670.29C1704.19 1670.93 1704.01 1670.93 1706.38 1670.2L1705.38 1667.39C1708.42 1664.5 1724.82 1665.03 1727.73 1667.22L1727.55 1670.61L1729.08 1671.51C1731.5 1667.65 1730.78 1667.42 1734.21 1665.77C1737.76 1666.23 1737.71 1665.6 1739.77 1667.62C1739.15 1669.4 1738.62 1671.12 1738.32 1672.99C1740.73 1674.39 1741.13 1674 1744.04 1673.79C1745.89 1668.23 1741.04 1673.36 1744.37 1667.13C1748.97 1664.85 1750.21 1666.35 1754.6 1668.71C1773.78 1667.55 1791.04 1669.91 1810.18 1669.78C1814.79 1669.75 1827.06 1674.08 1831.48 1673.08C1834.58 1672.37 1834.14 1671.18 1839.04 1671.69C1841.79 1673.31 1841.56 1673.31 1843.17 1676.13C1845.45 1675.39 1844.68 1675.73 1846.63 1674.27C1852.2 1674.54 1874.6 1674.75 1877.48 1677.3C1878.63 1681.39 1877.88 1681.31 1880.55 1683.43C1882.82 1683.68 1882.57 1684 1884.44 1683.33L1881.66 1681.38L1881.54 1679.56C1882.73 1678.45 1884.89 1676.15 1886.35 1676.82C1891.37 1679.14 1898.56 1676.9 1902.21 1679.51C1902.72 1680.98 1903.06 1681.89 1903.42 1683.41L1905.94 1683.38C1908.18 1679.52 1907.2 1679.89 1910.56 1678.16C1916.19 1678.95 1915.61 1678.63 1917.86 1683.86C1921.07 1682.84 1925.46 1681.13 1928.74 1681.76C1934.4 1682.84 1935.87 1677.88 1939.64 1674.74C1938.37 1678.96 1935.67 1684.33 1933.92 1689.97C1912.75 1688.3 1849.74 1682.51 1831.92 1680.34C1813.49 1678.11 1616.51 1670.7 1615.36 1669.91Z"/><path fill="#F5F5F0" d="M839.724 1666.57C844.535 1671.79 844.35 1678.35 848.093 1682.27C853.053 1682.4 860.768 1682.19 865.114 1679.34C868.752 1676.95 871.706 1682 873.246 1684.17L874.627 1684.3C875.232 1681.91 875.128 1682.82 874.777 1680.32C880.799 1674.77 891.615 1680.86 904.634 1675.28C907.036 1675.83 906.992 1675.99 909.059 1677.42C913.666 1675.58 915.958 1674.16 920.702 1675.54C921.939 1677.89 921.63 1676.89 921.553 1679.7C923.741 1681.05 924.985 1680.63 927.63 1680.5C924.355 1678.75 925.558 1679.95 923.709 1676.95C927.542 1672.79 931.387 1675 935.485 1677.18L936.08 1676.32C937.815 1673.86 938.212 1672.85 940.96 1671.61C945.023 1671.67 943.511 1670.91 946.008 1673.15C947.056 1676.51 946.425 1676.65 948.685 1677.87C949.777 1675.65 949.669 1674.94 950.001 1672.45C953.529 1670.93 956.733 1671.06 960.056 1673.03C959.798 1675.67 960.084 1674.7 958.568 1676.98C961.138 1677.76 960.988 1677.71 963.677 1677.55L962.973 1673.92C965.161 1671.12 1005.44 1668.1 1008.63 1669.79L1008.95 1673.88L1010.91 1674.3C1016.15 1669.96 1009.68 1671.38 1015.99 1668.45C1020.49 1668.89 1019.71 1668.92 1022.63 1672.65L1024.36 1672.81C1026.81 1669.55 1026.29 1669.12 1029.44 1668.03C1032.68 1668.7 1033.47 1670.21 1035.68 1672.74L1037.49 1672.93C1039.37 1669.82 1037.21 1662.74 1045.75 1666.66C1047.09 1668.8 1047.47 1669.51 1049.03 1671.48L1050.73 1670.96L1051.59 1666.71C1054.11 1665.21 1080.29 1665.17 1083.6 1665.75C1087.4 1669.71 1081.37 1669.39 1086.89 1669.9L1087.43 1668.93C1089.63 1665.08 1090.5 1664.76 1095.28 1665.83C1097.12 1667.8 1096.95 1667.7 1097.53 1670.37C1110.22 1671.32 1122.09 1669.78 1134.51 1671.01C1125.28 1672.6 1105.82 1671.9 1095.62 1672.54C1083 1672.52 1069.61 1675.21 1057.11 1675.23C986.89 1675.31 917.638 1684.47 847.868 1689.92C845.179 1682 842.173 1674.62 839.724 1666.57Z"/><path fill="#191919" d="M1184.88 1417.69C1190.9 1417.36 1197.72 1416.39 1203.25 1418.19C1205.56 1420.72 1204.87 1419.67 1204.96 1424C1200.91 1423.93 1196.82 1424.57 1192.8 1424.43C1186.06 1424.2 1186 1423.18 1184.88 1417.69Z"/><path fill="#191919" d="M1147.99 1417.49C1153.38 1417.33 1162.56 1415.57 1165.48 1420.33L1164.53 1423.97C1158.47 1424.09 1149.57 1425.29 1145.46 1421.49C1146.02 1418.48 1145.38 1419.87 1147.99 1417.49Z"/><path fill="#424242" d="M1032.56 1332.27C1034.93 1332.62 1036.16 1332.25 1037.24 1333.65C1040.04 1337.28 1038.59 1348.33 1038.3 1353.17L1034.35 1352.37C1030.12 1347.39 1032.02 1339.24 1032.56 1332.27Z"/><path fill="#191919" d="M1228.23 1417.49C1232.88 1417.36 1240.85 1416.53 1244.37 1419.1C1244.67 1422.43 1244.95 1420.79 1242.81 1424.02C1236.73 1424.12 1228.4 1425.26 1224.21 1420.58C1225.46 1417.88 1224.59 1419.13 1228.23 1417.49Z"/><path fill="#191919" d="M1387.69 1417.49C1392.84 1417.47 1398.72 1416.66 1403.05 1418.67C1404.36 1421.26 1404.11 1419.86 1403.09 1423.06L1401.05 1424.01C1395.75 1424.1 1389.71 1424.95 1385.22 1422.8C1383.9 1419.91 1383.95 1421.32 1384.89 1418.44L1387.69 1417.49Z"/><path fill="#191919" d="M1704.92 1417.49C1710.07 1417.34 1718.09 1415.74 1720.81 1420.41L1720.08 1423.06L1718.04 1424.01C1716.24 1424.09 1714.44 1424.14 1712.65 1424.16C1708.78 1424.19 1703.78 1423.98 1700.89 1421.13L1701.44 1418.49L1700.53 1420.38L1700.96 1420.5L1701.72 1418.16L1704.92 1417.49Z"/><path fill="#424242" d="M1032.55 1133.31C1034.75 1133.7 1036.21 1133.45 1037.21 1134.77C1040.02 1138.47 1038.59 1149.31 1038.31 1154.18L1034.35 1153.37C1030.12 1148.4 1032.01 1140.27 1032.55 1133.31Z"/><path fill="#424242" d="M1033.61 1371.45C1037.19 1372.44 1035.84 1371.47 1037.99 1374.15C1039.31 1380.24 1039.47 1387.84 1036.82 1393.62C1034.39 1392.41 1034.34 1392.59 1032.79 1390.42C1031.47 1384.75 1031.01 1376.79 1033.61 1371.45Z"/><path fill="#424242" d="M1035.77 617.447C1040.68 622.445 1039.75 634.514 1035.59 639.819C1030.27 634.975 1029.77 622.025 1035.77 617.447Z"/><path fill="#191919" d="M1344.11 1418.09C1348.57 1417.43 1360.01 1416.06 1363.43 1418.83C1364.76 1419.91 1364.43 1421.04 1364.79 1423.3C1360.51 1423.94 1351.1 1425.25 1347.11 1423.54C1344.56 1422.46 1344.79 1420.82 1344.11 1418.09Z"/><path fill="#191919" d="M1427.15 1417.49C1431.89 1417.39 1441.45 1416.24 1443.94 1420.74C1442.73 1423.1 1443.24 1422.24 1440.91 1424C1433.88 1424.29 1432.15 1424.52 1425.26 1422.76C1423.11 1420.88 1423.61 1422.04 1423.16 1419.53C1424.44 1418.28 1425.28 1418.24 1427.15 1417.49Z"/><path fill="#191919" d="M1105.82 1417.83C1110.54 1417.5 1121.48 1415.97 1124.9 1418.88C1126.19 1419.99 1125.67 1421.15 1125.76 1423.56C1119.83 1424.08 1114.24 1425.11 1108.61 1423.55C1105.74 1421.13 1106.62 1422.28 1105.82 1417.83Z"/><path fill="#191919" d="M1665.63 1417.49C1670.98 1417.38 1678.26 1416.39 1681.89 1420.72L1681.59 1422.29L1678.08 1424.02C1673.05 1424.14 1666.29 1424.89 1662.13 1422.48C1661.29 1419.74 1661.24 1421.1 1662.62 1418.3L1665.63 1417.49Z"/><path fill="#424242" d="M1033.73 1093.34C1037.14 1094.42 1035.8 1093.48 1037.99 1096.11C1039.56 1102.92 1038.53 1107.96 1037.81 1114.86C1033.64 1113.78 1035.17 1114.9 1032.73 1111.9C1031.2 1106.39 1031.13 1098.54 1033.73 1093.34Z"/><path fill="#191919" d="M1467.06 1417.49C1468.61 1417.43 1470.16 1417.39 1471.71 1417.37C1475.33 1417.34 1480.68 1417.37 1483.32 1419.97L1481.79 1422.89L1482.86 1422.34L1480 1424.01C1473.9 1424.08 1466.64 1425.33 1462.68 1420.05C1464.26 1417.72 1463.52 1418.76 1467.06 1417.49Z"/><path fill="#191919" d="M1264.03 1418.41C1268.07 1417.45 1280.18 1416.03 1283.45 1418.72C1284.82 1419.84 1284.51 1420.68 1285 1422.9C1281.41 1424.27 1271.25 1425.15 1267.54 1423.53C1264.56 1422.23 1265.03 1421.44 1264.03 1418.41Z"/><path fill="#424242" d="M1744.12 849.293C1753.39 852.268 1750.09 862.078 1749.36 870.708C1747.65 870.424 1745.69 870.492 1744.9 869.479C1741.97 865.728 1743.67 854.135 1744.12 849.293Z"/><path fill="#191919" d="M1625.98 1417.49C1631.46 1417.33 1638.1 1416.51 1642.1 1420.11C1641.23 1423.04 1641.83 1421.65 1638.85 1424.02C1633.7 1424.2 1622.28 1425.51 1621.57 1419.04L1620.78 1419.83C1623.1 1418.08 1623.12 1418.25 1625.98 1417.49Z"/><path fill="#191919" d="M1304.44 1417.92C1305.27 1417.84 1306.09 1417.77 1306.92 1417.71C1312.92 1417.27 1319.97 1415.92 1324.39 1419.7L1324.55 1423.32C1320.22 1424.06 1309.38 1425.6 1306.15 1422.73C1304.84 1421.57 1304.89 1419.91 1304.44 1417.92Z"/><path fill="#424242" d="M1274.14 606.236C1279.31 606.032 1288.08 604.991 1292.27 607.37C1293.55 610.46 1293.26 608.809 1292.48 612.549C1286.55 612.557 1277.05 614.522 1273.61 610.034L1274.14 606.236Z"/><path fill="#191919" d="M1065.86 1418.03C1071.88 1417.35 1081.43 1415.57 1085.85 1420.02L1085.7 1423.65C1079.77 1424.11 1074.25 1425.06 1068.64 1423.43C1065.68 1420.86 1066.8 1422.46 1065.86 1418.03Z"/><path fill="#424242" d="M1033.63 1172.44C1041.73 1174.75 1038.62 1186.53 1037.96 1193.7C1033.71 1192.59 1035.27 1193.72 1032.73 1190.81C1031.17 1185.43 1031.18 1177.54 1033.63 1172.44Z"/><path fill="#424242" d="M1744.4 889.189C1752.6 891.812 1750.87 903.873 1748.69 910.521L1745.81 910.456L1744.1 908.537C1742.5 902.074 1743.48 895.738 1744.4 889.189Z"/><path fill="#424242" d="M1034.73 1053.35C1040.98 1056.6 1039.19 1070.13 1036.86 1075.55L1033.99 1073.9C1030.65 1068.98 1030.75 1058 1034.73 1053.35Z"/><path fill="#424242" d="M1234.7 606.186C1239.66 606.035 1249.14 605.091 1252.98 607.594C1253.96 610.813 1253.99 609.239 1252.75 612.474C1247.36 612.558 1240.14 613.532 1235.66 611.88C1233.48 609.025 1234.15 610.731 1234.7 606.186Z"/><path fill="#191919" d="M1506.21 1417.49C1510.81 1417.38 1518.48 1416.65 1522.06 1418.98C1522.69 1422.2 1522.81 1420.54 1520.77 1423.99C1515.3 1424.15 1505.29 1425.26 1502.33 1420.26C1503.68 1418.11 1503.31 1418.95 1506.21 1417.49Z"/><path fill="#424242" d="M1032.81 895.337C1034.34 895.576 1035.37 895.937 1036.86 896.365C1040.15 900.866 1038.52 910.597 1038.09 916.309C1036.59 916.024 1035.39 915.617 1033.93 915.186C1030.19 910.152 1032.13 901.743 1032.81 895.337Z"/><path fill="#424242" d="M1034.67 855.334C1041.11 858.956 1039.16 872.023 1036.75 877.758L1033.59 875.545C1031.02 870.472 1030.6 859.74 1034.67 855.334Z"/><path fill="#191919" d="M1586.18 1417.49C1591.61 1417.38 1598.53 1416.47 1602.36 1420.1C1601.42 1423.11 1602.1 1421.68 1598.91 1424.02C1592.98 1424.26 1586.2 1425.1 1581.88 1420.47C1583.31 1417.73 1582.33 1418.98 1586.18 1417.49Z"/><path fill="#424242" d="M1743.79 810.303C1747.8 810.998 1746.19 810.146 1749.06 812.425C1750.83 818.051 1749.94 824.505 1749.76 830.668C1747.07 830.775 1747.23 830.871 1744.8 829.771C1742.1 824.582 1743.41 816.39 1743.79 810.303Z"/><path fill="#424242" d="M1032.7 816.27C1034.76 816.52 1034.87 816.636 1036.87 817.243C1040.34 821.81 1038.47 831.411 1037.86 837.183C1034 836.277 1035.55 837.211 1032.92 834.469C1031.06 828.262 1032.11 822.762 1032.7 816.27Z"/><path fill="#191919" d="M1542.81 1418.11C1548.66 1417.55 1558.03 1415.4 1561.97 1420.02L1561.35 1423.96C1555.82 1424.11 1548.86 1424.91 1544.04 1422.93C1542.15 1420.22 1542.68 1421.73 1542.81 1418.11Z"/><path fill="#424242" d="M1314.48 606.208C1319.47 606.036 1328.76 604.943 1332.34 607.902C1332.98 610.916 1333.04 609.393 1331.59 612.558C1326.11 612.594 1315.78 614.43 1313.2 609.581L1314.48 606.208Z"/><path fill="#424242" d="M1433.67 606.177C1438.85 606.063 1447.29 605.302 1451.56 607.453C1453.05 610.415 1452.82 608.835 1451.75 612.403C1445.8 612.559 1436.81 614.681 1433.12 610.005L1433.67 606.177Z"/><path fill="#424242" d="M1473.12 606.244C1478.12 606.075 1487.63 605.133 1491.5 607.701C1492.28 610.865 1492.41 609.321 1490.75 612.444C1485 612.728 1476.18 614.658 1472.57 610.025L1473.12 606.244Z"/><path fill="#424242" d="M1743.94 1088.22C1748.18 1089.21 1746.68 1088.11 1749.13 1090.81C1750.84 1096.29 1749.96 1102.63 1749.65 1108.54L1745.64 1108.48C1741.61 1103.59 1743.44 1094.96 1743.94 1088.22Z"/><path fill="#424242" d="M1036.17 606.416C1041.22 606.132 1050.5 604.898 1054.34 607.777C1055.1 610.866 1055.17 609.337 1053.75 612.486C1048.28 612.584 1038.73 614.411 1035.39 610.023L1036.17 606.416Z"/><path fill="#424242" d="M1032.73 657.354C1035.22 657.895 1036.08 657.513 1037.21 659.04C1040.04 662.841 1038.5 672.872 1038.11 677.855C1036.38 677.496 1034.24 677.45 1033.34 676.285C1030.5 672.596 1032.27 662.183 1032.73 657.354Z"/><path fill="#424242" d="M1512.64 606.327C1518.06 606.095 1525.97 605.131 1530.58 607.425C1532 610.452 1531.79 608.854 1530.75 612.422C1524.96 612.715 1515.98 614.549 1512.13 610.001L1512.64 606.327Z"/><path fill="#424242" d="M1744.4 651.19C1753.04 653.985 1750.15 664.816 1749.1 672.377C1747.14 672.139 1745.74 672.43 1744.86 671.27C1741.81 667.225 1743.74 655.972 1744.4 651.19Z"/><path fill="#424242" d="M1195.17 606.201C1200.25 606.061 1209.49 605.19 1213.48 607.81C1214.35 610.846 1214.45 609.343 1212.75 612.424C1206.97 612.711 1198.2 614.631 1194.52 610.011L1195.17 606.201Z"/><path fill="#424242" d="M1076.05 606.35C1081.16 606.105 1089.66 605.008 1093.7 607.602C1094.55 610.86 1094.61 609.261 1093.27 612.546C1088.04 612.661 1077.26 614.402 1074.86 609.583L1076.05 606.35Z"/><path fill="#424242" d="M1744.03 1009.28C1748.17 1010.34 1746.69 1009.24 1749.17 1011.86C1750.98 1018.4 1749.89 1023.3 1749.3 1030.16L1745.34 1029.4C1741.68 1024.94 1743.5 1015.15 1744.03 1009.28Z"/><path fill="#424242" d="M1744.89 1127.7C1752.57 1131.06 1750.45 1141.85 1748.87 1148.8L1745.62 1148.59C1741.51 1144.62 1743.35 1132.69 1744.89 1127.7Z"/><path fill="#424242" d="M1743.99 1326.18C1753.13 1328.43 1750.09 1338.34 1749.57 1346.57L1745.66 1346.41C1741.6 1341.56 1743.47 1332.89 1743.99 1326.18Z"/><path fill="#424242" d="M1744.9 1167.81C1752.96 1170.7 1749.96 1182.21 1748.9 1189.04L1745.62 1188.59C1741.67 1184.64 1743.1 1172.71 1744.9 1167.81Z"/><path fill="#424242" d="M1035.09 1292.66C1037.38 1293.89 1036.55 1293.29 1038.15 1295.56C1039.2 1301.22 1039.26 1309.02 1036.68 1314.3C1029.83 1310.36 1030.23 1297.56 1035.09 1292.66Z"/><path fill="#424242" d="M1744.7 611.551L1748.26 613.263C1751.37 618.876 1749.91 626.212 1749.31 632.705C1745.17 632.106 1746.73 633.042 1744.17 630.346C1742.42 624.166 1743.23 617.733 1744.7 611.551Z"/><path fill="#424242" d="M1552.88 606.264C1555.83 606.15 1558.78 606.092 1561.74 606.089C1565.15 606.114 1568.85 606.139 1571.3 608.578L1571.17 610.484L1568.75 612.511C1563.38 612.614 1554.27 614.469 1551.52 609.654L1552.88 606.264Z"/><path fill="#424242" d="M1033.58 1212.32C1041.24 1214.49 1039.48 1227.29 1037.25 1233.07C1028.83 1230.4 1031.39 1219.14 1033.58 1212.32Z"/><path fill="#424242" d="M1354.64 606.192C1359.53 606.058 1369.05 605.071 1372.43 608.258C1372.71 611.26 1373.03 609.839 1370.99 612.54C1365.83 612.67 1357.94 613.527 1353.7 611.237C1352.76 608.065 1352.73 609.71 1354.64 606.192Z"/><path fill="#424242" d="M1115.95 606.219C1120.94 606.072 1129.7 605.199 1133.56 607.815C1134.35 610.912 1134.46 609.362 1132.62 612.548C1127.19 612.661 1116.73 614.475 1114.53 609.318L1115.95 606.219Z"/><path fill="#424242" d="M1156.11 606.188L1159.33 606.122C1164.06 606.049 1170.93 605.403 1174.33 608.694L1174.28 610.47L1172.02 612.535C1166.73 612.667 1156.62 614.51 1154.55 609.359L1156.11 606.188Z"/><path fill="#424242" d="M1394.05 606.204C1399.31 606.054 1408.08 605.118 1412.14 607.966C1413.08 610.808 1413.07 609.371 1411.74 612.403C1406.02 612.554 1396.74 614.559 1393.22 609.997L1394.05 606.204Z"/><path fill="#424242" d="M1711.11 606.27C1716.4 606.082 1724.99 605.147 1729.23 607.837C1730.2 610.812 1730.24 609.332 1728.75 612.4C1722.82 612.633 1714.32 614.615 1710.44 609.999L1711.11 606.27Z"/><path fill="#424242" d="M1744.72 1365.44C1752.8 1368.26 1749.97 1379.59 1749.2 1386.62C1747.06 1386.27 1745.81 1386.56 1744.83 1385.29C1741.76 1381.27 1743.63 1370.1 1744.72 1365.44Z"/><path fill="#424242" d="M1032.96 697.206C1035.19 697.595 1036.15 697.247 1037.16 698.599C1039.96 702.326 1038.49 712.729 1038.15 717.61C1033.9 716.735 1035.38 717.796 1032.87 715.278C1030.9 708.758 1032.1 703.987 1032.96 697.206Z"/><path fill="#424242" d="M1592.75 606.197C1597.85 606.05 1606.66 605.219 1610.48 608.186L1610.66 610.391L1608.79 612.503C1603.64 612.665 1595.97 613.592 1591.81 611.151C1590.95 608.054 1590.93 609.672 1592.75 606.197Z"/><path fill="#424242" d="M1035.15 934.63C1040.76 937.981 1039.17 951.349 1036.72 956.351C1029.36 952.534 1030.71 940.164 1035.15 934.63Z"/><path fill="#424242" d="M1033.79 974.237L1036.81 975.369C1040.04 980.224 1038.54 988.93 1038.04 994.848C1033.7 994.06 1035.3 995.102 1032.69 992.281C1030.98 986.465 1031.63 979.848 1033.79 974.237Z"/><path fill="#424242" d="M1743.86 1049.06C1746.72 1049.52 1746.9 1049.24 1748.88 1051.21C1750.81 1056.49 1749.97 1063.05 1749.79 1068.92C1745.25 1068.94 1746.91 1069.78 1744.19 1067.31C1742.44 1061.71 1743.46 1055.11 1743.86 1049.06Z"/><path fill="#424242" d="M1743.71 771.122C1748.29 772.033 1746.66 770.895 1749.31 773.768C1750.89 779.225 1749.93 784.964 1749.49 790.759C1748.54 790.848 1746.59 790.789 1745.57 790.786C1741.83 786.317 1743.41 777.426 1743.71 771.122Z"/><path fill="#424242" d="M1036.19 776.79C1040.25 780.972 1039.73 793.983 1035.65 798.288C1030.51 793.28 1029.34 781.083 1036.19 776.79Z"/><path fill="#424242" d="M1672.08 606.227C1676.6 606.165 1690.46 604.518 1690.25 610.469L1688.02 612.538C1682.77 612.619 1673.11 614.409 1670.64 609.687L1672.08 606.227Z"/><path fill="#424242" d="M1632.1 606.238C1637.57 606.085 1644.58 605.245 1649.25 607.466C1650.85 610.545 1650.64 608.945 1649.73 612.45C1644.19 612.65 1633.83 614.594 1630.99 609.57L1632.1 606.238Z"/><path fill="#424242" d="M1744.61 969.763C1747.23 970.567 1746.47 970.261 1748.8 971.702C1751.25 977.479 1749.8 984.107 1749.07 990.405L1745.58 989.749C1741.74 986.03 1743.2 974.555 1744.61 969.763Z"/><path fill="#424242" d="M1034.87 1252.3C1041.03 1255.97 1039.11 1268.39 1036.75 1273.99C1029.95 1269.42 1030.12 1257.77 1034.87 1252.3Z"/><path fill="#424242" d="M1033.91 1014.25C1041.26 1016.78 1039.31 1029.46 1037.08 1035.19C1034.32 1034.25 1034.47 1034.4 1032.75 1032.06C1031.24 1026.59 1031.31 1019.35 1033.91 1014.25Z"/><path fill="#424242" d="M1744.86 1286.92L1748.28 1288.4C1751.49 1293.18 1749.79 1301.76 1749.15 1307.55L1745.56 1306.87C1741.51 1302.84 1743.29 1291.89 1744.86 1286.92Z"/><path fill="#424242" d="M1036.07 736.659C1040.46 740.819 1039.35 753.393 1035.74 758.245C1030.03 752.888 1029.95 741.778 1036.07 736.659Z"/><path fill="#424242" d="M1744.26 1247.21C1748.19 1248.39 1746.71 1247.31 1749.17 1250.03C1751.04 1256.2 1750.03 1261.57 1748.79 1267.85C1740.16 1266.65 1743.45 1254.24 1744.26 1247.21Z"/><path fill="#424242" d="M1744.66 1207.78C1747.33 1208.48 1747.17 1208.37 1749.13 1210.3C1750.97 1216.9 1749.87 1221.55 1748.98 1228.3C1745.12 1227.79 1746.61 1228.65 1744.19 1225.96C1742.62 1220.29 1742.92 1213.37 1744.66 1207.78Z"/><path fill="#424242" d="M1744.21 731.201C1748.16 732.388 1746.67 731.316 1749.18 734.03C1751.02 740.494 1749.9 745.025 1748.97 751.727C1747.31 751.467 1745.69 751.598 1744.93 750.601C1741.98 746.694 1743.64 735.855 1744.21 731.201Z"/><path fill="#424242" d="M1744.63 929.324C1747.41 930.379 1747.32 930.186 1749.12 932.51C1750.87 938.301 1750.24 943.874 1748.81 949.684L1745.63 949.521L1744.04 947.548C1742.64 941.411 1743.18 935.43 1744.63 929.324Z"/><path fill="#424242" d="M1744.44 691.171C1748.14 692.528 1746.64 691.47 1749.18 694.379C1750.86 700.598 1749.96 705.153 1749.12 711.57C1745.17 711.208 1746.69 712.032 1744.19 709.448C1742.49 703.002 1743.31 697.737 1744.44 691.171Z"/><path fill="#7C7C7C" d="M523.609 486.642C528.487 487.938 526.846 494.789 527.529 499.341C544.591 618.617 573.206 736.762 589.612 856.191C612.63 1023.76 622.242 1194.71 623.936 1363.76C624.045 1374.68 615.016 1388.87 612.886 1399.43C609.59 1415.78 606.646 1499.69 600.112 1508.44C591.097 1510.8 561.369 1510.14 551.089 1510.18L464.442 1510.52L409.215 1511.15C401.792 1511.23 390.864 1512.02 384.014 1511.16C378.254 1507.01 373.98 1470.56 372.009 1459.99C371.449 1453.48 363.686 1411.52 362.249 1402.08C361.338 1396.09 348.795 1393.82 347.112 1390.54C340.217 1377.11 331.476 1349.22 326.665 1336.25C304.91 1276.72 283.459 1217.07 262.311 1157.31C252.442 1129.52 242.744 1101.68 233.217 1073.77C227.544 1056.91 216.625 1028.42 218.051 1011.58C220.109 987.274 245.696 950.948 258.259 929.41L334.662 799.103C375.644 729.064 417.064 659.281 458.919 589.759C472.321 567.448 485.902 545.244 499.661 523.151C506.281 512.547 516.116 496.048 523.609 486.642Z"/><path fill="#FEFEFE" d="M522.935 491.433C523.494 491.991 524.052 492.548 524.611 493.106C546.294 644.966 583.187 794.751 599.093 947.625C600.914 965.128 601.787 983.377 603.297 1001.01L615.998 1160C617.409 1178.01 616.011 1196.01 618.125 1214.03C621.181 1240.08 619.707 1267.78 620.212 1294.04C620.668 1317.68 623.468 1343.37 620.744 1366.81C619.912 1373.97 617.241 1387.77 611.77 1392.56C606.871 1396.85 521.314 1394.69 507.831 1395.09C492.974 1395.52 478.142 1396.86 463.279 1397.36C455.397 1397.62 447.913 1399.5 441.865 1393.78L441.161 1393.11L439.271 1393.42C436.297 1396.06 435.025 1397.94 430.936 1397.12C430.259 1395.42 430.48 1396.08 429.964 1394.41L429.62 1393.27C422.592 1390.25 423.918 1395.39 418.31 1395.94C417.871 1393.67 418.224 1394.42 416.787 1392.56L385.846 1391.41C385.858 1397.26 389.942 1392.08 394.315 1396.56C391.506 1397.8 381.997 1397.49 378.183 1397.63C371.651 1397.86 364.605 1400.29 361.73 1393.58L359.048 1394.17C342.935 1389.55 343.208 1371.52 337.403 1358.28C331.355 1344.5 326.656 1329.91 321.547 1315.71L275.082 1186.13C262.673 1151.7 250.552 1117.17 238.723 1082.54C232.978 1065.71 223.084 1039.64 220.798 1022.92C219.325 1011.67 221.111 1000.23 225.942 989.966C233.824 973.128 257.644 934.953 267.808 917.546L356.351 766.635C392.627 704.922 429.249 643.413 466.217 582.112L499.581 527.566C506.335 516.615 515.296 501.463 522.935 491.433Z"/><path fill="#FEFEFE" d="M587.51 1400.5C591.72 1398.99 605.07 1398.78 609.422 1400.69C610.681 1408.65 601.27 1501.95 598.641 1507.39C590.551 1510.23 408.951 1508.79 387.75 1508.98C384.344 1508.96 385.818 1509.43 383.078 1507.88C380.829 1500.41 379.643 1488.8 378.227 1480.73L366.448 1411.79C365.853 1408.49 365.494 1405.96 367.445 1403.19C373.804 1401.24 433.407 1402.11 443.211 1402.05L587.51 1400.5Z"/><path fill="#FEFEFE" d="M2256.51 489.007C2259.11 490.081 2260.42 491.252 2261.95 493.649C2285.54 530.733 2308.72 568.517 2331.28 606.205L2439.79 789.123L2518.16 922.763C2531.61 945.693 2546.55 969.027 2558.61 992.597C2569.47 1013.83 2557.11 1045.03 2550.26 1065.52C2543.37 1086.1 2536.31 1106.63 2529.07 1127.09L2463.39 1310.03C2455.99 1330.67 2447.78 1351.74 2440.84 1372.42C2436.55 1386.41 2428.72 1397.55 2412.55 1397.7C2372.03 1398.07 2331.57 1396.09 2291.07 1395.62L2217.77 1395.46C2203.9 1395.46 2183.48 1396.22 2170.38 1393.83C2153.14 1374.98 2160.84 1308.09 2161.32 1281.78C2162.58 1190.08 2168.07 1098.49 2177.78 1007.29C2180.2 985.881 2179.37 958.862 2183.68 937.476C2186 929.406 2184.29 921.16 2185.56 912.84C2194.02 859.619 2201.15 805.805 2211.12 752.723C2215.5 729.352 2218.94 704.678 2223.5 681.629C2232.47 636.297 2241.28 591.028 2248.71 545.307C2251.96 525.326 2256.35 509.948 2256.51 489.007Z"/><path fill="#FEFEFE" d="M727.952 391.441C733.884 389.043 743.992 384.647 750.258 384.695C758.287 393.711 758.052 416.664 760.952 428.187C768.883 459.7 767.561 492.176 772.523 523.96C774.23 534.896 772.858 547.961 773.897 559.115C775.401 572.026 776.816 581.838 777.052 595.231C777.459 618.332 777.757 642.599 777.261 665.64C776.85 684.766 778.084 709.525 776.643 728.1C771.572 793.441 770.644 860.493 750.502 923.405C748.276 930.36 747.644 939.641 742.35 944.775C736.997 945.988 726.842 941.987 721.734 939.632C711.39 933.503 626.235 933.834 607.74 933.476C604.712 917.852 603.805 901.762 601.584 885.954C590.607 807.915 576.356 730.752 562.529 653.223C552.658 597.873 534.66 529.75 535.287 473.824C535.474 473.648 535.663 473.473 535.847 473.294C549.935 459.655 662.879 416.581 687.433 407.166C700.29 402.237 716.167 398.296 727.952 391.441Z"/><path fill="#F5F5F0" d="M727.952 391.441C733.884 389.043 743.992 384.647 750.258 384.695C758.287 393.711 758.052 416.664 760.952 428.187C768.883 459.7 767.561 492.176 772.523 523.96C774.23 534.896 772.858 547.961 773.897 559.115C775.401 572.026 776.816 581.838 777.052 595.231C777.459 618.332 777.757 642.599 777.261 665.64C776.85 684.766 778.084 709.525 776.643 728.1C771.572 793.441 770.644 860.493 750.502 923.405C748.276 930.36 747.644 939.641 742.35 944.775C736.997 945.988 726.842 941.987 721.734 939.632C725.602 939.533 730.762 939.83 734.735 939.935C736.452 929.052 743.377 911.738 745.977 900.241C749.086 893.006 747.886 879.505 750.249 872.901C757.982 851.287 755.837 829.978 759.998 807.738C761.357 800.48 765.039 805.787 768.61 803.488L768.018 802.086C764.861 802.165 764.317 802.353 761.226 801.491C757.503 794.872 762.424 794.223 762.961 788.259C763.855 778.334 761.764 765.992 763.99 756.402C767.232 753.643 766.636 755.414 771.953 754.467L771.835 752.985C769.881 752.588 768.268 752.359 766.29 752.092C764.352 749.054 764.486 719.326 768.368 716.287C771.228 716.7 770.345 716.923 772.909 716.242L772.628 714.312C769.583 714.185 769.498 714.391 766.802 713.122C765.287 709.078 766.035 675.268 766.431 668.785C766.534 667.109 768.125 668.744 769.134 665.098C768.535 664.258 766.037 660.789 766.108 660.066C767.002 651 763.944 634.262 767.937 626.934C763.545 611.334 766.709 592.531 766.551 576.48C766.46 567.188 759.311 548.005 764.821 538.584C760.65 526.954 760.012 501.909 760.103 489.099C758.006 486.005 757.184 485.234 757.11 481.525C756.901 471.055 756.731 461.276 757.167 450.763C755.274 449.301 755.243 449.206 753.751 447.314C753.055 440.729 746.615 406.152 747.727 403.246L750.815 401.996C753.079 399.212 752.364 399.963 752.771 395.71C752.48 399.356 751.894 399.522 748.928 400.944L747.061 400.015C744.575 396.248 744.644 395.556 743.669 390.952L743.395 389.614C735.501 391.544 736.804 391.61 727.952 391.441Z"/><path fill="#FEFEFE" d="M2058.37 939.989C2052.36 942.095 2047.89 943.478 2041.73 945.09C2039.88 944.576 2038.34 943.758 2037.6 941.767C2015.97 883.7 2011.25 819.474 2007.71 758.158C2004.33 705.752 2003.4 653.216 2004.95 600.724C2005.74 579.068 2008.71 558.63 2008.86 536.983C2009.16 532.132 2009.56 524.859 2010.01 520.255C2011.67 503.257 2021.29 390.84 2031.68 384.874C2038.89 384.812 2047.2 388.717 2054.01 391.424C2061.23 395.9 2086.01 403.302 2094.53 407.173C2123.57 420.374 2225.96 456.379 2246.66 473.387C2247.44 505.212 2244.27 516.575 2239.04 547.426C2232.44 586.391 2225.8 625.203 2216.87 663.74C2214.23 675.113 2214.8 685.684 2210.78 698.801C2207.89 708.241 2206.31 728.325 2204.43 739.207L2180.28 883.824C2178.86 892.574 2176.21 925.939 2172.15 930.558C2154.04 934.819 2071.29 931.127 2058.37 939.989Z"/><path fill="#F5F5F0" d="M2058.37 939.989C2052.36 942.095 2047.89 943.478 2041.73 945.09C2039.88 944.576 2038.34 943.758 2037.6 941.767C2015.97 883.7 2011.25 819.474 2007.71 758.158C2004.33 705.752 2003.4 653.216 2004.95 600.724C2005.74 579.068 2008.71 558.63 2008.86 536.983C2009.16 532.132 2009.56 524.859 2010.01 520.255C2011.67 503.257 2021.29 390.84 2031.68 384.874C2038.89 384.812 2047.2 388.717 2054.01 391.424C2049.1 391.325 2044.54 391.195 2039.62 391.413C2032.82 401.819 2031.59 435.647 2027.41 448.397C2026.24 449.022 2025.07 449.648 2023.9 450.274C2024.09 450.546 2024.29 450.809 2024.46 451.092C2025.35 452.584 2026.16 454.24 2026.29 456.002C2026.47 458.446 2025.42 482.499 2024.66 484.686C2024.51 485.112 2023.66 486.462 2023.47 486.806C2021.56 490.248 2018.28 531.495 2018.1 537.986C2017.92 544.515 2019.2 551.092 2018.97 557.576C2018.71 564.794 2015.26 571.264 2015.65 578.701C2016.02 585.76 2017.5 618.351 2016.54 623.038C2016.31 624.149 2014.68 625.457 2014.49 626.556C2013.17 634.27 2017.96 651.44 2015.56 662.388C2012.91 665.052 2013.69 664.216 2009.19 664.97L2009.48 666.485L2014.29 666.772C2016.96 670.099 2016.16 706.141 2015.79 712.169C2011.54 716.335 2010.51 712.359 2009.15 715.51C2011.69 716.559 2011.23 716.226 2014.15 716.432C2017.92 720.241 2016.53 721.922 2015.9 726.521C2014.82 734.559 2017.19 743.061 2016.53 751.266L2015.26 751.477C2013.6 751.761 2012.14 752.072 2010.5 752.429L2010.22 754.737L2011.04 755.651C2015.29 754.667 2014.02 754.312 2017.42 755.747C2022.02 765.236 2015.38 785.925 2021.58 793.605C2021.95 797.932 2022.7 798.272 2021.07 801.513C2017.97 802.169 2016.79 802.247 2013.7 802.486L2013.6 803.959C2019.09 804.827 2017.59 802.607 2021.18 804.834C2024.73 817.959 2023.86 831.366 2025.8 844.609C2027.4 855.458 2031.46 866.65 2031.42 877.573C2031.41 880.144 2032.37 881.168 2033.51 883.258C2035.38 886.691 2034.93 893.182 2035.8 897.32C2036.99 903.003 2045.45 938.107 2048.85 939.33C2051.63 940.331 2055.4 939.982 2058.37 939.989Z"/><path fill="#FEFEFE" d="M1222.76 220.345C1223.56 220.156 1229.91 218.674 1229.94 220.178C1231.45 287.99 1244.06 345.543 1296.79 392.124C1382.46 467.801 1491.2 422.242 1533.52 325.653C1550.75 286.335 1549.49 259.914 1551.6 218.926C1561.36 220.412 1591.32 225.285 1598.92 229.029C1612.49 235.706 1603.19 307.95 1597.37 317.528C1596.13 332.08 1578.77 366.389 1571.39 379.791C1569.91 385.298 1564.73 387.855 1562.03 392.063C1541.12 424.823 1508.47 452.153 1473.26 468.163C1464.62 472.09 1461.54 460.967 1450.67 476.926C1448.59 479.97 1415.61 485.588 1408.78 486.271C1341.76 492.971 1275.39 460.28 1232.63 409.375C1197.21 367.582 1177.38 314.791 1176.55 260.012C1176.46 249.333 1177.86 239.982 1178.73 229.407C1190.49 226.565 1211.23 221.17 1222.76 220.345Z"/><path fill="#FEFEFE" d="M2175.88 1451.58C2173.84 1444.83 2169.61 1406.93 2172.92 1401.28C2176.97 1400 2192.16 1401.04 2197.66 1401.18C2210.8 1401.5 2223.95 1401.6 2237.09 1401.5C2278.37 1401.4 2319.64 1401.71 2360.9 1402.42C2368.58 1402.5 2412.06 1401.29 2415.57 1404.15C2417.92 1410.79 2414.02 1428.45 2412.13 1435.64C2412.78 1440.62 2400.59 1506.22 2398.16 1509.12C2373.63 1510.15 2191.9 1511.31 2182.28 1507.31C2180.6 1502.91 2175.06 1455.13 2175.88 1451.58Z"/><path fill="#F5F5F0" d="M2175.88 1451.58C2173.84 1444.83 2169.61 1406.93 2172.92 1401.28C2176.97 1400 2192.16 1401.04 2197.66 1401.18C2210.8 1401.5 2223.95 1401.6 2237.09 1401.5C2278.37 1401.4 2319.64 1401.71 2360.9 1402.42C2368.58 1402.5 2412.06 1401.29 2415.57 1404.15C2417.92 1410.79 2414.02 1428.45 2412.13 1435.64C2411.25 1428.06 2411.57 1422.65 2411.83 1414.99C2384.74 1412.13 2359.78 1412.61 2332.8 1412.58L2230.29 1412.43C2218.57 1412.39 2185.25 1413.04 2174.94 1411.91C2175.83 1422.55 2177.42 1441.27 2175.88 1451.58Z"/><path fill="#BEBEBE" d="M1241.99 286.101C1250.46 289.448 1259.25 294.133 1267.42 298.32C1271.36 300.595 1278.87 300.317 1282.66 301.934C1302.86 310.556 1323.72 313.219 1345.44 315.428C1370.02 317.925 1395.2 319.11 1419.85 316.5C1428.39 316.017 1435.66 316.802 1444.02 314.878C1467.19 309.547 1490.62 307.261 1513.08 298.537C1518.01 296.62 1534.76 286.674 1538.63 288.429C1542.15 301.748 1515.11 349.518 1506.85 361.418C1505.72 362.311 1494.78 375.684 1492.95 377.667C1416.53 460.612 1299.34 426.503 1256.07 328.924C1248.94 312.844 1246.77 302.603 1241.99 286.101Z"/><path fill="#BEBEBE" d="M1237.62 222.631C1239.81 222.981 1257.88 231.929 1262.17 233.822C1275.89 239.873 1289.09 243.473 1303.04 248.862C1307.77 251.274 1313 250.09 1318.22 251.476C1351.75 260.387 1390.69 262.352 1425.47 258.783C1460.84 255.155 1499.97 243.707 1532.21 228.458C1535.46 226.918 1539.23 223.069 1543.03 223.047C1548.17 229.742 1541.37 264.767 1541.49 274.25C1541.47 287.685 1480.44 304.415 1468.53 306.258C1403.42 316.328 1331.01 316.284 1268.61 292.904C1260.16 289.74 1241.47 283.738 1240.67 274.161C1237.69 256.496 1237.45 240.448 1237.62 222.631Z"/><path fill="#030303" d="M1734.54 1788.35C1742.64 1787.78 1771.68 1786.6 1776.46 1791.62C1768.48 1791.76 1742.62 1792.65 1735.97 1790.94L1734.54 1788.35Z"/><path fill="#030303" d="M1011.3 1788.49C1017.83 1788.49 1043.98 1786.42 1046.58 1790.04L1044.79 1791.67C1036.68 1791.75 1016.01 1792.39 1009.41 1791.08L1008.73 1789.97L1011.3 1788.49Z"/><path fill="#030303" d="M2251.38 473.415C2254.78 474.606 2256.09 474.688 2258.16 477.626C2258.22 481.209 2258.81 479.744 2256.6 482.27C2253.48 483.77 2254.72 483.724 2251.66 483.468C2250.07 480.087 2251 477.603 2251.38 473.415Z"/><path fill="#030303" d="M527.956 473.23C531.467 475.684 532.627 479.916 530.333 483.503C527.992 482.159 527.331 481.898 525.363 480.103C525.869 477.383 526.807 475.715 527.956 473.23Z"/><path fill="#030303" d="M1439.18 248.459C1445.38 247.99 1450.34 246.228 1454.19 251.478C1447.46 252.119 1443.99 253.724 1439.18 248.459Z"/><path fill="#030303" d="M1327.96 248.412C1332.74 248.096 1336 247.527 1340.63 248.771L1341.79 251.152C1336.02 252.39 1331.62 253.431 1327.96 248.412Z"/><path fill="#030303" d="M2199.8 780.226L2202.34 781.309C2203.38 785.06 2202.74 789.948 2202.51 793.952L2199.85 791.492C2198.26 787.556 2199.2 784.527 2199.8 780.226Z"/><path fill="#030303" d="M2215.45 686.12L2218.25 686.87C2219.67 689.823 2218.85 693.959 2218.55 697.417L2216.12 696.284C2214.4 693.252 2215.16 689.724 2215.45 686.12Z"/></svg>