<?xml version="1.0" encoding="utf-8" ?><svg xmlns="http://www.w3.org/2000/svg" xmlns:xlink="http://www.w3.org/1999/xlink" width="945" height="726" viewBox="0 0 945 726"><path fill="#F5F5F2" transform="scale(1.05398 1.05398)" d="M0 0L897 0L897 689L0 689L0 0Z"/><path fill="#030303" transform="scale(1.05398 1.05398)" d="M377.665 103.617C378.376 103.699 388.049 108.926 389.836 109.601C417.278 119.967 448.746 118.178 473.927 103.623C476.142 104.035 478.676 104.627 480.867 104.91C491.337 106.261 500.518 110.055 510.374 113.61L546.397 126.611C582.714 139.726 619.242 152.487 655.052 166.933C665.168 171.014 679.676 176.639 689.039 181.928C691.482 183.308 702.179 201.038 704.377 204.602C723.787 236.495 742.882 268.579 761.659 300.848L776.683 326.503C779.376 331.107 784.931 339.978 786.524 344.676C789.614 353.789 781.279 372.846 778.206 381.666C772.832 397.023 767.376 412.352 761.839 427.651L753.071 452.162C751.497 456.572 749.923 461.347 747.954 465.592C747.08 467.476 744.86 468.579 743.037 469.695C742.048 475.511 738.537 501.386 735.861 504.145C732.242 505.632 727.109 504.799 723.182 504.711L705.425 504.481C693.613 504.296 681.79 504.226 669.982 504.069C669.008 503.952 667.109 504.073 666.548 503.184C664.508 499.965 664.665 495.197 664.337 491.431C663.702 484.13 663.565 476.805 661.942 469.615C661.033 465.589 659.037 460.99 658.918 456.913C658.576 445.269 659.212 433.315 659.647 421.683C660.105 406.836 660.81 391.998 661.762 377.175C663.063 360.848 664.447 344.528 665.916 328.215C658.747 328.027 651.566 328.465 644.416 328.525C636.78 328.59 632.913 328.906 625.902 332.014C625.836 353.947 623.728 375.691 623.233 397.417C621.671 466.017 607.677 527.618 582.483 591.564C553.369 589.288 515.637 587.565 486.495 587.428C466.839 587.284 446.97 586.087 427.318 586.433C375.089 587.352 321.526 587.304 269.489 591.595C254.891 553.642 243.725 518.137 236.406 477.795C231.721 451.969 230.433 427.023 228.951 400.935C227.499 377.99 226.54 355.017 226.074 332.032C215.152 326.994 198.206 328.196 186.071 328.178C189.233 359.374 191.334 390.669 192.371 422.008C192.765 433.385 193.299 445.402 193.08 456.798C192.878 461.039 191.003 465.2 190.111 469.312C188.426 477.072 188.233 485.006 187.541 492.88C187.308 495.536 187.389 503.566 183.961 503.868C177.1 504.472 170.014 504.08 163.09 504.19L136.063 504.686C131.785 504.778 118.749 505.702 115.675 503.719C113.426 500.096 109.945 475.606 109.101 469.818C108.465 469.427 107.834 469.029 107.207 468.624C105.212 467.327 104.514 466.833 103.57 464.56C101.345 459.2 99.4732 453.645 97.5232 448.177L87.0658 419.071C82.0234 405.052 77.0533 391.008 72.1557 376.938C61.9696 347.46 60.8642 351.287 76.8314 323.939L95.7086 291.711L133.899 227.222C142.021 213.693 150.208 200.062 158.874 186.879C160.685 184.124 162.001 182.254 164.977 180.758C175.704 175.362 187.587 170.659 198.727 166.224C222.99 156.547 247.451 147.375 272.095 138.714L329.584 117.954C339.213 114.481 349.438 110.674 359.098 107.409C362.335 106.315 373.692 104.382 377.665 103.617Z"/><path fill="#FEFEFE" transform="scale(1.05398 1.05398)" d="M376.978 106.508C377.828 106.687 377.728 106.757 378.553 106.673C405.468 121.904 439.8 122.662 467.565 109.72C469.286 108.918 471.86 107.449 473.466 106.885L475.123 106.43C478.27 106.868 488.936 108.641 491.435 110.033L492.884 110.138C497.86 111.296 509.088 115.77 514.491 117.739L553.638 131.836L600.635 148.84L613.291 153.459C615.13 154.113 618.25 154.762 619.594 155.921C620.181 157.723 619.813 157.927 619.392 159.942L620.563 160.807L621.802 156.782C633.024 160.519 646.578 166.31 657.729 170.63C664.819 173.377 682.65 180.585 688.235 184.383C688.083 196.792 685.888 207.869 683.617 220.052L676.424 258.229C673.308 275.573 670.484 292.967 667.952 310.406C667.219 315.313 666.867 320.742 666.084 325.476C656.452 325.704 646.809 325.811 637.168 326.387C633.18 326.626 626.02 329.407 624.623 329.153L623.649 327.723L622.711 328.352C624.533 331.948 622.84 354.982 622.58 361.065C621.951 379.503 620.992 397.929 619.703 416.334C618.771 431.402 617.76 447.826 615.638 462.747C612.433 484.078 607.861 505.181 601.948 525.925C599.322 535.491 596.578 544.968 593.614 554.435C593.181 555.817 592.519 556.869 591.276 557.579L589.438 557.535L588.223 558.388C589.788 558.715 590.462 558.595 591.549 559.553C590.911 563.826 582.73 584.484 580.802 589.206C559.159 587.095 536.783 586.848 515.034 586.051C464.213 583.825 413.325 583.517 362.481 585.129L325.771 586.416C308.861 586.893 287.896 587.42 271.186 589.176C269.205 584.32 260.809 563.074 260.261 559.005C260.401 558.229 260.371 558.616 259.945 557.707C257.22 552.758 252.052 533.13 250.398 527.101C244.521 505.889 239.274 484.128 236.315 462.283C232.894 437.031 232.139 411.176 230.424 385.761C229.209 367.766 229.46 349.453 228.303 331.515C228.099 330.376 228.175 330.32 227.365 329.447C225.053 328.876 219.635 326.929 218.214 326.775C207.844 325.655 196.299 325.747 185.821 325.457C183.334 298.287 177.231 268.908 172.616 241.916C169.594 224.241 163.779 201.967 163.788 184.302C168.602 181.049 179.944 176.46 185.759 174.058C199.772 168.376 213.837 162.824 227.953 157.404L229.577 157.092C232.048 159.16 232.816 168.065 233.276 171.378C234.482 177.388 235.29 183.472 235.697 189.589L236.766 187.942C235.652 175.296 234.284 168.399 231.642 156.117C235.18 154.423 242.081 152.141 246.041 150.71L272.43 141.18L359.196 109.881L359.962 111.013L360.564 110.27C363.081 108.457 373.644 106.778 376.978 106.508Z"/><path fill="#FEFEFE" transform="scale(1.05398 1.05398)" d="M260.261 559.005C269.821 557.549 280.053 556.887 289.736 556.1C316.685 554.094 343.689 552.9 370.71 552.519C443.267 550.369 515.888 552.329 588.223 558.388C589.788 558.715 590.462 558.595 591.549 559.553C590.911 563.826 582.73 584.484 580.802 589.206C559.159 587.095 536.783 586.848 515.034 586.051C464.213 583.825 413.325 583.517 362.481 585.129L325.771 586.416C308.861 586.893 287.896 587.42 271.186 589.176C269.205 584.32 260.809 563.074 260.261 559.005Z"/><path fill="#FEFEFE" transform="scale(1.05398 1.05398)" d="M227.953 157.404L229.577 157.092C232.048 159.16 232.816 168.065 233.276 171.378C234.482 177.388 235.29 183.472 235.697 189.589C236.141 197.884 237.463 211.237 237.778 218.976C238.771 243.406 238.217 309.418 227.365 329.447C225.053 328.876 219.635 326.929 218.214 326.775C207.844 325.655 196.299 325.747 185.821 325.457C183.334 298.287 177.231 268.908 172.616 241.916C169.594 224.241 163.779 201.967 163.788 184.302C168.602 181.049 179.944 176.46 185.759 174.058C199.772 168.376 213.837 162.824 227.953 157.404Z"/><path fill="#F5F5F2" transform="scale(1.05398 1.05398)" d="M227.953 157.404L229.577 157.092C232.048 159.16 232.816 168.065 233.276 171.378L232.893 171.919L232.613 171.831C232.271 173.541 232.262 174.747 232.186 176.472L231.625 176.439L231.058 175.258C231.52 170.071 228.106 161.622 227.953 157.404Z"/><path fill="#FEFEFE" transform="scale(1.05398 1.05398)" d="M621.802 156.782C633.024 160.519 646.578 166.31 657.729 170.63C664.819 173.377 682.65 180.585 688.235 184.383C688.083 196.792 685.888 207.869 683.617 220.052L676.424 258.229C673.308 275.573 670.484 292.967 667.952 310.406C667.219 315.313 666.867 320.742 666.084 325.476C656.452 325.704 646.809 325.811 637.168 326.387C633.18 326.626 626.02 329.407 624.623 329.153L623.649 327.723C620.84 318.919 618.204 308.667 617.141 299.467C613.34 266.561 612.944 232.448 615.558 199.431C616.549 186.914 617.711 172.982 620.563 160.807L621.802 156.782Z"/><path fill="#030303" transform="scale(1.05398 1.05398)" d="M376.978 106.508C377.828 106.687 377.728 106.757 378.553 106.673C405.468 121.904 439.8 122.662 467.565 109.72C469.286 108.918 471.86 107.449 473.466 106.885L475.123 106.43C474.416 126.844 472.735 141.021 457.703 156.861C440.035 175.48 412.776 175.769 394.882 157.401C380.082 142.209 377.106 126.544 376.978 106.508Z"/><path fill="#BFBFBF" transform="scale(1.05398 1.05398)" d="M378.553 106.673C405.468 121.904 439.8 122.662 467.565 109.72C469.286 108.918 471.86 107.449 473.466 106.885C473.596 109.582 473.339 123.659 471.685 125.041C462.764 132.493 442.363 134.983 430.82 135.421C416.676 135.958 392.375 134.036 380.597 125.279C378.58 123.78 378.432 109.942 378.553 106.673Z"/><path fill="#8F8F90" transform="scale(1.05398 1.05398)" d="M399.277 128.404C400.958 128.412 408.456 129.502 409.391 130.687C406.64 130.401 401.521 129.899 399.277 128.404Z"/><path fill="#8F8F90" transform="scale(1.05398 1.05398)" d="M446.999 129.383L447.922 129.078L448.265 129.532C446.631 130.442 445.246 130.528 443.397 130.833L442.543 130.846L442.188 130.433C443.939 129.639 445.12 129.602 446.999 129.383Z"/><path fill="#BFBFBF" transform="scale(1.05398 1.05398)" d="M379.886 126.674C382.737 127.641 386.115 129.536 389.165 130.655C409.468 138.1 435.215 138.113 456.072 132.851C461.524 131.476 467.056 128.845 472.058 126.654C469.938 136.488 467.585 141.508 462.106 149.729C455.62 158.561 445.952 166.166 435.122 168.652C424.566 171.073 413.48 169.154 404.352 163.326C390.96 154.828 383.377 141.827 379.886 126.674Z"/><path fill="#FEFEFE" transform="scale(1.05398 1.05398)" d="M376.978 106.508C377.106 126.544 380.082 142.209 394.882 157.401C412.776 175.769 440.035 175.48 457.703 156.861C472.735 141.021 474.416 126.844 475.123 106.43C478.27 106.868 488.936 108.641 491.435 110.033C491.524 114.714 491.973 118.515 491.675 123.292C490.48 140.392 483.276 156.517 471.337 168.816C427.385 214.537 359.172 175.34 360.354 117.858C360.395 115.88 360.749 111.9 360.564 110.27C363.081 108.457 373.644 106.778 376.978 106.508Z"/><path fill="#030303" transform="scale(1.05398 1.05398)" d="M392.275 550.898L428.98 550.725C441.25 550.773 453.963 551.124 466.184 550.924C481.147 551.113 496.108 551.442 511.065 551.914L540.499 553.409C544.206 553.605 552.287 554.261 555.719 554.123C558.204 554.452 559.264 554.586 561.761 554.518C565.257 554.844 587.973 556.732 589.438 557.535L588.223 558.388C515.888 552.329 443.267 550.369 370.71 552.519C343.689 552.9 316.685 554.094 289.736 556.1C280.053 556.887 269.821 557.549 260.261 559.005C260.401 558.229 260.371 558.616 259.945 557.707C262.128 557.18 268.768 556.616 271.215 556.365C279.731 555.42 288.27 554.692 296.823 554.18C301.354 553.97 307.129 553.846 311.516 553.257C315.242 553.282 318.338 553.074 322.038 552.814C326.206 552.8 334.204 552.401 338.213 551.95C340.348 552.096 345.412 551.762 347.753 551.675C362.591 551.265 377.432 551.005 392.275 550.898Z"/><path fill="#030303" transform="scale(1.05398 1.05398)" d="M491.435 110.033L492.884 110.138C493.592 112.892 493.05 123.764 492.668 126.96C490.242 146.463 480.195 164.211 464.724 176.328C435.048 199.534 397.405 192.591 374.694 163.626C362.627 148.464 357.055 129.14 359.196 109.881L359.962 111.013L360.564 110.27C360.749 111.9 360.395 115.88 360.354 117.858C359.172 175.34 427.385 214.537 471.337 168.816C483.276 156.517 490.48 140.392 491.675 123.292C491.973 118.515 491.524 114.714 491.435 110.033Z"/><path fill="#030303" transform="scale(1.05398 1.05398)" d="M619.392 159.942L620.563 160.807C617.711 172.982 616.549 186.914 615.558 199.431C612.944 232.448 613.34 266.561 617.141 299.467C618.204 308.667 620.84 318.919 623.649 327.723L622.711 328.352C607.86 292.292 611.571 198.75 619.392 159.942Z"/><path fill="#030303" transform="scale(1.05398 1.05398)" d="M236.766 187.942C238.851 204.951 239.1 221.529 239.184 238.775C239.321 266.973 238.837 296.047 231.025 323.377C230.354 325.722 228.676 329.424 228.303 331.515C228.099 330.376 228.175 330.32 227.365 329.447C238.217 309.418 238.771 243.406 237.778 218.976C237.463 211.237 236.141 197.884 235.697 189.589L236.766 187.942Z"/><path fill="#F5F5F2" transform="scale(1.05398 1.05398)" d="M347.753 551.675C348.002 551.202 348.877 549.643 349.413 549.618C356.689 549.27 363.98 549.12 371.264 549.111C373.25 549.109 373.716 548.8 375.078 550.192C376.194 550.002 375.921 549.927 376.872 548.762C378.429 548.484 384.374 548.444 385.871 548.835L386.145 549.857C387.584 550.889 389.344 549.974 392.275 550.898C377.432 551.005 362.591 551.265 347.753 551.675Z"/><path fill="#F5F5F2" transform="scale(1.05398 1.05398)" d="M466.184 550.924C468.093 550.473 477.405 548.783 478.849 549.547L479.434 550.528L480.246 550.504L480.534 549.403C484.302 548.249 496.407 549.799 500.923 549.291C503.074 549.048 505.551 550.376 506.754 550.388C507.932 549.574 507.597 549.56 508.846 549.452C510.928 550.877 509.091 550.669 511.065 551.914C496.108 551.442 481.147 551.113 466.184 550.924Z"/><path fill="#F5F5F2" transform="scale(1.05398 1.05398)" d="M322.038 552.814C322.553 551.427 321.664 551.815 322.726 550.322C330.791 549.636 331.34 551.707 338.213 551.95C334.204 552.401 326.206 552.8 322.038 552.814Z"/><path fill="#F5F5F2" transform="scale(1.05398 1.05398)" d="M296.823 554.18C297.217 553.814 297.27 553.667 297.578 553.22C296.908 552.883 296.787 552.859 296.073 552.723L295.438 552.607L296.006 552.017C301.416 550.239 305.126 553.067 311.516 553.257C307.129 553.846 301.354 553.97 296.823 554.18Z"/><path fill="#F5F5F2" transform="scale(1.05398 1.05398)" d="M555.719 554.123C557.049 554.039 560.952 554.114 561.639 553.749L561.007 552.479C562.285 551.796 564.633 553.141 566.941 553.182C565.702 553.885 563.254 554.226 561.761 554.518C559.264 554.586 558.204 554.452 555.719 554.123Z"/><path fill="#030303" transform="scale(1.05398 1.05398)" d="M362.723 474.116C365.201 473.788 368.081 473.073 369.509 475.32C366.958 475.858 364.075 476.62 362.723 474.116Z"/><path fill="#030303" transform="scale(1.05398 1.05398)" d="M350.595 474.065C352.62 473.902 354.936 473.474 356.696 474.299L357.131 475.545C355.098 475.671 352.899 476.062 351.093 475.304L350.595 474.065Z"/><path fill="#030303" transform="scale(1.05398 1.05398)" d="M435.759 474.082C437.851 473.921 440.139 473.515 441.977 474.348L442.359 475.506C440.344 475.653 437.938 476.052 436.178 475.286L435.759 474.082Z"/><path fill="#030303" transform="scale(1.05398 1.05398)" d="M520.716 474.08C523.254 473.867 526.378 472.902 527.282 475.585C525.254 475.662 522.878 476.043 521.142 475.294L520.716 474.08Z"/><path fill="#030303" transform="scale(1.05398 1.05398)" d="M423.527 474.127C426 473.79 428.912 473.127 430.386 475.309C427.915 475.893 424.863 476.532 423.527 474.127Z"/><path fill="#030303" transform="scale(1.05398 1.05398)" d="M374.784 474.125C377.448 473.864 380.029 473.011 381.699 475.245C379.237 476.016 376.262 476.459 374.784 474.125Z"/><path fill="#030303" transform="scale(1.05398 1.05398)" d="M387.073 474.075C389.612 473.876 392.745 472.928 393.692 475.571C391.206 475.698 387.935 476.621 387.073 474.075Z"/><path fill="#030303" transform="scale(1.05398 1.05398)" d="M508.469 474.139C510.949 473.833 513.838 473.139 515.345 475.289C512.836 475.906 509.83 476.53 508.469 474.139Z"/><path fill="#030303" transform="scale(1.05398 1.05398)" d="M411.473 474.071C413.511 473.911 415.808 473.487 417.576 474.333L417.997 475.535C415.976 475.66 413.778 476.047 411.974 475.311L411.473 474.071Z"/><path fill="#030303" transform="scale(1.05398 1.05398)" d="M399.276 474.078C401.908 473.879 404.742 472.97 405.898 475.533C403.353 475.695 400.233 476.642 399.276 474.078Z"/><path fill="#030303" transform="scale(1.05398 1.05398)" d="M472.182 474.081C474.263 473.924 476.515 473.513 478.327 474.361L478.699 475.519C476.644 475.653 474.33 476.053 472.551 475.242L472.182 474.081Z"/><path fill="#030303" transform="scale(1.05398 1.05398)" d="M338.424 474.077C341.027 473.867 343.88 472.96 344.972 475.538C342.957 475.667 340.565 476.071 338.836 475.255L338.424 474.077Z"/><path fill="#030303" transform="scale(1.05398 1.05398)" d="M326.261 474.081C328.79 473.885 331.889 472.94 332.819 475.576C330.802 475.645 328.402 476.023 326.685 475.276L326.261 474.081Z"/><path fill="#030303" transform="scale(1.05398 1.05398)" d="M484.283 474.083C486.929 473.878 489.735 472.974 490.899 475.541C488.876 475.659 486.421 476.057 484.69 475.239L484.283 474.083Z"/><path fill="#030303" transform="scale(1.05398 1.05398)" d="M447.898 474.085C450.512 473.885 453.371 472.988 454.532 475.526C452.515 475.656 450.088 476.054 448.338 475.259L447.898 474.085Z"/><path fill="#030303" transform="scale(1.05398 1.05398)" d="M459.979 474.135C462.574 473.851 465.227 473.092 466.778 475.347C464.358 475.805 461.205 476.519 459.979 474.135Z"/><path fill="#030303" transform="scale(1.05398 1.05398)" d="M496.393 474.083C498.435 473.93 500.765 473.515 502.544 474.348L502.946 475.517C500.367 475.686 497.501 476.598 496.393 474.083Z"/><path fill="#030303" transform="scale(1.05398 1.05398)" d="M534.541 470.133L535.385 470.647C535.966 472.752 536.016 474.492 534.605 476.215L533.487 475.492L533.334 474.646C534.035 472.753 534.175 472.066 534.541 470.133Z"/><path fill="#030303" transform="scale(1.05398 1.05398)" d="M316.67 447.406L317.583 448.098C318.142 450.125 317.878 452.015 317.769 454.138C317.154 453.886 317.103 453.804 316.547 453.432C315.955 451.356 316.377 449.551 316.67 447.406Z"/><path fill="#030303" transform="scale(1.05398 1.05398)" d="M316.71 374.288L317.579 374.958C318.185 377.05 317.904 379.112 317.426 381.209C315.507 379.874 316.394 376.377 316.71 374.288Z"/><path fill="#030303" transform="scale(1.05398 1.05398)" d="M316.791 362.091L317.462 362.579C318.289 364.392 317.793 367.058 317.502 369.034L316.625 368.357C315.982 366.134 316.326 364.34 316.791 362.091Z"/><path fill="#030303" transform="scale(1.05398 1.05398)" d="M316.654 386.506L317.589 387.204C318.171 389.238 317.843 391.098 317.676 393.237C317.322 393.045 316.883 392.69 316.544 392.441C315.962 390.456 316.386 388.572 316.654 386.506Z"/><path fill="#030303" transform="scale(1.05398 1.05398)" d="M316.685 459.691L317.658 460.475C318.121 462.402 317.838 464.373 317.706 466.38C315.38 465.467 316.383 461.694 316.685 459.691Z"/><path fill="#030303" transform="scale(1.05398 1.05398)" d="M316.613 398.742L317.5 399.324C318.291 401.458 317.905 403.104 317.477 405.334L316.503 404.515C316.006 402.499 316.361 400.804 316.613 398.742Z"/><path fill="#030303" transform="scale(1.05398 1.05398)" d="M316.678 289.282L317.587 289.977C318.215 292.294 317.833 293.922 317.392 296.237C315.626 294.867 316.408 291.274 316.678 289.282Z"/><path fill="#030303" transform="scale(1.05398 1.05398)" d="M316.752 240.734L317.653 241.495C318.124 243.397 317.829 245.385 317.693 247.373L316.688 246.79C315.882 244.733 316.371 242.874 316.752 240.734Z"/><path fill="#030303" transform="scale(1.05398 1.05398)" d="M316.588 228.748C316.919 228.957 317.342 229.356 317.655 229.624C318.166 231.769 317.832 233.289 317.557 235.473L316.547 234.658C316.023 232.769 316.387 230.716 316.588 228.748Z"/><path fill="#030303" transform="scale(1.05398 1.05398)" d="M316.586 410.969L317.386 411.47C318.374 413.033 317.782 415.821 317.495 417.634L316.552 416.854C316.041 414.98 316.394 412.922 316.586 410.969Z"/><path fill="#030303" transform="scale(1.05398 1.05398)" d="M316.728 337.945L317.654 338.738C318.124 340.822 317.822 342.483 317.631 344.616C315.453 343.564 316.409 339.901 316.728 337.945Z"/><path fill="#030303" transform="scale(1.05398 1.05398)" d="M316.564 435.492L317.516 436.108C318.252 438.262 317.88 439.885 317.442 442.114L316.558 441.369C316.07 439.286 316.374 437.629 316.564 435.492Z"/><path fill="#030303" transform="scale(1.05398 1.05398)" d="M389.587 225.775C392.267 225.454 394.415 224.805 396.499 226.684C393.748 227.029 391.592 227.824 389.587 225.775Z"/><path fill="#030303" transform="scale(1.05398 1.05398)" d="M316.578 313.67L317.604 314.396C318.141 316.302 317.764 318.491 317.568 320.491L316.636 319.676C316.057 317.751 316.399 315.688 316.578 313.67Z"/><path fill="#030303" transform="scale(1.05398 1.05398)" d="M401.932 225.737C404.352 225.516 407.205 224.631 408.503 226.802C406.353 226.966 402.973 227.77 401.932 225.737Z"/><path fill="#030303" transform="scale(1.05398 1.05398)" d="M316.561 277.368L317.522 277.972C318.255 279.913 317.807 282.003 317.459 284.019L316.556 283.241C316.084 281.161 316.378 279.498 316.561 277.368Z"/><path fill="#030303" transform="scale(1.05398 1.05398)" d="M462.634 225.775C465.073 225.414 467.699 224.851 469.479 226.678C466.987 227.046 464.331 227.738 462.634 225.775Z"/><path fill="#030303" transform="scale(1.05398 1.05398)" d="M316.623 225.779C319.021 225.532 321.802 224.764 323.494 226.628C320.954 227.139 318.547 227.668 316.623 225.779Z"/><path fill="#030303" transform="scale(1.05398 1.05398)" d="M438.295 225.777C440.597 225.518 443.36 224.859 445.155 226.45C442.896 227.362 440.118 227.495 438.295 225.777Z"/><path fill="#030303" transform="scale(1.05398 1.05398)" d="M474.707 225.778C476.972 225.476 479.976 224.847 481.587 226.59C479.045 227.145 476.646 227.655 474.707 225.778Z"/><path fill="#030303" transform="scale(1.05398 1.05398)" d="M328.749 225.779C331.117 225.51 333.704 224.976 335.598 226.355C333.462 227.466 330.572 227.442 328.749 225.779Z"/><path fill="#030303" transform="scale(1.05398 1.05398)" d="M316.697 252.934L317.655 253.763C318.134 255.843 317.806 257.474 317.585 259.605C317.061 259.268 316.964 259.105 316.52 258.659C316.057 256.371 316.348 255.237 316.697 252.934Z"/><path fill="#030303" transform="scale(1.05398 1.05398)" d="M316.572 423.227L317.513 423.853C318.262 425.853 317.799 427.8 317.465 429.884L316.558 429.095C316.087 427.02 316.385 425.353 316.572 423.227Z"/><path fill="#030303" transform="scale(1.05398 1.05398)" d="M499.181 225.739C501.53 225.521 504.457 224.641 505.703 226.77C503.328 226.983 500.496 227.836 499.181 225.739Z"/><path fill="#030303" transform="scale(1.05398 1.05398)" d="M316.644 301.481L317.595 302.289C318.108 304.278 317.791 306.21 317.633 308.288L316.643 307.403C316.045 305.492 316.428 303.485 316.644 301.481Z"/><path fill="#030303" transform="scale(1.05398 1.05398)" d="M316.82 325.737L317.463 326.244C318.272 328.421 317.798 330.347 317.395 332.591L316.786 332.085C315.923 329.861 316.387 328.021 316.82 325.737Z"/><path fill="#030303" transform="scale(1.05398 1.05398)" d="M534.403 299.775L535.387 300.416C535.938 302.311 535.622 304.427 535.495 306.447L534.499 305.865C533.897 303.947 534.238 301.801 534.403 299.775Z"/><path fill="#030303" transform="scale(1.05398 1.05398)" d="M316.669 350.156L317.654 350.994C318.149 352.861 317.773 354.883 317.558 356.82L316.553 355.958C316.039 353.864 316.391 352.292 316.669 350.156Z"/><path fill="#030303" transform="scale(1.05398 1.05398)" d="M534.748 397.105L535.382 397.743C535.925 399.89 535.697 401.881 535.217 404.019L534.485 403.326C533.932 401.106 534.094 399.289 534.748 397.105Z"/><path fill="#030303" transform="scale(1.05398 1.05398)" d="M534.459 287.541L535.386 288.165C535.937 290.231 535.644 291.95 535.487 294.097C534.958 293.919 534.875 293.779 534.402 293.437C533.906 291.435 534.256 289.619 534.459 287.541Z"/><path fill="#030303" transform="scale(1.05398 1.05398)" d="M534.692 226.68L535.286 227.223C536 229.292 535.647 231.534 535.237 233.643L534.57 233.068C533.848 230.73 534.188 229.032 534.692 226.68Z"/><path fill="#030303" transform="scale(1.05398 1.05398)" d="M316.639 265.146C317.153 265.48 317.252 265.645 317.687 266.085C318.119 268.371 317.845 269.514 317.52 271.811L316.556 270.971C316.07 268.9 316.409 267.271 316.639 265.146Z"/><path fill="#030303" transform="scale(1.05398 1.05398)" d="M534.572 238.883L535.361 239.585C535.94 241.735 535.79 243.711 535.104 245.816C533.576 244.426 534.282 240.798 534.572 238.883Z"/><path fill="#030303" transform="scale(1.05398 1.05398)" d="M534.597 445.642L535.351 446.311C535.939 448.48 535.69 450.457 535.205 452.628L534.663 452.157C533.794 450.232 534.279 447.704 534.597 445.642Z"/><path fill="#030303" transform="scale(1.05398 1.05398)" d="M534.415 312.011L535.355 312.546C535.943 314.567 535.621 316.546 535.474 318.682C534.961 318.474 534.881 318.331 534.432 317.971C533.952 315.958 534.254 314.095 534.415 312.011Z"/><path fill="#030303" transform="scale(1.05398 1.05398)" d="M534.376 385.121L535.375 385.677C535.937 387.699 535.627 389.538 535.473 391.657C535.209 391.575 534.746 391.274 534.483 391.12C533.94 389.11 534.236 387.224 534.376 385.121Z"/><path fill="#030303" transform="scale(1.05398 1.05398)" d="M534.443 372.933L535.386 373.539C535.929 375.455 535.611 377.487 535.472 379.517C534.969 379.327 534.889 379.193 534.444 378.856C533.937 376.847 534.263 375.021 534.443 372.933Z"/><path fill="#030303" transform="scale(1.05398 1.05398)" d="M534.481 457.925L535.383 458.514C535.906 460.441 535.617 462.54 535.501 464.575L534.496 463.992C533.897 462.071 534.28 459.95 534.481 457.925Z"/><path fill="#030303" transform="scale(1.05398 1.05398)" d="M534.398 433.749L535.371 434.298C535.927 436.316 535.62 438.115 535.462 440.226C535.211 440.152 534.754 439.862 534.501 439.718C533.947 437.73 534.253 435.838 534.398 433.749Z"/><path fill="#030303" transform="scale(1.05398 1.05398)" d="M534.915 360.84C536.162 362.38 535.601 365.383 535.45 367.488L534.533 366.708C533.896 364.578 533.969 362.867 534.915 360.84Z"/><path fill="#030303" transform="scale(1.05398 1.05398)" d="M534.436 263.408L535.35 263.931C535.933 265.923 535.629 267.715 535.481 269.811C535.232 269.741 534.751 269.452 534.497 269.314C533.917 267.348 534.262 265.487 534.436 263.408Z"/><path fill="#030303" transform="scale(1.05398 1.05398)" d="M534.376 348.804L535.387 349.45C535.937 351.33 535.665 353.127 535.549 355.112C535.227 354.986 534.763 354.675 534.448 354.484C533.89 352.564 534.21 350.825 534.376 348.804Z"/><path fill="#030303" transform="scale(1.05398 1.05398)" d="M534.354 275.608L535.369 276.177C535.928 277.98 535.647 280.027 535.549 281.963C535.23 281.839 534.773 281.528 534.461 281.337C533.921 279.41 534.213 277.631 534.354 275.608Z"/><path fill="#030303" transform="scale(1.05398 1.05398)" d="M534.39 324.252L535.367 324.801C535.931 326.8 535.631 328.538 535.478 330.63L534.513 330.17C533.932 328.229 534.248 326.311 534.39 324.252Z"/><path fill="#030303" transform="scale(1.05398 1.05398)" d="M534.62 409.299L535.44 410.11C535.888 412.479 535.66 413.576 535.381 415.964L534.661 415.438C533.769 413.42 534.241 411.425 534.62 409.299Z"/><path fill="#030303" transform="scale(1.05398 1.05398)" d="M534.483 251.198L535.386 251.798C535.912 253.678 535.607 255.627 535.473 257.612C535.208 257.536 534.742 257.238 534.476 257.087C533.923 255.086 534.281 253.293 534.483 251.198Z"/><path fill="#030303" transform="scale(1.05398 1.05398)" d="M534.39 336.521L535.36 337.07C535.914 338.867 535.653 340.941 535.572 342.871C535.005 342.666 534.959 342.571 534.451 342.227C533.924 340.295 534.231 338.542 534.39 336.521Z"/><path fill="#030303" transform="scale(1.05398 1.05398)" d="M534.499 421.58L535.385 422.159C535.908 424.067 535.606 425.995 535.469 428.004C535.207 427.924 534.746 427.627 534.484 427.476C533.917 425.474 534.287 423.681 534.499 421.58Z"/><path fill="#F5F5F2" transform="scale(1.05398 1.05398)" d="M267.939 553.983C272.52 554.194 268.081 554.968 273.211 555.662C271.345 555.853 269.936 556.206 268.257 555.48L267.939 553.983Z"/><path fill="#BFBFBF" transform="scale(1.05398 1.05398)" d="M356.615 124.302C357.686 125.512 357.625 128.438 357.853 130.307C357.634 130.321 357.812 130.335 357.127 130.09C356.78 127.972 356.436 126.45 356.615 124.302Z"/><path fill="#FEFEFE" transform="scale(1.05398 1.05398)" d="M161.114 187.872C161.162 197.744 164.573 212.94 166.378 222.957C170.371 244.085 174.183 265.248 177.814 286.441C179.868 298.702 181.895 311.162 183.111 323.741C187.447 368.605 191.305 414.094 190.307 459.18C190.254 461.557 188.818 464.429 187.746 466.485L187.63 467.295L187.51 468.207L184.182 501.912L116.841 502.374C115.375 492.907 113.308 478.083 111.28 469.199L111.594 468.074L106.64 465.562C104.672 461.713 102.033 453.75 100.475 449.44L90.1743 420.801C85.0919 406.705 80.0812 392.585 75.1426 378.438C64.1762 346.802 63.2154 351.953 79.9859 323.263L101.13 287.192L136.94 226.755C144.486 214.174 152.826 199.85 161.114 187.872Z"/><path fill="#FEFEFE" transform="scale(1.05398 1.05398)" d="M167.13 467.43C173.963 467.449 180.797 467.404 187.63 467.295L187.51 468.207L184.182 501.912L116.841 502.374C115.375 492.907 113.308 478.083 111.28 469.199L111.594 468.074C129.018 468.21 149.82 468.033 167.13 467.43Z"/><path fill="#4F4F4F" transform="scale(1.05398 1.05398)" d="M167.13 467.43C173.963 467.449 180.797 467.404 187.63 467.295L187.51 468.207C162.102 468.674 136.692 469.005 111.28 469.199L111.594 468.074C129.018 468.21 149.82 468.033 167.13 467.43Z"/><path fill="#BFBFBF" transform="scale(1.05398 1.05398)" d="M167.388 471.094C168.571 470.572 171.207 470.669 172.484 470.841L172.978 471.578C171.165 471.607 168.385 472.056 167.388 471.094Z"/><path fill="#F5F5F2" transform="scale(1.05398 1.05398)" d="M167.13 467.43C165.277 466.908 165.275 467.175 164.34 465.894L164.786 465.471C167.222 465.707 167.562 465.497 169.934 465.29C171.847 467.286 172.705 467.057 175.39 466.674C176.982 465.447 180.192 463.838 182.051 465.302L181.673 466.303C182.531 466.698 186.527 466.504 187.746 466.485L187.63 467.295C180.797 467.404 173.963 467.449 167.13 467.43Z"/><path fill="#FEFEFE" transform="scale(1.05398 1.05398)" d="M664.223 466.827L664.014 466.201C663.46 464.59 661.582 461.165 661.583 459.725C661.593 400.679 664.974 338.748 675.183 280.619C678.19 263.161 681.339 245.729 684.63 228.323C686.71 217.258 690.749 198.533 690.838 187.823C699.033 199.594 707.449 214.087 714.909 226.511L752.489 289.959L772.558 324.198C776.352 330.684 780.606 337.429 783.677 344.241C785.331 347.912 785.295 350.394 784.417 354.377C782.586 362.682 779.13 371.905 776.32 379.975L759.87 426.257L750.882 451.221C749.532 454.952 747.004 462.602 745.118 465.749C739.339 468.74 735.638 467.933 729.094 467.708C721.072 467.912 712.119 467.337 704.303 467.736C700.748 467.34 693.81 467.434 690.001 467.409L664.612 467.286L664.223 466.827Z"/><path fill="#F5F5F2" transform="scale(1.05398 1.05398)" d="M664.223 466.827C669.702 466.684 680.621 467.112 685.328 466.591L685.842 465.527C687.185 465.099 686.56 465.063 687.779 465.472L688.489 466.706C689.232 466.244 689.4 465.96 689.972 465.302C691.255 465.134 690.673 465.007 691.772 465.713L692.097 466.751L692.779 466.698C693.082 466.172 693.191 465.578 693.812 465.602C697.623 465.752 704.676 464.494 707.698 466.817C709.622 465.184 726.772 466.862 729.094 467.708C721.072 467.912 712.119 467.337 704.303 467.736C700.748 467.34 693.81 467.434 690.001 467.409L664.612 467.286L664.223 466.827Z"/><path fill="#FEFEFE" transform="scale(1.05398 1.05398)" d="M664.644 468.587C668.848 468.634 674.914 468.872 678.964 468.631C697.766 469.554 721.54 469.166 740.728 469.37C738.769 477.451 736.565 493.531 735.139 502.404L667.858 501.917C667.612 500.275 667.504 498.609 667.372 496.955C666.615 487.489 665.157 478.071 664.644 468.587Z"/><path fill="#BFBFBF" transform="scale(1.05398 1.05398)" d="M678.493 471.076C680.533 470.704 682 470.637 684.055 470.856L684.472 471.506C682.881 471.97 680.05 471.91 678.493 471.076Z"/></svg>