<?xml version="1.0" encoding="utf-8" ?><svg xmlns="http://www.w3.org/2000/svg" xmlns:xlink="http://www.w3.org/1999/xlink" width="897" height="726" viewBox="0 0 897 726"><path fill="#F9F9F7" transform="scale(0.998886 0.998886)" d="M0 0L898 0L898 727L0 727L0 0Z"/><path fill="#020202" transform="scale(0.998886 0.998886)" d="M441.365 36.5635C458.771 34.82 484.514 48.0791 499.76 55.1241C523.164 65.939 542.866 79.2042 554.557 102.957C562.2 118.485 563.961 133.415 564.882 150.5C565.023 154.273 566.789 161.817 565.33 165.264C563.126 170.472 551.02 175.255 546.023 177.704L546.034 196.629C555.937 199.667 566.705 201.799 576.9 204.289C613.692 213.282 651.422 220.272 685.836 236.685C699.212 243.065 700.756 246.827 708.672 258.895C713.725 266.577 718.678 274.324 723.53 282.136C743.331 314.115 762.196 346.664 780.101 379.743C789.449 397.147 799.31 416.36 806.277 434.846C807.503 438.101 807.678 444.903 806.587 448.154C803.741 456.638 798.598 466.299 794.422 474.401C782.264 497.99 769.468 523.436 754.753 545.524C752.436 548.985 749.892 552.288 747.136 555.412C745.967 556.729 741.053 561.768 740.546 562.926C737.695 569.439 735.753 578.041 734.208 585.056C733.453 588.481 732.981 593.61 731.497 596.453C728.448 598.103 718.439 594.336 715.178 593.244C704.761 589.754 694.684 590.186 683.879 590.106C680.366 590.08 671.494 591.085 669.134 588.629C667.34 583.462 670.772 567.453 669.873 560.647C669.475 555.878 667.712 551.593 666.357 547.036C657.739 518.052 664.319 485.609 670.117 456.774C673.298 441.403 676.579 426.053 679.96 410.725C670.738 411.191 658.247 413.407 648.535 414.495C648.507 441.936 643.118 479.732 639.461 506.991C634.598 543.243 628.457 580.662 620.732 616.407C617.884 629.584 613.419 640.249 610.184 653.261C608.733 659.099 608.003 673.037 605.819 677.797C601.904 679.418 584.947 676.355 581.983 676.094C536.785 672.112 491.6 669.867 446.26 669.607C407.606 669.61 368.967 671.077 330.425 674.006C316.099 675.222 301.851 675.917 287.621 678.133C285.408 678.478 282.602 678.676 280.438 678.104C278.241 675.142 277.042 657.802 275.686 652.636C272.283 639.671 268.003 629.067 265.105 615.786C257.294 579.984 251.617 543.408 246.562 507.136C242.334 476.795 238.195 445.13 237.443 414.542C226.77 413.146 216.848 411.656 206.107 410.709C213.269 445.332 225.713 491.316 223.42 526.159C223.041 532.3 222.04 538.387 220.432 544.326C218.47 551.333 216.857 554.169 216.077 561.781C215.453 567.875 218.904 585.677 216.751 589.187C212.224 590.665 205.251 590.003 200.608 590.054C188.646 590.187 176.608 590.328 165.371 594.943C163.243 595.817 154.581 599.126 153.837 595.362C151.574 583.906 149.39 572.78 145.206 561.783C125.425 545.765 105.866 499.251 92.7025 476.62C88.8458 469.989 76.4084 445.903 78.6256 439.247C87.9918 411.132 103.921 382.839 118.443 356.911C135.146 327.022 152.668 297.597 170.99 268.671C173.316 265.047 185.173 246.288 187.526 244.807C231.494 217.115 291.389 210.316 339.977 196.613L339.958 177.551C334.91 174.882 329.574 172.283 324.849 169.118C320.778 166.391 321.01 161.684 321.57 157.425C322.866 147.58 323.091 137.114 324.765 127.364C327.459 112.268 334.015 98.1265 343.795 86.3161C348.64 80.3921 354.256 75.1433 360.494 70.7093C377.276 58.7686 420.768 38.646 441.365 36.5635Z"/><path fill="#F9F9F7" transform="scale(0.998886 0.998886)" d="M323.8 164.667C323.786 164.545 323.695 163.916 323.703 163.819C325.01 147.001 325.077 127.396 331.414 111.738C335.612 101.363 340.554 93.389 347.382 85.6487C351.849 80.5684 356.908 76.0397 362.449 72.1587C369.352 67.3301 378.978 62.3429 386.63 58.6528C404.062 50.2473 424.615 39.9101 444.168 38.6832C446.712 50.3048 449.552 61.839 447.598 73.6989C447.17 76.297 446.883 79.0619 446.652 81.6873L447.227 81.3768C452.296 69.3233 448.403 51.202 445.442 38.8582C467.302 39.7482 514.657 62.9102 531.076 76.6844C546.576 89.8644 556.938 108.083 560.343 128.142C561.698 135.872 562.365 147.468 563.052 155.496L563.029 156.415C563.47 158.587 563.881 162.096 563.549 164.274L562.96 164.817L562.677 166.307C557.326 169.374 546.742 174.427 542.404 177.322L543.774 178.061L543.622 194.357C543.665 195.04 543.745 197.026 543.841 197.604L545.089 198.185L543.362 200.793C543.765 201.311 544.382 202.018 544.645 202.58C545.96 201.688 545.487 201.956 547.238 201.818C547.368 201.303 546.975 199.778 546.842 199.195C576.178 206.812 605.68 212.614 634.881 220.669C639.51 221.946 652.69 225.406 656.024 227.447C656.4 227.641 656.579 227.803 656.951 227.83C658.76 227.844 658.919 227.964 660.658 228.607C672.598 233.196 686.63 238.078 696.638 246.16C701.167 249.818 704.719 257.592 706.484 263.01C709.112 272.447 706.518 283.089 704.913 292.629C702.589 306.068 700.008 319.461 697.172 332.801C692.24 357.125 687.265 383.987 681.494 408.028C677.613 408.475 654.064 411.027 651.79 412.03L650.058 411.667C648.988 410.567 649.066 409.05 648.873 407.416L647.952 408.097C648.459 412.026 646.784 411.856 646.604 415.201C644.478 454.811 639.38 494.16 633.346 533.376C627.881 568.899 622.683 604.168 612.232 638.621L611.484 640.333C601.039 637.564 584.23 638.352 573.17 636.602C570.397 636.163 557.979 636.438 556.618 634.921L556.978 633.078C560.55 619.307 563.066 603.907 566.492 589.824C564.893 587.191 562.553 582.163 561.107 579.274L550.724 558.524L517.956 493.136C511.53 492.913 504.561 492.946 498.104 493.072C455.683 493.901 412.496 491.976 370.142 493.191C368.648 496.883 365.742 502.248 363.856 506.014L352.122 529.451C342.147 549.388 331.948 570.649 321.561 590.277C323.5 597.58 325.095 605.538 326.737 612.947C328.12 619.191 329.883 626.162 330.864 632.392C331.112 633.761 331.499 634.359 331.003 635.337C326.373 636.272 313.843 636.463 308.271 636.929C304.015 637.341 299.538 637.852 295.285 638.075C290.524 638.549 278.522 639.274 274.696 640.393L273.588 638.035C273.377 636.288 271.117 630.158 270.531 628.065C267 615.44 264.377 602.408 261.999 589.526C257.295 563.749 253.134 537.877 249.52 511.925C245.046 480.523 240.777 448.735 239.898 417.007C239.833 414.657 239.643 414.149 237.839 412.577L237.795 411.325L237.001 409.628L236.301 411.992C235.136 412.611 235.489 412.405 233.795 411.983C224.419 410.468 213.825 409.202 204.364 407.946C204.37 404.482 200.611 390.729 199.705 386.189L185.921 318.44C183.223 305.047 180.747 291.534 178.792 278.004C178.009 272.58 178.165 267.83 179.702 262.579C184.263 247.765 191.095 243.727 204.502 237.78C211.434 234.705 218.168 231.687 225.318 228.984C226.748 228.257 227.11 228.193 228.69 227.793L229.318 227.96L229.894 227.479C234.25 225.07 245.501 222.205 250.76 220.749C268.3 216.02 285.941 211.674 303.671 207.713C311.569 205.942 333.894 201.272 340.726 198.376L341.653 198.033C342.424 193.269 341.156 183.873 342.314 179.949L342.324 178.466L342.109 177.809L343.078 176.739C339.242 174.641 328.273 168.884 325.27 166.565L325.278 165.626C324.652 164.717 325.04 165.121 323.8 164.667Z"/><path fill="#F9F9F7" transform="scale(0.998886 0.998886)" d="M323.8 164.667C323.786 164.545 323.695 163.916 323.703 163.819C325.01 147.001 325.077 127.396 331.414 111.738C335.612 101.363 340.554 93.389 347.382 85.6487C351.849 80.5684 356.908 76.0397 362.449 72.1587C369.352 67.3301 378.978 62.3429 386.63 58.6528C404.062 50.2473 424.615 39.9101 444.168 38.6832C446.712 50.3048 449.552 61.839 447.598 73.6989C447.17 76.297 446.883 79.0619 446.652 81.6873L447.227 81.3768C452.296 69.3233 448.403 51.202 445.442 38.8582C467.302 39.7482 514.657 62.9102 531.076 76.6844C546.576 89.8644 556.938 108.083 560.343 128.142C561.698 135.872 562.365 147.468 563.052 155.496L563.029 156.415C563.47 158.587 563.881 162.096 563.549 164.274L562.96 164.817C556.484 162.146 552.03 162.367 545.167 162.366C535.005 162.365 524.838 162.366 514.676 162.363L441.041 162.354L370.583 162.359C357.698 162.362 335.265 160.988 323.8 164.667Z"/><path fill="#C9C8C8" transform="scale(0.998886 0.998886)" d="M563.029 156.415C557.759 153.565 555.644 153.634 549.816 152.53C555.283 151.978 558.41 153.241 563.052 155.496L563.029 156.415Z"/><path fill="#E7E6E8" transform="scale(0.998886 0.998886)" d="M491.734 152.391C493.556 151.95 513.875 152.12 516.229 152.401L515.888 153.161C508.777 153.152 498.944 153.461 492.056 153.058L491.734 152.391Z"/><path fill="#E7E6E8" transform="scale(0.998886 0.998886)" d="M521.762 152.349C523.982 152.229 542.197 151.99 543.311 152.802C541.822 153.397 524.765 153.251 522.293 153.027L521.762 152.349Z"/><path fill="#E7E6E8" transform="scale(0.998886 0.998886)" d="M441.715 152.389C443.224 152.055 460.409 152.163 462.298 152.424C462.255 152.654 462.313 152.477 461.938 153.095C457.162 153.302 446.725 153.377 442.06 153.055L441.715 152.389Z"/><path fill="#E7E6E8" transform="scale(0.998886 0.998886)" d="M410.59 152.387C412.208 151.826 422.229 152.046 423.866 152.8C422.502 153.526 412.971 153.269 410.946 153.089L410.59 152.387Z"/><path fill="#E7E6E8" transform="scale(0.998886 0.998886)" d="M387.29 152.359C389.608 151.723 394.791 152.311 397.242 152.82L396.967 153.234L395.179 153.103C391.868 153.21 387.047 153.384 383.804 152.82C384.663 152.231 386.067 152.4 387.29 152.359Z"/><path fill="#E7E6E8" transform="scale(0.998886 0.998886)" d="M468.435 152.382C470.039 151.864 478.154 151.984 480.093 152.833C477.551 153.375 471.491 153.333 468.827 153.098L468.435 152.382Z"/><path fill="#E7E6E8" transform="scale(0.998886 0.998886)" d="M333.736 152.389C335.034 151.999 342.309 151.925 343.35 152.795C341.918 153.564 336.144 153.231 334.204 153.09L333.736 152.389Z"/><path fill="#E7E6E8" transform="scale(0.998886 0.998886)" d="M360.577 152.388C362.027 151.973 368.458 152.139 369.935 152.805C368.762 153.559 362.721 153.221 360.96 153.087L360.577 152.388Z"/><path fill="#E7E6E8" transform="scale(0.998886 0.998886)" d="M480.641 152.386C482.035 152.074 488.329 151.959 489.364 152.805C487.99 153.544 482.834 153.206 481.096 153.077L480.641 152.386Z"/><path fill="#E7E6E8" transform="scale(0.998886 0.998886)" d="M425.641 152.345C428.177 152.278 434.57 151.569 436.118 153.211C433.814 153.182 426.887 153.776 425.641 152.345Z"/><path fill="#E7E6E8" transform="scale(0.998886 0.998886)" d="M371.827 152.349C374.172 152.305 380.7 151.716 382.12 153.155C379.024 153.183 375.383 153.312 372.343 153.047L371.827 152.349Z"/><path fill="#E7E6E8" transform="scale(0.998886 0.998886)" d="M399.667 152.392C401.259 152.315 407.575 151.985 408.615 152.798C407.373 153.475 401.686 153.158 399.986 153.045L399.667 152.392Z"/><path fill="#E7E6E8" transform="scale(0.998886 0.998886)" d="M345.732 152.389C347.395 152.324 353.633 152.006 354.696 152.801C353.438 153.436 347.768 153.159 346.051 153.033L345.732 152.389Z"/><path fill="#111" transform="scale(0.998886 0.998886)" d="M323.8 164.667C335.265 160.988 357.698 162.362 370.583 162.359L441.041 162.354L514.676 162.363C524.838 162.366 535.005 162.365 545.167 162.366C552.03 162.367 556.484 162.146 562.96 164.817L562.677 166.307C557.326 169.374 546.742 174.427 542.404 177.322L543.774 178.061L543.622 194.357C543.665 195.04 543.745 197.026 543.841 197.604L545.089 198.185L543.362 200.793C543.765 201.311 544.382 202.018 544.645 202.58C541.675 207.693 537.154 210.511 533.008 214.472C520.429 226.492 505.11 233.224 488.723 238.364C485.483 239.38 474.092 240.801 472.35 241.646C472.822 242.827 475.782 251.684 475.788 252.414L475.273 253.258C470.738 254.245 470.784 244.716 463.821 243.018C456.156 243.534 433.396 244.581 425.979 242.926C418.963 244.998 418.628 253.841 414.538 253.982L414.309 253.681C413.746 250.564 416.245 245.744 417.21 241.82C410.743 241.265 395.346 237.659 389.609 234.949C390.777 233.805 390.923 233.835 392.568 233.419L389.56 232.495C385.697 230.656 381.354 229.125 377.232 227.12C367.597 222.431 360.974 217.343 352.593 210.975C351.959 209.9 344.753 202.925 343.315 201.461C342.439 200.097 342.063 199.259 340.726 198.376L341.653 198.033C342.424 193.269 341.156 183.873 342.314 179.949L342.324 178.466L342.109 177.809L343.078 176.739C339.242 174.641 328.273 168.884 325.27 166.565L325.278 165.626C324.652 164.717 325.04 165.121 323.8 164.667Z"/><path fill="#F9F9F7" transform="scale(0.998886 0.998886)" d="M487.291 163.715L530.281 163.789C538.705 163.765 555.726 162.479 562.677 166.307C557.326 169.374 546.742 174.427 542.404 177.322C540.796 178.009 528.532 186.024 526.164 187.519L468.82 223.569C460.797 228.594 452.568 234.105 444.404 238.893C443.027 239.7 441.749 239.685 440.211 239.512C439.884 237.719 453.129 217.913 455.179 214.651L487.291 163.715Z"/><path fill="#E7E6E8" transform="scale(0.998886 0.998886)" d="M523.873 166.124L524.252 166.408L524.322 166.927C503.432 182.518 480.359 199.785 459.903 215.838L459.499 215.374C460.2 213.91 516.421 171.73 523.873 166.124Z"/><path fill="#F9F9F7" transform="scale(0.998886 0.998886)" d="M325.278 165.626C332.104 163.34 339.5 163.555 346.643 163.712C365.536 164.129 384.714 163.253 403.569 163.706L424.814 201.16C427.278 205.507 433.259 215.41 435.119 219.559C435.655 220.445 435.857 220.709 436.256 221.684C438.477 225.176 443.606 231.311 440.731 235.059C439.036 235.257 352.423 182.198 343.078 176.739C339.242 174.641 328.273 168.884 325.27 166.565L325.278 165.626Z"/><path fill="#C9C8C8" transform="scale(0.998886 0.998886)" d="M436.256 221.684C434.434 220.883 431.552 218.846 429.905 217.59C413.185 204.845 396.382 192.139 379.641 179.429C377.918 178.12 362.162 166.418 361.46 165.616L362.098 165.456C365.45 167.253 376.959 176.436 380.688 179.261L414.616 204.944C420.873 209.677 428.113 215.461 434.53 219.721L435.119 219.559C435.655 220.445 435.857 220.709 436.256 221.684Z"/><path fill="#F9F9F7" transform="scale(0.998886 0.998886)" d="M342.324 178.466C343.96 178.24 360.886 188.887 363.899 190.751C384.775 203.663 406.159 215.954 426.965 228.954C428.297 234.638 428.707 234.687 424.296 238.406C424.023 238.513 423.384 238.761 423.089 238.729C404.485 236.745 379.333 229.537 364.509 218.137C357.091 214.049 347.73 205.119 342.676 198.299C342.176 193.179 342.346 185.294 342.314 179.949L342.324 178.466Z"/><path fill="#E7E6E8" transform="scale(0.998886 0.998886)" d="M364.509 218.137C367.58 218.327 371.575 222.364 374.632 223.235C373.575 222.405 372.909 222.205 372.586 221.164C373.351 220.936 377.856 223.191 379.973 224.294C391.984 230.556 406.083 233.085 418.992 236.355C419.379 236.453 420.039 235.59 421.66 236.135L422.017 236.674L421.446 237.275L421.109 237.269L421.132 237.26C422.687 238.299 422.569 237.617 424.296 238.406C424.023 238.513 423.384 238.761 423.089 238.729C404.485 236.745 379.333 229.537 364.509 218.137Z"/><path fill="#F9F9F7" transform="scale(0.998886 0.998886)" d="M543.774 178.061L543.622 194.357C543.665 195.04 543.745 197.026 543.841 197.604C531.49 217.721 503.312 230.859 481.15 236.116C478.815 236.687 476.442 237.082 474.049 237.298C471.347 237.804 468.634 238.251 465.913 238.641C461.175 235.323 461.601 234.366 462.641 228.999C489.021 212.466 517.204 193.89 543.774 178.061Z"/><path fill="#E7E6E8" transform="scale(0.998886 0.998886)" d="M474.049 237.298C472.439 237.34 471.018 237.636 470.003 236.26C470.941 235.671 483.032 233.244 485.786 232.455C511.791 225.004 527.084 215.344 543.622 194.357C543.665 195.04 543.745 197.026 543.841 197.604C531.49 217.721 503.312 230.859 481.15 236.116C478.815 236.687 476.442 237.082 474.049 237.298Z"/><path fill="#E7E6E8" transform="scale(0.998886 0.998886)" d="M543.362 200.793C543.765 201.311 544.382 202.018 544.645 202.58C541.675 207.693 537.154 210.511 533.008 214.472C520.429 226.492 505.11 233.224 488.723 238.364C485.483 239.38 474.092 240.801 472.35 241.646C471.359 241.083 470.652 240.813 470.026 239.867C469.852 240.023 490.306 234.99 492.751 234.193C513.578 227.405 529.113 217.347 543.362 200.793Z"/><path fill="#E7E6E8" transform="scale(0.998886 0.998886)" d="M425.979 242.926C427.466 242.336 429.369 240.721 430.569 240.787C440.448 241.334 450.529 240.65 460.32 240.739C461.425 241.594 462.514 242.592 463.821 243.018C456.156 243.534 433.396 244.581 425.979 242.926Z"/><path fill="#E7E6E8" transform="scale(0.998886 0.998886)" d="M392.568 233.419C401.467 236.221 411.197 238.802 420.475 239.826C419.873 240.177 417.583 241.45 417.21 241.82C410.743 241.265 395.346 237.659 389.609 234.949C390.777 233.805 390.923 233.835 392.568 233.419Z"/><path fill="#C9C8C8" transform="scale(0.998886 0.998886)" d="M405.297 163.745L445.007 163.707L445.019 206.149C445.022 211.364 445.744 226.33 443.94 230.466L443.398 230.59C442.644 230.104 406.867 168.041 405.297 163.745Z"/><path fill="#C9C8C8" transform="scale(0.998886 0.998886)" d="M445.901 163.695C458.776 164.024 472.782 163.765 485.716 163.688L461.497 202.147C456.247 210.37 451.049 218.626 445.903 226.915C445.664 207.07 445.338 183.385 445.901 163.695Z"/><path fill="#E7E6E8" transform="scale(0.998886 0.998886)" d="M429.148 230.226C437.821 234.653 426.744 241.308 422.331 242.968C420.792 243.547 420.451 245.403 419.939 246.924C418.202 245.426 418.183 245.873 417.841 244.03C419.134 240.436 424.952 240.174 427.773 237.192C429.769 235.082 429.166 233.051 429.148 230.226Z"/><path fill="#F9F9F7" transform="scale(0.998886 0.998886)" d="M460.013 230.497L460.614 230.778C459.212 240.933 469.597 238.739 471.799 243.956C471.642 245.758 471.756 245.138 470.565 246.775C469.266 245.895 468.903 244.66 468.208 243.193C463.496 241.5 452.798 236.025 460.013 230.497Z"/><path fill="#E7E6E8" transform="scale(0.998886 0.998886)" d="M451.377 236.096C453.147 234.926 454.155 233.789 455.958 233.794C456.783 234.751 456.803 235.501 457.058 236.743C457.585 237.648 457.92 237.995 457.827 239.032C456.234 240.387 448.575 239.926 445.825 239.945C447.472 238.528 449.536 237.291 451.377 236.096Z"/><path fill="#F9F9F7" transform="scale(0.998886 0.998886)" d="M451.377 236.096C453.147 234.926 454.155 233.789 455.958 233.794C456.783 234.751 456.803 235.501 457.058 236.743C454.102 237.546 453.583 238.296 451.377 236.096Z"/><path fill="#F9F9F7" transform="scale(0.998886 0.998886)" d="M433.563 232.998C437.562 235.014 439.934 235.042 438.052 239.55C436.083 239.611 433.088 240.248 432.093 238.461C432.456 236.48 432.975 234.91 433.563 232.998Z"/><path fill="#F9F9F7" transform="scale(0.998886 0.998886)" d="M656.024 227.447C656.4 227.641 656.579 227.803 656.951 227.83C658.76 227.844 658.919 227.964 660.658 228.607C672.598 233.196 686.63 238.078 696.638 246.16C701.167 249.818 704.719 257.592 706.484 263.01C709.112 272.447 706.518 283.089 704.913 292.629C702.589 306.068 700.008 319.461 697.172 332.801C692.24 357.125 687.265 383.987 681.494 408.028C677.613 408.475 654.064 411.027 651.79 412.03L650.058 411.667C648.988 410.567 649.066 409.05 648.873 407.416L647.952 408.097C645.026 386.781 646.075 366.443 645.141 345.302C645.255 343.894 645.161 341.94 645.14 340.482C645.367 338.154 645.408 335.216 645.383 332.845C645.235 318.706 646.864 304.522 647.238 290.447C647.95 285.044 648.271 279.077 648.846 273.587C649.978 262.399 651.493 251.252 653.387 240.167C654.051 236.406 654.747 230.9 656.024 227.447Z"/><path fill="#111" transform="scale(0.998886 0.998886)" d="M656.024 227.447C656.4 227.641 656.579 227.803 656.951 227.83C656.757 231.116 655.347 236.224 654.816 239.755C653.231 250.309 650.683 263.029 650.156 273.702L650.198 274.149C648.353 282.19 647.725 306.955 647.306 316.208C646.486 339.877 646.115 363.691 647.564 387.35C647.675 389.159 647.695 391.115 647.947 392.898C648.025 394.271 648.079 396.751 648.413 397.987L648.646 404.285L648.873 407.416L647.952 408.097C645.026 386.781 646.075 366.443 645.141 345.302C645.255 343.894 645.161 341.94 645.14 340.482C645.367 338.154 645.408 335.216 645.383 332.845C645.235 318.706 646.864 304.522 647.238 290.447C647.95 285.044 648.271 279.077 648.846 273.587C649.978 262.399 651.493 251.252 653.387 240.167C654.051 236.406 654.747 230.9 656.024 227.447Z"/><defs><linearGradient id="gradient_0" gradientUnits="userSpaceOnUse" x1="656.1001" y1="249.95126" x2="653.65662" y2="249.55339"><stop offset="0" stop-color="#C5C7C9"/><stop offset="1" stop-color="#FFFEFF"/></linearGradient></defs><path fill="url(#gradient_0)" transform="scale(0.998886 0.998886)" d="M656.951 227.83C658.76 227.844 658.919 227.964 660.658 228.607C658.985 231.374 653.269 262.067 653.639 264.027C653.47 266.035 653.123 268.024 652.603 269.971C652.276 271.012 652.406 271.64 652.542 272.686C651.523 273.635 651.727 273.349 650.156 273.702C650.683 263.029 653.231 250.309 654.816 239.755C655.347 236.224 656.757 231.116 656.951 227.83Z"/><path fill="#C9C8C8" transform="scale(0.998886 0.998886)" d="M653.639 264.027C653.47 266.035 653.123 268.024 652.603 269.971C651.921 268.481 652.242 265.177 653.639 264.027Z"/><path fill="#E7E6E8" transform="scale(0.998886 0.998886)" d="M650.198 274.149C650.873 274.831 651.093 274.974 652.003 275.278C652.276 278.174 650.56 294.331 650.428 299.634L649.355 300.74C649.608 304.451 649.999 307.86 649.52 311.547L648.34 312.408L648.382 312.878C649.662 313.87 649.334 313.259 649.661 314.606C648.861 315.983 649.199 315.533 647.306 316.208C647.725 306.955 648.353 282.19 650.198 274.149Z"/><path fill="#E7E6E8" transform="scale(0.998886 0.998886)" d="M647.947 392.898C648.039 389.954 647.477 385.039 649.235 383.115C649.89 383.838 649.674 383.821 649.769 385.041C649.155 385.97 649.143 385.916 648.229 386.58L648.65 387.128L649.651 387.243C650.332 389.25 650.976 395.848 649.45 397.496C650.516 399.359 650.666 398.635 650.824 400.56L650.275 400.93C649.278 399.77 649.123 399.371 648.413 397.987C648.079 396.751 648.025 394.271 647.947 392.898Z"/><path fill="#E7E6E8" transform="scale(0.998886 0.998886)" d="M648.646 404.285L649.989 402.841C652.236 403.901 651.337 409.443 651.79 412.03L650.058 411.667C648.988 410.567 649.066 409.05 648.873 407.416L648.646 404.285Z"/><path fill="#E7E6E8" transform="scale(0.998886 0.998886)" d="M647.191 329.518C647.502 329.981 647.901 332.535 648.093 333.329L648.274 332.786C650.149 338.98 647.882 344.805 648.735 350.664L648.285 350.99L648.757 351.74C649.093 353.566 649.244 352.999 648.644 354.543L647.575 354.943L648.232 354.912L647.489 354.809C646.822 352.957 647.178 332.771 647.191 329.518Z"/><path fill="#E7E6E8" transform="scale(0.998886 0.998886)" d="M647.191 355.865C647.537 356.714 647.622 357.756 647.77 358.693C647.863 357.44 647.792 357.48 648.412 356.41L648.883 356.796C649.097 359.268 649.323 364.609 648.573 366.851C649.125 368.201 649.065 368.301 648.903 369.798L648.575 369.987C646.953 366.957 647.178 359.411 647.191 355.865Z"/><path fill="#F9F9F7" transform="scale(0.998886 0.998886)" d="M228.69 227.793L229.318 227.96L229.894 227.479C230.699 229.263 230.83 229.928 231.253 231.855C236.694 266.016 239.718 291.397 240.471 326.351C240.69 335.081 240.757 343.814 240.67 352.546C240.63 356.778 240.285 363.414 240.458 367.324C240.207 379.976 239.797 398.998 237.795 411.325L237.001 409.628L236.301 411.992C235.136 412.611 235.489 412.405 233.795 411.983C224.419 410.468 213.825 409.202 204.364 407.946C204.37 404.482 200.611 390.729 199.705 386.189L185.921 318.44C183.223 305.047 180.747 291.534 178.792 278.004C178.009 272.58 178.165 267.83 179.702 262.579C184.263 247.765 191.095 243.727 204.502 237.78C211.434 234.705 218.168 231.687 225.318 228.984C226.748 228.257 227.11 228.193 228.69 227.793Z"/><path fill="#111" transform="scale(0.998886 0.998886)" d="M228.69 227.793L229.318 227.96L229.894 227.479C230.699 229.263 230.83 229.928 231.253 231.855C236.694 266.016 239.718 291.397 240.471 326.351C240.69 335.081 240.757 343.814 240.67 352.546C240.63 356.778 240.285 363.414 240.458 367.324C240.207 379.976 239.797 398.998 237.795 411.325L237.001 409.628C237.932 390.107 239.962 370.849 239.508 351.15C239.351 344.319 239.725 337.47 239.014 330.602C239.056 326.45 239.092 320.52 238.564 316.443C238.538 290.903 235.349 264.613 231.236 239.426C230.594 235.492 229.746 231.639 228.69 227.793Z"/><path fill="#E7E6E8" transform="scale(0.998886 0.998886)" d="M228.69 227.793C229.746 231.639 230.594 235.492 231.236 239.426C235.349 264.613 238.538 290.903 238.564 316.443C237.806 314.8 237.49 309.578 237.302 307.574L237.086 311.862C235.657 307.066 236.756 299.579 235.309 294.412C234.038 289.872 235.712 291.419 236.343 289.383C235.652 289.107 235.569 289.063 234.937 288.722C234.503 285.724 233.069 271.577 233.216 269.134C232.854 268.35 232.387 265.04 232.21 263.985C231.142 258.89 230.693 253.128 229.934 247.964C229.375 246.223 226.312 231.062 226.379 229.492L225.318 228.984C226.748 228.257 227.11 228.193 228.69 227.793Z"/><path fill="#C9C8C8" transform="scale(0.998886 0.998886)" d="M226.379 229.492C227.833 231.663 230.598 245.742 229.934 247.964C229.375 246.223 226.312 231.062 226.379 229.492Z"/><path fill="#C9C8C8" transform="scale(0.998886 0.998886)" d="M232.21 263.985L232.942 264.025C233.524 265.476 233.503 266.947 233.617 268.526L233.216 269.134C232.854 268.35 232.387 265.04 232.21 263.985Z"/><path fill="#E7E6E8" transform="scale(0.998886 0.998886)" d="M233.795 411.983L234.045 411.783C236.19 407.576 236.979 364.392 237.346 356.687L237.791 356.754C238.046 357.548 238.323 358.334 238.504 359.148L238.891 358.875C239.045 353.459 239.675 348.21 238.057 342.959C237.149 340.012 236.057 331.999 237.592 329.282L238.15 329.693L238.536 335.519C238.796 334.103 238.895 332.083 239.014 330.602C239.725 337.47 239.351 344.319 239.508 351.15C239.962 370.849 237.932 390.107 237.001 409.628L236.301 411.992C235.136 412.611 235.489 412.405 233.795 411.983Z"/><path fill="#E7E6E8" transform="scale(0.998886 0.998886)" d="M546.842 199.195C576.178 206.812 605.68 212.614 634.881 220.669C639.51 221.946 652.69 225.406 656.024 227.447C654.747 230.9 654.051 236.406 653.387 240.167C651.493 251.252 649.978 262.399 648.846 273.587C648.271 279.077 647.95 285.044 647.238 290.447C646.937 285.359 645.716 286.33 645.472 282.584C645.199 277.688 646.877 272.383 647.124 267.645C647.638 257.75 648.646 248.228 650.979 238.572C651.636 235.85 652.347 232.883 652.507 230.08C651.636 228.742 648.212 227.927 646.589 227.448C618.245 219.072 589.484 212.6 560.752 205.732C556.666 204.755 551.584 203.627 547.749 202.035L547.238 201.818C547.368 201.303 546.975 199.778 546.842 199.195Z"/><path fill="#E7E6E8" transform="scale(0.998886 0.998886)" d="M340.726 198.376C342.063 199.259 342.439 200.097 343.315 201.461L340.409 201.271C333.737 203.851 324.977 205.84 317.933 207.475C291.491 213.616 264.976 219.719 238.992 227.616C237.408 228.098 234.785 228.614 233.474 229.401C233.507 230.251 233.536 230.717 233.269 231.528C232.819 231.188 232.369 230.907 231.865 230.654C231.59 231.131 231.42 231.339 231.253 231.855C230.83 229.928 230.699 229.263 229.894 227.479C234.25 225.07 245.501 222.205 250.76 220.749C268.3 216.02 285.941 211.674 303.671 207.713C311.569 205.942 333.894 201.272 340.726 198.376Z"/><path fill="#E7E6E8" transform="scale(0.998886 0.998886)" d="M556.978 633.078C565.131 632.607 577.335 634.724 585.788 635.265C590.898 635.593 608.771 636.525 612.232 638.621L611.484 640.333C601.039 637.564 584.23 638.352 573.17 636.602C570.397 636.163 557.979 636.438 556.618 634.921L556.978 633.078Z"/><path fill="#E7E6E8" transform="scale(0.998886 0.998886)" d="M352.593 210.975C360.974 217.343 367.597 222.431 377.232 227.12C381.354 229.125 385.697 230.656 389.56 232.495C385.356 232.189 383.272 229.452 379.345 230.859C370.786 228.021 359.115 219.407 352.24 213.636C353.482 213.782 352.941 213.907 353.948 213.448C353.508 212.544 353.095 211.835 352.593 210.975Z"/><path fill="#E7E6E8" transform="scale(0.998886 0.998886)" d="M330.864 632.392C331.112 633.761 331.499 634.359 331.003 635.337C326.373 636.272 313.843 636.463 308.271 636.929C305.878 636.407 301.99 637.302 300.258 635.911C302.136 634.399 326.219 633.439 330.327 633.081L330.864 632.392Z"/><path fill="#E7E6E8" transform="scale(0.998886 0.998886)" d="M645.141 345.302C644.889 350.47 645.844 366.364 643.896 369.372L643.458 369.246C643.978 366.962 643.007 363.976 643.155 360.852C643.587 351.682 642.759 337.47 643.955 328.721C645.103 330.423 645.097 338.265 645.14 340.482C645.161 341.94 645.255 343.894 645.141 345.302Z"/><path fill="#E7E6E8" transform="scale(0.998886 0.998886)" d="M240.471 326.351C241.131 327.191 240.993 327.954 241.014 329.057L242.215 329.111C242.986 330.385 242.701 336.859 242.563 338.543C242.14 338.46 241.744 338.398 241.314 338.375C241.314 339.752 241.093 339.199 241.698 340.196L241.322 339.461L241.363 340.92L241.872 340.103L242.493 340.25C242.787 341.315 242.962 341.408 242.569 342.39L241.386 342.943C241.409 345.525 243.493 345.534 242.674 350.124L242.069 350.544L241.458 350.133C241.469 349.53 241.616 348.333 241.349 347.967C241.202 351.204 240.781 356.395 241.349 359.398C242.026 358.394 242.058 357.705 242.373 356.487C242.815 359.456 243.625 362.855 241.617 365.466L241.326 365.192C239.921 366.963 241.705 365.893 240.458 367.324C240.285 363.414 240.63 356.778 240.67 352.546C240.757 343.814 240.69 335.081 240.471 326.351Z"/><path fill="#E7E6E8" transform="scale(0.998886 0.998886)" d="M273.588 638.035C278.779 637.394 284.936 636.106 290.063 636.507C288.863 636.844 288.123 636.946 287.135 637.72L287.274 637.952C290.533 637.687 292.118 637.43 295.285 638.075C290.524 638.549 278.522 639.274 274.696 640.393L273.588 638.035Z"/><path fill="#E7E6E8" transform="scale(0.998886 0.998886)" d="M343.315 201.461C344.753 202.925 351.959 209.9 352.593 210.975C353.095 211.835 353.508 212.544 353.948 213.448C352.941 213.907 353.482 213.782 352.24 213.636C348.536 211.839 343.082 202.577 340.409 201.271L343.315 201.461Z"/><defs><linearGradient id="gradient_1" gradientUnits="userSpaceOnUse" x1="385.0065" y1="233.12021" x2="385.72491" y2="231.48193"><stop offset="0" stop-color="#CDCBD2"/><stop offset="1" stop-color="#F1F0EF"/></linearGradient></defs><path fill="url(#gradient_1)" transform="scale(0.998886 0.998886)" d="M379.345 230.859C383.272 229.452 385.356 232.189 389.56 232.495L392.568 233.419C390.923 233.835 390.777 233.805 389.609 234.949C386.044 233.808 382.775 232.336 379.345 230.859Z"/><path fill="#020202" transform="scale(0.998886 0.998886)" d="M348.511 408.833C350.494 408.812 351.185 408.706 353.117 409.279L353.318 409.982L352.567 410.608C350.96 410.687 348.446 410.889 347.153 409.84L347.313 409.204L348.511 408.833Z"/><path fill="#020202" transform="scale(0.998886 0.998886)" d="M396.96 408.8C398.887 408.818 399.939 408.711 401.789 409.305L401.993 409.968L401.239 410.61C399.652 410.674 397.037 410.911 395.797 409.893L395.905 409.341L396.96 408.8Z"/><path fill="#020202" transform="scale(0.998886 0.998886)" d="M518.495 408.812C520.401 408.841 521.372 408.745 523.204 409.336L523.415 409.973L522.689 410.578C520.811 410.669 518.947 410.812 517.258 409.994L517.287 409.377L518.495 408.812Z"/><path fill="#020202" transform="scale(0.998886 0.998886)" d="M361.601 408.855C363.379 408.923 364.006 408.778 365.436 409.689L365.258 410.294L364.045 410.618C362.2 410.685 360.702 410.926 359.252 409.689C360.063 408.839 360.125 409.093 361.601 408.855Z"/><path fill="#020202" transform="scale(0.998886 0.998886)" d="M385.405 408.824C387.204 408.872 388.107 408.748 389.727 409.536L389.757 410.129L388.599 410.621C386.836 410.682 385.157 410.845 383.659 409.833L383.879 409.267L385.405 408.824Z"/><path fill="#020202" transform="scale(0.998886 0.998886)" d="M531.679 408.851C533.181 408.848 534.311 408.818 535.49 409.719L535.157 410.348L533.73 410.692C532.255 410.709 530.423 410.882 529.348 409.664C530.194 408.829 530.213 409.081 531.679 408.851Z"/><path fill="#020202" transform="scale(0.998886 0.998886)" d="M495.064 408.831C496.6 408.854 497.794 408.788 499.037 409.703L498.751 410.289L497.336 410.702C495.821 410.72 493.966 410.871 492.901 409.665C493.831 408.836 493.631 409.09 495.064 408.831Z"/><path fill="#020202" transform="scale(0.998886 0.998886)" d="M431.753 409.319C434.254 408.787 437.038 408.226 438.849 410.214C436.08 410.731 433.875 411.324 431.753 409.319Z"/><path fill="#020202" transform="scale(0.998886 0.998886)" d="M419.663 409.315C422.262 408.733 424.731 408.269 426.716 410.207C424.112 410.677 421.531 411.388 419.663 409.315Z"/><path fill="#020202" transform="scale(0.998886 0.998886)" d="M456.016 409.313C458.619 408.738 461.114 408.258 463.093 410.216C460.459 410.689 457.924 411.374 456.016 409.313Z"/><path fill="#020202" transform="scale(0.998886 0.998886)" d="M468.125 409.323C470.613 408.805 473.403 408.212 475.204 410.212C472.43 410.748 470.255 411.302 468.125 409.323Z"/><path fill="#020202" transform="scale(0.998886 0.998886)" d="M542.55 404.489L543.227 405.084C543.86 407.364 543.654 408.93 543.115 411.223C542.51 410.839 542.367 410.685 541.824 410.216C541.557 408.352 542.151 406.382 542.55 404.489Z"/><path fill="#020202" transform="scale(0.998886 0.998886)" d="M542.38 331.671L543.32 332.355C543.871 334.402 543.571 336.262 543.423 338.4C541.188 337.328 542.088 333.726 542.38 331.671Z"/><path fill="#020202" transform="scale(0.998886 0.998886)" d="M542.331 343.869L543.335 344.598C543.867 346.678 543.527 348.485 543.331 350.643L542.384 349.829C541.766 347.688 542.109 346.098 542.331 343.869Z"/><path fill="#020202" transform="scale(0.998886 0.998886)" d="M542.276 319.753L543.248 320.355C543.886 322.113 543.588 324.188 543.496 326.12L542.336 325.472C541.72 323.566 542.085 321.789 542.276 319.753Z"/><path fill="#020202" transform="scale(0.998886 0.998886)" d="M542.729 355.838L543.368 356.571C543.739 358.497 543.74 360.965 543.091 362.832C541.448 361.069 541.918 357.9 542.729 355.838Z"/><path fill="#020202" transform="scale(0.998886 0.998886)" d="M542.306 307.477L543.255 308.087C543.929 310.245 543.585 311.883 543.198 314.11L542.323 313.28C541.809 311.267 542.123 309.564 542.306 307.477Z"/><path fill="#020202" transform="scale(0.998886 0.998886)" d="M342.741 291.747C343.245 292.105 343.304 292.25 343.716 292.723C344.147 294.96 343.839 296.392 343.551 298.645L342.649 297.664C342.189 295.209 342.427 294.217 342.741 291.747Z"/><path fill="#020202" transform="scale(0.998886 0.998886)" d="M542.365 282.942C543.117 283.406 542.876 283.248 543.451 283.974C543.778 286.415 543.588 287.186 543.234 289.607L542.306 288.738C541.801 286.714 542.147 285.034 542.365 282.942Z"/><path fill="#C9C8C8" transform="scale(0.998886 0.998886)" d="M235.991 247.621C237.709 248.936 237.944 256.101 238.008 258.364C236.909 257.258 236.272 249.718 235.991 247.621Z"/><path fill="#020202" transform="scale(0.998886 0.998886)" d="M342.77 352.722C343.048 352.925 343.456 353.399 343.711 353.671C344.144 355.886 343.84 357.342 343.554 359.547C341.693 357.966 342.45 354.943 342.77 352.722Z"/><path fill="#020202" transform="scale(0.998886 0.998886)" d="M542.326 295.2L543.153 295.668C544.005 297.47 543.507 299.882 543.219 301.861L542.436 301.167C541.784 299.244 542.14 297.233 542.326 295.2Z"/><path fill="#020202" transform="scale(0.998886 0.998886)" d="M542.473 368.119L543.311 368.784C543.829 370.804 543.539 372.691 543.398 374.795C541.26 373.64 542.136 370.128 542.473 368.119Z"/><path fill="#020202" transform="scale(0.998886 0.998886)" d="M542.419 380.342L543.324 381.053C543.862 383.016 543.515 384.976 543.309 387.004C541.28 385.589 542.124 382.5 542.419 380.342Z"/><path fill="#020202" transform="scale(0.998886 0.998886)" d="M342.793 279.523C344.587 280.835 343.823 284.365 343.562 286.35C341.68 284.727 342.449 281.773 342.793 279.523Z"/><path fill="#020202" transform="scale(0.998886 0.998886)" d="M342.596 364.969L343.605 365.564C344.183 367.705 343.823 369.363 343.586 371.582C343.329 371.451 342.895 371.079 342.646 370.884C342.202 368.908 342.467 367.01 342.596 364.969Z"/><path fill="#020202" transform="scale(0.998886 0.998886)" d="M542.378 392.537C542.907 392.872 542.941 392.969 543.389 393.416C543.808 395.833 543.568 396.798 543.238 399.222L542.443 398.511C541.794 396.583 542.171 394.573 542.378 392.537Z"/><path fill="#020202" transform="scale(0.998886 0.998886)" d="M342.572 328.547C342.881 328.669 343.319 328.976 343.62 329.165C344.167 331.279 343.838 332.765 343.599 334.937L342.683 334.387C342.19 332.514 342.461 330.517 342.572 328.547Z"/><path fill="#C9C8C8" transform="scale(0.998886 0.998886)" d="M239.091 274.739L239.805 275.303C240.468 277.175 240.433 281.711 240.569 283.994L239.969 283.895C239.527 280.928 239.332 277.745 239.091 274.739Z"/><path fill="#020202" transform="scale(0.998886 0.998886)" d="M342.608 304.031L343.595 304.615C344.177 306.736 343.833 308.284 343.596 310.479L342.67 309.857C342.189 307.961 342.476 306.016 342.608 304.031Z"/><path fill="#020202" transform="scale(0.998886 0.998886)" d="M342.949 376.962L343.675 377.795C344.116 380.026 343.817 381.503 343.55 383.755L342.82 383.059C342.104 380.824 342.357 379.217 342.949 376.962Z"/><path fill="#020202" transform="scale(0.998886 0.998886)" d="M342.586 316.281C342.89 316.404 343.315 316.703 343.612 316.889C344.158 319.009 343.827 320.534 343.593 322.715L342.674 322.129C342.201 320.236 342.47 318.261 342.586 316.281Z"/><path fill="#020202" transform="scale(0.998886 0.998886)" d="M342.72 401.368L343.423 401.889C344.298 403.638 343.797 406.129 343.504 408.044L342.662 407.235C342.175 405.119 342.481 403.501 342.72 401.368Z"/><path fill="#020202" transform="scale(0.998886 0.998886)" d="M342.811 389.156L343.678 390.068C344.111 392.282 343.826 393.69 343.553 395.895C341.709 394.669 342.501 391.106 342.811 389.156Z"/><path fill="#020202" transform="scale(0.998886 0.998886)" d="M342.596 340.856L343.609 341.448C344.166 343.373 343.879 345.145 343.746 347.171L342.733 346.614C342.136 344.811 342.465 342.807 342.596 340.856Z"/><path fill="#C9C8C8" transform="scale(0.998886 0.998886)" d="M233.123 232.64C234.874 234.275 235.338 240.437 235.748 243.182C234.369 241.204 233.617 235.331 233.123 232.64Z"/><path fill="#020202" transform="scale(0.998886 0.998886)" d="M403.52 276.001C405.628 275.594 408.657 275.02 410.222 276.642C409.512 276.737 408.802 276.825 408.091 276.906C405.78 277.164 405.159 277.302 403.52 276.001Z"/><path fill="#020202" transform="scale(0.998886 0.998886)" d="M537.105 276.004C539.464 275.616 542.132 275.007 543.91 276.767C541.577 277.273 539.199 277.2 537.105 276.004Z"/><path fill="#020202" transform="scale(0.998886 0.998886)" d="M391.488 275.979C393.246 275.653 395.855 275.367 397.554 275.963L397.586 276.739C395.409 276.947 393.111 277.581 391.488 275.979Z"/><path fill="#020202" transform="scale(0.998886 0.998886)" d="M342.604 275.992C344.508 275.648 348.035 275.111 349.458 276.468C346.729 276.978 344.979 277.559 342.604 275.992Z"/><path fill="#020202" transform="scale(0.998886 0.998886)" d="M464.358 276.006C466.576 275.622 469.383 275.061 471.132 276.589C468.551 276.942 466.427 277.547 464.358 276.006Z"/><path fill="#020202" transform="scale(0.998886 0.998886)" d="M452.131 276.004C454.283 275.638 457.309 275.013 458.9 276.648C456.268 276.947 454.351 277.437 452.131 276.004Z"/><path fill="#020202" transform="scale(0.998886 0.998886)" d="M415.66 276.001C417.843 275.626 420.719 275.07 422.44 276.566C419.867 276.947 417.791 277.545 415.66 276.001Z"/><path fill="#020202" transform="scale(0.998886 0.998886)" d="M439.778 276.014C441.855 275.767 445.248 275.023 446.834 276.467C444.042 276.967 442.389 277.374 439.778 276.014Z"/><path fill="#020202" transform="scale(0.998886 0.998886)" d="M354.79 275.996C356.896 275.639 359.987 275.043 361.546 276.627C358.89 276.943 357.044 277.435 354.79 275.996Z"/><path fill="#020202" transform="scale(0.998886 0.998886)" d="M379.026 276.014C379.947 275.895 380.87 275.79 381.794 275.698C383.53 275.537 384.69 275.416 385.958 276.466C383.26 276.935 381.462 277.453 379.026 276.014Z"/><path fill="#020202" transform="scale(0.998886 0.998886)" d="M524.975 275.998C526.83 275.678 530.456 275.116 531.832 276.469C529.136 276.913 527.299 277.493 524.975 275.998Z"/><path fill="#020202" transform="scale(0.998886 0.998886)" d="M476.323 276.01C477.192 275.894 478.064 275.793 478.937 275.706C480.73 275.538 482.033 275.417 483.335 276.501C480.513 276.965 478.904 277.383 476.323 276.01Z"/><path fill="#020202" transform="scale(0.998886 0.998886)" d="M500.65 276.01C502.751 275.686 505.976 275.04 507.537 276.59C504.919 276.962 503.043 277.347 500.65 276.01Z"/><path fill="#020202" transform="scale(0.998886 0.998886)" d="M427.707 276.005C428.562 275.892 429.419 275.792 430.278 275.706C432.052 275.54 433.367 275.413 434.656 276.483C431.884 276.967 430.231 277.4 427.707 276.005Z"/><path fill="#020202" transform="scale(0.998886 0.998886)" d="M366.918 276.006C369.197 275.712 371.966 275.003 373.769 276.562C371.177 276.922 369.213 277.388 366.918 276.006Z"/><path fill="#020202" transform="scale(0.998886 0.998886)" d="M512.732 276.014C515.263 275.676 517.701 275.179 519.966 276.451C517.089 276.934 515.414 277.374 512.732 276.014Z"/><path fill="#020202" transform="scale(0.998886 0.998886)" d="M488.576 276.003C490.792 275.606 493.47 275.438 495.635 276.14C493.517 277.197 490.619 277.279 488.576 276.003Z"/><path fill="#F9F9F7" transform="scale(0.998886 0.998886)" d="M370.889 494.766L469.466 494.736L499.802 494.736C505.112 494.736 512.006 494.923 517.19 494.574C520.517 501.372 560.162 579.875 560.023 580.994L562.132 584.075C563.489 586.846 563.908 587.896 564.895 590.751C561.694 604.359 559.152 619.603 555.667 632.99C555.381 634.052 555.368 634.443 554.609 635.256C552.301 635.455 546.862 634.948 544.348 634.783C537.782 634.322 531.213 633.927 524.639 633.596C514.757 633.159 504.872 632.796 494.985 632.507C489.468 632.35 482.635 632.402 477.297 631.905C467.351 632.38 453.999 631.559 443.755 631.54C425.744 631.639 407.735 631.952 389.732 632.478C384.354 632.915 378.424 633.012 372.991 633.203C361.659 633.609 350.335 634.236 339.026 635.085C337.606 635.231 335.069 635.269 333.569 635.334C330.085 626.136 328.925 612.697 326.034 603.007C325.194 600.193 326.151 601.018 326.245 598.598L325.65 598.806L325.167 598.484C323.243 590.923 322.433 592.099 325.346 585.685C326.081 584.218 327.265 582.386 328.135 580.948C328.775 578.421 336.529 563.659 338.175 560.405L359.631 517.617C362.799 511.291 368.346 501.023 370.889 494.766Z"/><path fill="#F9F9F7" transform="scale(0.998886 0.998886)" d="M325.346 585.685L327.633 586.137C329.573 590.115 327.858 593.162 328.755 594.129L329.501 594.083C330.632 596.168 338.396 631.145 339.026 635.085C337.606 635.231 335.069 635.269 333.569 635.334C330.085 626.136 328.925 612.697 326.034 603.007C325.194 600.193 326.151 601.018 326.245 598.598L325.65 598.806L325.167 598.484C323.243 590.923 322.433 592.099 325.346 585.685Z"/><path fill="#E7E6E8" transform="scale(0.998886 0.998886)" d="M528.661 631.519C533.28 630.912 543.991 633.352 548.621 631.726C548.987 631.597 549.192 630.016 549.282 629.409L549.882 629.171C550.208 630.465 550.098 630.96 550.004 632.266C551.075 632.9 554.392 633.127 555.667 632.99C555.381 634.052 555.368 634.443 554.609 635.256C552.301 635.455 546.862 634.948 544.348 634.783C537.782 634.322 531.213 633.927 524.639 633.596C514.757 633.159 504.872 632.796 494.985 632.507C489.468 632.35 482.635 632.402 477.297 631.905C481.367 631.261 491.175 632.168 492.941 631.717C493.114 630.747 493.017 630.663 493.688 629.987C495.616 629.8 515.343 630.299 516.866 630.711C519.1 630.836 526.915 631.047 528.661 631.519Z"/><defs><linearGradient id="gradient_2" gradientUnits="userSpaceOnUse" x1="521.35168" y1="630.96368" x2="521.34863" y2="632.30054"><stop offset="0" stop-color="#D4D5D4"/><stop offset="1" stop-color="#FAFAFB"/></linearGradient></defs><path fill="url(#gradient_2)" transform="scale(0.998886 0.998886)" d="M528.661 631.519C526.808 633.309 517.761 633.615 516.382 631.873L516.866 630.711C519.1 630.836 526.915 631.047 528.661 631.519Z"/><path fill="#E7E6E8" transform="scale(0.998886 0.998886)" d="M328.135 580.948C327.946 583.446 328.458 587.503 329.591 589.672C330.503 589.109 330.896 588.429 331.54 587.571L332.025 587.792C331.651 588.846 330.145 592.007 330.303 592.801C331.971 601.206 334.332 609.505 336.342 617.843C337.379 622.146 337.772 628.457 339.92 632.198C343.902 633.127 351.002 631.193 352.595 632.179L353.014 633.704C354.187 633.903 353.638 633.992 354.703 633.371L354.388 631.81C356.08 630.971 370.58 630.655 372.805 631.129L372.991 633.203C361.659 633.609 350.335 634.236 339.026 635.085C338.396 631.145 330.632 596.168 329.501 594.083L328.755 594.129C327.858 593.162 329.573 590.115 327.633 586.137L325.346 585.685C326.081 584.218 327.265 582.386 328.135 580.948Z"/><path fill="#E7E6E8" transform="scale(0.998886 0.998886)" d="M372.805 631.129C374.235 630.235 387.827 629.791 390.038 629.941L390.771 630.391L390.772 631.714C389.822 631.829 389.685 631.769 388.826 632.103L389.732 632.478C384.354 632.915 378.424 633.012 372.991 633.203L372.805 631.129Z"/><path fill="#C9C8C8" transform="scale(0.998886 0.998886)" d="M562.132 584.075C561.261 584.895 560.375 585.7 559.475 586.49C559.121 585.705 559.87 582.994 559.992 581.421L560.023 580.994L562.132 584.075Z"/><path fill="#C9C8C8" transform="scale(0.998886 0.998886)" d="M375.384 500.724C421.011 500.772 467.289 501.199 512.857 500.64C515.496 504.218 555.879 584.01 556.38 586.626L555.898 586.602C553.873 583.959 553.051 580.142 551.126 577.644C542.922 560.079 533.29 542.816 524.83 525.342C521.038 517.508 516.94 509.276 512.697 501.71C506.871 501.609 500.882 501.604 495.047 501.649C455.235 501.955 415.271 501.165 375.474 501.731C373.392 504.639 372.217 509.022 370.064 511.267C370.457 509.005 373.721 502.3 375.384 500.724Z"/><path fill="#C9C8C8" transform="scale(0.998886 0.998886)" d="M369.611 511.59C369.683 511.882 369.755 512.173 369.827 512.464C360.486 530.512 344.833 563.783 335.798 580.261C335.264 577.197 362.42 526.938 365.389 519.553C365.9 518.282 368.68 513.058 369.611 511.59Z"/><path fill="#C9C8C8" transform="scale(0.998886 0.998886)" d="M556.21 599.642C556.435 599.701 556.266 599.63 556.826 600.056C556.294 602.816 554.862 609.895 553.927 612.33L553.612 612.236C553.138 611.247 555.649 601.49 556.21 599.642Z"/><path fill="#C9C8C8" transform="scale(0.998886 0.998886)" d="M551.902 618.926L552.474 619.351C552.273 621.882 551.027 626.078 550.123 628.51C549.697 626.944 551.327 620.9 551.902 618.926Z"/><path fill="#F9F9F7" transform="scale(0.998886 0.998886)" d="M178.179 261.799L178.149 262.447C177.969 265.836 176.734 270.981 177.111 274.396C178.806 289.77 182.067 305.805 185.084 320.934L203.569 409.549C211.92 450.919 227.116 499.271 218.847 541.429C218.278 544.333 216.885 547.754 216.509 550.534L215.312 552.474L214.855 553.641L214.197 556.802C212.934 569.761 214.852 575.492 215.752 587.873C203 587.663 191.319 587.184 178.525 588.875C172.682 589.647 160.471 594.961 156.148 594.365C155.338 592.936 153.778 583.008 153.073 580.339C151.467 574.251 150.021 568.622 147.889 562.624C147.819 562.192 147.273 560.834 147.091 560.345C146.835 560.048 146.593 559.397 146.412 558.999C145.203 558.967 144.709 558.419 143.724 557.69C123.808 536.28 108.756 500.738 94.4424 475.083C89.5413 466.299 83.9946 455.262 81.3556 445.706C80.5005 442.609 81.0259 438.582 81.9658 435.549C88.3509 417.904 97.2425 400.74 106.042 384.156C118.837 360.324 132.159 336.78 146.001 313.541C155.971 296.732 167.174 277.947 178.179 261.799Z"/><path fill="#F9F9F7" transform="scale(0.998886 0.998886)" d="M189.478 553.31C190.924 554.893 194.017 554.685 196.163 554.41L196.717 554.05C198.343 554.734 198.912 555.104 200.606 554.278C203.746 555.388 209.925 555.142 213.626 555.436L214.197 556.802C212.934 569.761 214.852 575.492 215.752 587.873C203 587.663 191.319 587.184 178.525 588.875C172.682 589.647 160.471 594.961 156.148 594.365C155.338 592.936 153.778 583.008 153.073 580.339C151.467 574.251 150.021 568.622 147.889 562.624C155.028 557.336 178.548 554.672 187.561 554.458C188.809 554.428 188.809 554.212 189.478 553.31Z"/><path fill="#111" transform="scale(0.998886 0.998886)" d="M146.412 558.999C158.601 552.808 181.087 550.416 194.553 550.71C199.844 550.93 210.151 551.471 215.312 552.474L214.855 553.641L214.197 556.802L213.626 555.436C209.925 555.142 203.746 555.388 200.606 554.278C198.912 555.104 198.343 554.734 196.717 554.05L196.163 554.41C194.017 554.685 190.924 554.893 189.478 553.31C188.809 554.212 188.809 554.428 187.561 554.458C178.548 554.672 155.028 557.336 147.889 562.624C147.819 562.192 147.273 560.834 147.091 560.345C146.835 560.048 146.593 559.397 146.412 558.999Z"/><path fill="#E7E6E8" transform="scale(0.998886 0.998886)" d="M181.063 552.422C183.386 552.523 187.667 552.323 189.478 553.31C188.809 554.212 188.809 554.428 187.561 554.458C178.548 554.672 155.028 557.336 147.889 562.624C147.819 562.192 147.273 560.834 147.091 560.345C151.362 556.396 174.316 552.398 181.063 552.422Z"/><defs><linearGradient id="gradient_3" gradientUnits="userSpaceOnUse" x1="207.11586" y1="554.97925" x2="207.23468" y2="553.20624"><stop offset="0" stop-color="#D1CFD6"/><stop offset="1" stop-color="#FCFAFC"/></linearGradient></defs><path fill="url(#gradient_3)" transform="scale(0.998886 0.998886)" d="M200.606 554.278C200.594 553.278 200.503 553.761 201.084 552.869C203.139 552.252 204.561 553.321 206.837 552.823C209.76 553.009 211.96 553.223 214.855 553.641L214.197 556.802L213.626 555.436C209.925 555.142 203.746 555.388 200.606 554.278Z"/><path fill="#E7E6E8" transform="scale(0.998886 0.998886)" d="M191.313 551.981C193.593 552.018 205.166 552.116 206.837 552.823C204.561 553.321 203.139 552.252 201.084 552.869C200.503 553.761 200.594 553.278 200.606 554.278C198.912 555.104 198.343 554.734 196.717 554.05L196.163 554.41C194.143 553.163 193.577 552.799 191.313 551.981Z"/><defs><linearGradient id="gradient_4" gradientUnits="userSpaceOnUse" x1="191.44514" y1="554.16028" x2="192.09653" y2="552.08563"><stop offset="0" stop-color="#C3C1C4"/><stop offset="1" stop-color="#EAE9E9"/></linearGradient></defs><path fill="url(#gradient_4)" transform="scale(0.998886 0.998886)" d="M181.063 552.422C183.592 552.051 188.844 551.795 191.313 551.981C193.577 552.799 194.143 553.163 196.163 554.41C194.017 554.685 190.924 554.893 189.478 553.31C187.667 552.323 183.386 552.523 181.063 552.422Z"/><path fill="#E7E6E8" transform="scale(0.998886 0.998886)" d="M143.724 557.69C149.467 553.07 172.413 548.935 180.077 548.616C183.336 548.48 190.229 548.467 193.735 548.468L193.342 549.625L194.553 550.71C181.087 550.416 158.601 552.808 146.412 558.999C145.203 558.967 144.709 558.419 143.724 557.69Z"/><defs><linearGradient id="gradient_5" gradientUnits="userSpaceOnUse" x1="204.67163" y1="548.54755" x2="204.49818" y2="550.71112"><stop offset="0" stop-color="#D7D7DA"/><stop offset="1" stop-color="#FAFCFB"/></linearGradient></defs><path fill="url(#gradient_5)" transform="scale(0.998886 0.998886)" d="M193.735 548.468C199.169 548.665 212.108 548.445 216.509 550.534L215.312 552.474C210.151 551.471 199.844 550.93 194.553 550.71L193.342 549.625L193.735 548.468Z"/><path fill="#F9F9F7" transform="scale(0.998886 0.998886)" d="M707.727 261.79C712.148 267.871 717.097 276.037 721.119 282.483C729.269 295.587 737.241 308.8 745.034 322.119C760.489 348.131 775.13 374.618 788.934 401.542C793.91 411.453 806.253 433.755 804.768 444.737C803.401 454.851 793.876 469.114 789.725 478.691C780.332 496.538 756.127 545.076 742.146 557.646C740.874 558.635 741.051 558.805 739.67 559.033L738.952 559.334L738.847 559.611C738.614 560.918 738.538 561.33 738.088 562.569C735.523 570.431 733.148 578.434 731.638 586.568C731.373 587.995 730.545 593.585 729.805 594.36C725.289 594.935 714.11 589.895 708.426 589.037C695.488 587.084 683.215 587.728 670.273 587.84C670.821 575.696 673.378 569.404 671.691 555.837L671.096 553.602L670.753 552.488L669.551 551.091C669.566 549.632 668.706 547.133 668.283 545.679C662.607 526.127 663.96 505.491 667.08 485.484C671.105 459.674 677.469 434.027 682.663 408.339C683.983 403.654 685.473 395.283 686.573 390.278C690.057 374.499 693.363 358.681 696.491 342.827C699.765 327.294 702.824 311.716 705.666 296.098C708 282.566 709.9 275.521 707.727 261.79Z"/><path fill="#F9F9F7" transform="scale(0.998886 0.998886)" d="M684.401 552.343C699.965 551.409 711.809 552.233 727.09 555.827C730.29 556.579 736.988 559.394 738.847 559.611C738.614 560.918 738.538 561.33 738.088 562.569C735.523 570.431 733.148 578.434 731.638 586.568C731.373 587.995 730.545 593.585 729.805 594.36C725.289 594.935 714.11 589.895 708.426 589.037C695.488 587.084 683.215 587.728 670.273 587.84C670.821 575.696 673.378 569.404 671.691 555.837L671.096 553.602C675.792 553.021 679.683 552.599 684.401 552.343Z"/><path fill="#E7E6E8" transform="scale(0.998886 0.998886)" d="M684.401 552.343C699.965 551.409 711.809 552.233 727.09 555.827C730.29 556.579 736.988 559.394 738.847 559.611C738.614 560.918 738.538 561.33 738.088 562.569C729.983 558.24 719.383 556.686 710.41 555.202C708.659 554.954 705.528 554.751 703.602 554.486C701.568 554.207 703.009 555.38 700.81 553.94L700.033 553.724L699.536 554.229L698.921 554.208C696.549 554.145 691.309 555.241 690.165 554.163L689.888 553.264C688.051 553.006 686.221 552.698 684.401 552.343Z"/><defs><linearGradient id="gradient_6" gradientUnits="userSpaceOnUse" x1="705.97943" y1="554.75226" x2="706.20276" y2="552.83093"><stop offset="0" stop-color="#C0BFC0"/><stop offset="1" stop-color="white"/></linearGradient></defs><path fill="url(#gradient_6)" transform="scale(0.998886 0.998886)" d="M700.81 553.94L701.444 552.941C704.583 552.476 707.393 552.722 710.463 553.385L710.968 553.851C710.776 554.356 710.653 554.717 710.41 555.202C708.659 554.954 705.528 554.751 703.602 554.486C701.568 554.207 703.009 555.38 700.81 553.94Z"/><defs><linearGradient id="gradient_7" gradientUnits="userSpaceOnUse" x1="680.92346" y1="555.07373" x2="680.65533" y2="552.95166"><stop offset="0" stop-color="#D4D2DA"/><stop offset="1" stop-color="#F8F7FA"/></linearGradient></defs><path fill="url(#gradient_7)" transform="scale(0.998886 0.998886)" d="M671.096 553.602C675.792 553.021 679.683 552.599 684.401 552.343C686.221 552.698 688.051 553.006 689.888 553.264L690.165 554.163C688.44 554.834 682.179 554.95 679.999 554.963C677.504 555.41 676.452 555.513 673.917 555.585L671.691 555.837L671.096 553.602Z"/><path fill="#C9C8C8" transform="scale(0.998886 0.998886)" d="M673.917 555.585C676.104 554.986 677.391 554.668 679.634 554.317L679.999 554.963C677.504 555.41 676.452 555.513 673.917 555.585Z"/><path fill="#E7E6E8" transform="scale(0.998886 0.998886)" d="M684.756 551.06C685.306 550.72 691.064 548.961 691.74 548.878C704.925 547.264 730.916 550.36 742.146 557.646C740.874 558.635 741.051 558.805 739.67 559.033L738.952 559.334L738.847 559.611C736.988 559.394 730.29 556.579 727.09 555.827C711.809 552.233 699.965 551.409 684.401 552.343C679.683 552.599 675.792 553.021 671.096 553.602L670.753 552.488C674.044 551.942 677.681 551.736 681.144 551.188L684.756 551.06Z"/><path fill="#111" transform="scale(0.998886 0.998886)" d="M684.756 551.06C700.424 550.181 725.567 551.701 739.67 559.033L738.952 559.334L738.847 559.611C736.988 559.394 730.29 556.579 727.09 555.827C711.809 552.233 699.965 551.409 684.401 552.343C679.683 552.599 675.792 553.021 671.096 553.602L670.753 552.488C674.044 551.942 677.681 551.736 681.144 551.188L684.756 551.06Z"/><path fill="#E7E6E8" transform="scale(0.998886 0.998886)" d="M669.551 551.091C670.786 550.219 671.359 549.591 672.789 549.519C673.552 550.184 673.479 550.174 673.809 551.148C676.746 551.386 678.919 550.859 681.144 551.188C677.681 551.736 674.044 551.942 670.753 552.488L669.551 551.091Z"/><path fill="#F9F9F7" transform="scale(0.998886 0.998886)" d="M396.814 633.54C431.768 632.595 466.743 632.709 501.69 633.88C505.234 633.99 524.566 634.539 527.217 635.309L527.527 635.297C530.356 635.333 532.499 635.377 535.303 635.675L537.288 635.827C540.136 635.877 557.43 636.468 559.42 636.883L563.409 637.157C576.639 638.206 598.416 639.178 610.775 641.665L610.246 643.236C608.969 648.753 607.78 654.415 606.793 659.992C605.881 665.145 605.677 670.713 604.136 675.699C603.328 676.286 602.576 676.302 601.539 676.15C583.408 673.493 565.324 672.388 547.048 671.121C478.731 666.21 410.152 666.141 341.825 670.917C322.231 672.319 300.864 673.395 281.577 676.677C280.569 672.568 280.192 665.522 279.388 660.941C278.362 655.095 277.031 649.473 275.967 643.68L274.938 641.985C280.866 639.298 337.671 636.362 347.212 635.852L353.358 635.692C355.241 635.097 365.386 634.855 367.686 634.792C375.098 633.87 389.078 633.694 396.814 633.54Z"/><path fill="#E7E6E8" transform="scale(0.998886 0.998886)" d="M396.814 633.54C431.768 632.595 466.743 632.709 501.69 633.88C505.234 633.99 524.566 634.539 527.217 635.309C523.709 635.843 513.879 634.301 512.146 635.623L511.866 636.235C510.998 636.66 511.085 636.57 510.113 636.777C509.372 635.981 509.449 635.951 508.41 635.698L507.54 636.782C504.632 636.982 501.114 636.098 498.087 636.004C488.092 635.692 478.092 635.751 468.093 635.696C468.092 635.696 466.823 634.72 466.822 634.72C463.264 635.094 459.516 635.608 455.93 635.408C455.076 635.36 455.261 635.172 454.539 634.214L453.374 635.306C451.947 635.807 447.667 635.268 445.868 635.147C444.703 635.495 445.254 635.524 444.158 635.121L444.116 633.988L443.796 633.32L443.093 633.446L441.97 635.428C438.577 635.621 434.792 635.494 431.521 635.26C428.311 635.031 428.024 633.772 425.827 635.621C425.879 635.578 419.204 635.263 418.625 635.434C413.137 635.634 407.798 635.725 402.331 635.818C399.41 635.867 397.405 636.315 394.326 636.238C395.196 634.779 395.347 634.163 396.814 633.54Z"/><path fill="#C9C8C8" transform="scale(0.998886 0.998886)" d="M444.116 633.988L446.871 633.621L447.284 633.953C446.763 634.34 446.241 634.646 445.868 635.147C444.703 635.495 445.254 635.524 444.158 635.121L444.116 633.988Z"/><path fill="#E7E6E8" transform="scale(0.998886 0.998886)" d="M274.938 641.985C280.866 639.298 337.671 636.362 347.212 635.852C346.23 637.007 345.785 637.559 344.644 638.536C329.577 639.553 314.454 639.643 299.418 641.735C297.155 642.05 296.552 640.407 295.848 640.776L295.873 641.77C295.162 642.251 277.329 643.881 275.967 643.68L274.938 641.985Z"/><path fill="#E7E6E8" transform="scale(0.998886 0.998886)" d="M563.409 637.157C576.639 638.206 598.416 639.178 610.775 641.665L610.246 643.236C607.22 641.807 592.076 644.015 589.812 640.106L589.612 639.756L588.893 639.694L588.734 640.828C586.44 642.785 572.826 638.994 569.392 639.559C568.184 639.758 564.282 640.125 563.38 639.296L563.409 637.157Z"/><path fill="#E7E6E8" transform="scale(0.998886 0.998886)" d="M367.686 634.792C375.098 633.87 389.078 633.694 396.814 633.54C395.347 634.163 395.196 634.779 394.326 636.238C392.051 635.608 376.122 638.302 373.072 636.018L373.113 635.395L374.195 635.288C372.305 634.852 369.681 634.867 367.686 634.792Z"/><path fill="#E7E6E8" transform="scale(0.998886 0.998886)" d="M353.358 635.692C355.241 635.097 365.386 634.855 367.686 634.792C369.681 634.867 372.305 634.852 374.195 635.288L373.113 635.395L373.072 636.018L372.339 636.621C368.43 637.028 354.515 638.521 351.566 637.31L351.369 636.538L353.358 635.692Z"/><path fill="#E7E6E8" transform="scale(0.998886 0.998886)" d="M537.288 635.827C540.136 635.877 557.43 636.468 559.42 636.883C556.95 638.346 559.426 639.37 554.916 639.015C550.234 638.646 545.647 638.602 540.971 637.889C539.592 636.448 539.242 636.233 537.288 635.827Z"/><defs><linearGradient id="gradient_8" gradientUnits="userSpaceOnUse" x1="518.08557" y1="636.77094" x2="518.05365" y2="635.27814"><stop offset="0" stop-color="#CCCACB"/><stop offset="1" stop-color="#FAF8FD"/></linearGradient></defs><path fill="url(#gradient_8)" transform="scale(0.998886 0.998886)" d="M511.866 636.235L512.146 635.623C513.879 634.301 523.709 635.843 527.217 635.309L527.527 635.297C526.426 635.954 526.207 636.156 524.912 636.404L524.344 635.995C523.589 636.496 523.259 636.677 522.444 637.079C520.254 636.973 513.369 636.142 511.866 636.235Z"/><path fill="#E7E6E8" transform="scale(0.998886 0.998886)" d="M527.527 635.297C530.356 635.333 532.499 635.377 535.303 635.675L534.713 637.268C532.413 637.988 527.37 637.857 525.145 636.965L524.912 636.404C526.207 636.156 526.426 635.954 527.527 635.297Z"/><path fill="#C9C8C8" transform="scale(0.998886 0.998886)" d="M543.362 200.793L545.089 198.185L546.842 199.195C546.975 199.778 547.368 201.303 547.238 201.818C545.487 201.956 545.96 201.688 544.645 202.58C544.382 202.018 543.765 201.311 543.362 200.793Z"/></svg>